<?xml version="1.0" encoding="utf-8"?>
<!-- Generator: Adobe Illustrator 25.3.1, SVG Export Plug-In . SVG Version: 6.00 Build 0)  -->
<svg version="1.1" id="Layer_1" xmlns="http://www.w3.org/2000/svg" xmlns:xlink="http://www.w3.org/1999/xlink" x="0px" y="0px"
	 viewBox="0 0 32 32" style="enable-background:new 0 0 32 32;" xml:space="preserve">
<style type="text/css">
	.st0{fill:#707070;}
</style>
<g>
	<path class="st0" d="M26.34,2.83l2.83,2.83l-1.41,1.41l-2.83-2.83L26.34,2.83 M26.34,0L22.1,4.24l5.66,5.66L32,5.66L26.34,0
		L26.34,0z"/>
	<path class="st0" d="M26.34,2.83l2.83,2.83L8.25,26.58l-4.69,1.86l1.86-4.69L26.34,2.83 M26.34,0L3.72,22.63L0,32l9.37-3.72
		L32,5.66L26.34,0L26.34,0z"/>
	<rect x="6.51" y="20.49" transform="matrix(0.7071 -0.7071 0.7071 0.7071 -15.1127 12.4853)" class="st0" width="2" height="8"/>
</g>
</svg>
