<?xml version="1.0" encoding="utf-8"?>
<!-- Generator: Adobe Illustrator 25.3.1, SVG Export Plug-In . SVG Version: 6.00 Build 0)  -->
<svg version="1.1" id="Layer_1" xmlns="http://www.w3.org/2000/svg" xmlns:xlink="http://www.w3.org/1999/xlink" x="0px" y="0px"
	 viewBox="0 0 32 32" style="enable-background:new 0 0 32 32;" xml:space="preserve">
<style type="text/css">
	.st0{fill:#707070;}
</style>
<path class="st0" d="M16,0C7.16,0,0,7.16,0,16s7.16,16,16,16s16-7.16,16-16S24.84,0,16,0z M16,30C8.27,30,2,23.73,2,16S8.27,2,16,2
	s14,6.27,14,14S23.73,30,16,30z"/>
<g>
	<path class="st0" d="M14.97,20.32v-0.58c0-1.99,0.58-3.12,2.62-5.06c1.06-1.03,1.37-1.58,1.37-2.47c0-1.46-1.2-2.52-2.86-2.52
		c-2.06,0-3.12,1.27-3.17,3.79h-2.04c0.1-3.62,1.99-5.64,5.3-5.64c2.93,0,4.92,1.78,4.92,4.37c0,0.96-0.26,1.78-0.86,2.5
		c-0.34,0.43-0.41,0.5-2.04,2.04c-1.06,0.98-1.32,1.7-1.3,3.58H14.97z M17.12,24.16h-2.4v-2.4h2.4V24.16z"/>
</g>
</svg>
