<?xml version="1.0" encoding="utf-8"?>
<!-- Generator: Adobe Illustrator 25.3.1, SVG Export Plug-In . SVG Version: 6.00 Build 0)  -->
<svg version="1.1" id="Layer_1" xmlns="http://www.w3.org/2000/svg" xmlns:xlink="http://www.w3.org/1999/xlink" x="0px" y="0px"
	 viewBox="0 0 32 32" style="enable-background:new 0 0 32 32;" xml:space="preserve">
<style type="text/css">
	.st0{fill:#707070;}
</style>
<g>
	<g>
		<polygon class="st0" points="24,13 13,24 8,19 3,24 3,26.83 8,21.83 11.59,25.41 13,26.83 14.41,25.41 24,15.83 29,20.83 29,18 		
			"/>
	</g>
	<g>
		<path class="st0" d="M1,1v30h30V1H1z M29,29H3V3h26V29z"/>
	</g>
	<g>
		<path class="st0" d="M13,15c-2.21,0-4-1.79-4-4s1.79-4,4-4s4,1.79,4,4S15.21,15,13,15z M13,9c-1.1,0-2,0.9-2,2s0.9,2,2,2
			s2-0.9,2-2S14.1,9,13,9z"/>
	</g>
</g>
</svg>
