<?xml version="1.0" encoding="utf-8"?>
<!-- Generator: Adobe Illustrator 25.3.1, SVG Export Plug-In . SVG Version: 6.00 Build 0)  -->
<svg version="1.1" id="Layer_1" xmlns="http://www.w3.org/2000/svg" xmlns:xlink="http://www.w3.org/1999/xlink" x="0px" y="0px"
	 viewBox="0 0 32 32" style="enable-background:new 0 0 32 32;" xml:space="preserve">
<style type="text/css">
	.st0{fill:#707070;}
</style>
<g>
	<path class="st0" d="M16,0C7.16,0,0,7.16,0,16s7.16,16,16,16s16-7.16,16-16S24.84,0,16,0z M16,30C8.27,30,2,23.73,2,16S8.27,2,16,2
		s14,6.27,14,14S23.73,30,16,30z"/>
	<path class="st0" d="M16,8c-3.31,0-6,2.69-6,6s2.69,6,6,6s6-2.69,6-6S19.31,8,16,8z M16,18c-2.21,0-4-1.79-4-4c0-2.21,1.79-4,4-4
		s4,1.79,4,4C20,16.21,18.21,18,16,18z"/>
	<path class="st0" d="M16,18c-4.83,0-8.87,3.43-9.8,7.99c0.56,0.55,1.17,1.06,1.82,1.51C8.29,23.32,11.75,20,16,20
		s7.71,3.32,7.97,7.5c0.65-0.45,1.26-0.95,1.82-1.51C24.87,21.43,20.83,18,16,18z"/>
</g>
</svg>
