<?xml version="1.0" encoding="UTF-8"?><svg version="1.1" xmlns="http://www.w3.org/2000/svg" xmlns:xlink="http://www.w3.org/1999/xlink" x="0px" y="0px" viewBox="0 0 1600 1200" style="enable-background:new 0 0 1600 1200;" xml:space="preserve" width="1600px" height="1200px">

<g id="background">
	<g id="XMLID_1772_">
		<g id="XMLID_1847_">
			<path id="XMLID_1851_" d="M1128.2,86.1c0,29.2,0,58.4,0,87.7c0,1.4,2.3,1.5,2.3,0c0-29.2,0-58.4,0-87.7
				C1130.5,84.6,1128.2,84.6,1128.2,86.1L1128.2,86.1z" style="fill:#E8E8E8;"/>
		</g>
	</g>
	<g id="XMLID_1780_">
		<g id="XMLID_1855_">
			<path id="XMLID_1860_" d="M1130.2,176.2c79.3,0,158.7,0,238,0c1.4,0,1.5-2.3,0-2.3c-79.3,0-158.7,0-238,0
				C1128.8,173.9,1128.8,176.2,1130.2,176.2L1130.2,176.2z" style="fill:#E8E8E8;"/>
		</g>
	</g>
	<g id="XMLID_1788_">
		<g id="XMLID_1863_">
			<path id="XMLID_1873_" d="M1129.8,86.8c80.2,0,160.4,0,240.6,0c1.4,0,1.5-2.3,0-2.3c-80.2,0-160.4,0-240.6,0
				C1128.3,84.5,1128.3,86.8,1129.8,86.8L1129.8,86.8z" style="fill:#E8E8E8;"/>
		</g>
	</g>
	<g id="XMLID_1797_">
		<g id="XMLID_1876_">
			<path id="XMLID_1881_" d="M1369.7,85.2c0,29.5,0,59,0,88.5c0,1.4,2.3,1.5,2.3,0c0-29.5,0-59,0-88.5
				C1372,83.7,1369.7,83.7,1369.7,85.2L1369.7,85.2z" style="fill:#E8E8E8;"/>
		</g>
	</g>
	<g id="XMLID_1805_">
		<g id="XMLID_1884_">
			<path id="XMLID_1889_" d="M1142.3,160.6c0-21,0-42.1,0-63.1c0-1.4-2.3-1.5-2.3,0c0,21,0,42.1,0,63.1
				C1140,162,1142.3,162,1142.3,160.6L1142.3,160.6z" style="fill:#E8E8E8;"/>
		</g>
	</g>
	<g id="XMLID_1813_">
		<g id="XMLID_1893_">
			<path id="XMLID_1897_" d="M1141.2,98.6c72,0,144.1,0,216.1,0c1.4,0,1.5-2.3,0-2.3c-72,0-144.1,0-216.1,0
				C1139.7,96.3,1139.7,98.6,1141.2,98.6L1141.2,98.6z" style="fill:#E8E8E8;"/>
		</g>
	</g>
	<g id="XMLID_1821_">
		<g id="XMLID_1901_">
			<path id="XMLID_1905_" d="M1357.4,98.8c0,19.4,0,38.9,0,58.3c0,1.4,2.3,1.5,2.3,0c0-19.4,0-38.9,0-58.3
				C1359.7,97.3,1357.4,97.3,1357.4,98.8L1357.4,98.8z" style="fill:#E8E8E8;"/>
		</g>
	</g>
	<g id="XMLID_1822_">
		<g id="XMLID_1909_">
			<path id="XMLID_1914_" d="M1142,162.6c72.2,0,144.3,0,216.5,0c1.4,0,1.5-2.3,0-2.3c-72.2,0-144.3,0-216.5,0
				C1140.6,160.3,1140.6,162.6,1142,162.6L1142,162.6z" style="fill:#E8E8E8;"/>
		</g>
	</g>
	<g id="XMLID_1829_">
		<g id="XMLID_1917_">
			<path id="XMLID_1922_" d="M1145.3,158.4c39.8-16.5,78.8-35.1,116.6-55.7c1.3-0.7,0.1-2.6-1.1-1.9
				c-37.7,20.5-76.4,39.1-116.1,55.5C1143.4,156.8,1144,159,1145.3,158.4L1145.3,158.4z" style="fill:#E8E8E8;"/>
		</g>
	</g>
	<g id="XMLID_1830_">
		<g id="XMLID_1925_">
			<path id="XMLID_1930_" d="M1211.9,163.4c36.1-21,73.5-39.6,112-55.9c1.3-0.6,0.2-2.5-1.1-1.9
				c-38.5,16.3-75.9,35-112,55.9C1209.5,162.2,1210.7,164.1,1211.9,163.4L1211.9,163.4z" style="fill:#E8E8E8;"/>
		</g>
	</g>
	<g id="XMLID_1837_">
		<g id="XMLID_1933_">
			<path id="XMLID_1944_" d="M1168.1,237.3c0,38.1,0,76.3,0,114.4c0,1.4,2.3,1.5,2.3,0c0-38.1,0-76.3,0-114.4
				C1170.3,235.8,1168.1,235.8,1168.1,237.3L1168.1,237.3z" style="fill:#E8E8E8;"/>
		</g>
	</g>
	<g id="XMLID_1839_">
		<g id="XMLID_1948_">
			<path id="XMLID_1952_" d="M1169.7,351.5c72.8,0,145.5,0,218.3,0c1.4,0,1.5-2.3,0-2.3c-72.8,0-145.5,0-218.3,0
				C1168.2,349.2,1168.2,351.5,1169.7,351.5L1169.7,351.5z" style="fill:#E8E8E8;"/>
		</g>
	</g>
	<g id="XMLID_1840_">
		<g id="XMLID_1956_">
			<path id="XMLID_1960_" d="M1389.9,350.8c0-36.8,0-73.6,0-110.4c0-1.4-2.3-1.5-2.3,0c0,36.8,0,73.6,0,110.4
				C1387.7,352.2,1389.9,352.2,1389.9,350.8L1389.9,350.8z" style="fill:#E8E8E8;"/>
		</g>
	</g>
	<g id="XMLID_1841_">
		<g id="XMLID_1964_">
			<path id="XMLID_1969_" d="M1169.2,238.4c72.9,0,145.8,0,218.7,0c1.4,0,1.5-2.3,0-2.3c-72.9,0-145.8,0-218.7,0
				C1167.8,236.2,1167.8,238.4,1169.2,238.4L1169.2,238.4z" style="fill:#E8E8E8;"/>
		</g>
	</g>
	<g id="XMLID_1842_">
		<g id="XMLID_1972_">
			<path id="XMLID_1977_" d="M1169.7,291.9c71,0,142,0,213,0c1.4,0,1.5-2.3,0-2.3c-71,0-142,0-213,0
				C1168.2,289.6,1168.2,291.9,1169.7,291.9L1169.7,291.9z" style="fill:#E8E8E8;"/>
		</g>
	</g>
	<g id="XMLID_1843_">
		<g id="XMLID_1980_">
			<path id="XMLID_1985_" d="M1183.2,300.6c67.4,0,134.7,0,202.1,0c1.4,0,1.5-2.3,0-2.3c-67.4,0-134.7,0-202.1,0
				C1181.8,298.4,1181.8,300.6,1183.2,300.6L1183.2,300.6z" style="fill:#E8E8E8;"/>
		</g>
	</g>
	<g id="XMLID_1844_">
		<g id="XMLID_1988_">
			<path id="XMLID_1993_" d="M672.8,199.3c0,83.4,0,166.8,0,250.3c0,23.6,0,47.2,0,70.8c0,1.4,2.3,1.5,2.3,0
				c0-83.4,0-166.8,0-250.3c0-23.6,0-47.2,0-70.8C675.1,197.9,672.8,197.9,672.8,199.3L672.8,199.3z" style="fill:#E8E8E8;"/>
		</g>
	</g>
	<g id="XMLID_1853_">
		<g id="XMLID_1997_">
			<path id="XMLID_2001_" d="M674.5,522c76.6,0,153.2,0,229.9,0c1.4,0,1.5-2.3,0-2.3c-76.6,0-153.2,0-229.9,0
				C673.1,519.8,673.1,522,674.5,522L674.5,522z" style="fill:#E8E8E8;"/>
		</g>
	</g>
	<g id="XMLID_1861_">
		<g id="XMLID_2008_">
			<path id="XMLID_2012_" d="M674,200.4c79.5,0,159,0,238.5,0c1.4,0,1.5-2.3,0-2.3c-79.5,0-159,0-238.5,0
				C672.5,198.2,672.5,200.4,674,200.4L674,200.4z" style="fill:#E8E8E8;"/>
		</g>
	</g>
	<g id="XMLID_1874_">
		<g id="XMLID_2016_">
			<path id="XMLID_2021_" d="M912.4,199.3c0,82.9,0,165.8,0,248.6c0,23.6,0,47.3,0,70.9c0,1.4,2.3,1.5,2.3,0
				c0-0.9,0-1.8,0-2.8c0-1.4-2.3-1.5-2.3,0c0,0.9,0,1.8,0,2.8c0.8,0,1.5,0,2.3,0c0-82.9,0-165.8,0-248.6c0-23.6,0-47.3,0-70.9
				C914.7,197.9,912.4,197.9,912.4,199.3L912.4,199.3z" style="fill:#E8E8E8;"/>
		</g>
	</g>
	<g id="XMLID_1882_">
		<g id="XMLID_2024_">
			<path id="XMLID_2033_" d="M903.8,522.2c3.4,0.6,6.8,0.4,10-0.8c1.3-0.5,0.8-2.7-0.6-2.2c-2.9,1.1-5.8,1.4-8.8,0.8
				C903,519.7,902.4,521.9,903.8,522.2L903.8,522.2z" style="fill:#E8E8E8;"/>
		</g>
	</g>
	<g id="XMLID_1890_">
		<g id="XMLID_2036_">
			<path id="XMLID_2041_" d="M674.6,320.5c79.6,0,159.2,0,238.9,0c1.4,0,1.5-2.3,0-2.3c-79.6,0-159.2,0-238.9,0
				C673.1,318.2,673.1,320.5,674.6,320.5L674.6,320.5z" style="fill:#E8E8E8;"/>
		</g>
	</g>
	<g id="XMLID_1898_">
		<g id="XMLID_2044_">
			<path id="XMLID_2049_" d="M795.7,321c0,66.5,0,132.9,0,199.4c0,1.4,2.3,1.5,2.3,0c0-66.5,0-132.9,0-199.4
				C797.9,319.6,795.7,319.6,795.7,321L795.7,321z" style="fill:#E8E8E8;"/>
		</g>
	</g>
	<g id="XMLID_1907_">
		<g id="XMLID_2055_">
			<path id="XMLID_2059_" d="M782.3,423.3c-0.1,0.1-0.2,0.2-0.3,0.3c0.4-0.1,0.7-0.2,1.1-0.3c-1.9-0.5-1.9-5.5-1.6-6.9
				c0.5-2.6,2.6-6.1,5.6-4.7c6.2,2.8-0.3,14.8-4.2,10.9c-1-1-2.6,0.6-1.6,1.6c3.3,3.3,8,0.1,9.5-3.4c1.7-3.7,1.1-10.2-3.4-11.6
				c-4.5-1.4-7.8,3.8-8.3,7.6c-0.2,1.8,1.3,11.4,4.7,8.2C784.9,423.9,783.3,422.3,782.3,423.3L782.3,423.3z" style="fill:#E8E8E8;"/>
		</g>
	</g>
	<g id="XMLID_1915_">
		<g id="XMLID_2063_">
			<path id="XMLID_2067_" d="M675.2,312.1c78.5,0,157,0,235.5,0c1.4,0,1.5-2.3,0-2.3c-78.5,0-157,0-235.5,0
				C673.8,309.8,673.8,312.1,675.2,312.1L675.2,312.1z" style="fill:#E8E8E8;"/>
		</g>
	</g>
	<g id="XMLID_1923_">
		<g id="XMLID_2071_">
			<path id="XMLID_2076_" d="M817.7,310.3c1-8.9,2.2-17.7,6.5-25.7c0.7-1.3-1.3-2.4-1.9-1.1c-4.5,8.3-5.8,17.6-6.8,26.9
				C815.2,311.7,817.5,311.7,817.7,310.3L817.7,310.3z" style="fill:#E8E8E8;"/>
		</g>
	</g>
	<g id="XMLID_1931_">
		<g id="XMLID_2079_">
			<path id="XMLID_2086_" d="M823.1,286.4c3.4-7.2,9.5-12.3,13.6-19.1c4.5-7.4,3.6-15.8,3.5-24.1c0-1.4-2.3-1.5-2.3,0
				c0,9.1,0.8,17.5-4.8,25.3c-4,5.7-9,10.4-12,16.7C820.6,286.6,822.5,287.7,823.1,286.4L823.1,286.4z" style="fill:#E8E8E8;"/>
		</g>
	</g>
	<g id="XMLID_1945_">
		<g id="XMLID_2089_">
			<path id="XMLID_2094_" d="M839.1,243.7c3.7-1.5,8-3.2,11.6-0.6c1.2,0.9,2.3-1.1,1.1-1.9c-4.1-3-9.1-1.4-13.4,0.3
				C837.1,242,837.7,244.2,839.1,243.7L839.1,243.7z" style="fill:#E8E8E8;"/>
		</g>
	</g>
	<g id="XMLID_1953_">
		<g id="XMLID_2097_">
			<path id="XMLID_2102_" d="M850.9,243c0.1,7,0.2,14.1,0.4,21.1c0,1.4,2.3,1.5,2.3,0c-0.1-7-0.2-14.1-0.4-21.1
				C853.1,241.5,850.9,241.5,850.9,243L850.9,243z" style="fill:#E8E8E8;"/>
		</g>
	</g>
	<g id="XMLID_1962_">
		<g id="XMLID_2106_">
			<path id="XMLID_2110_" d="M851.6,262.5c2.2,7.4,7.2,13,11,19.6c4.9,8.6,5.9,18.4,6.5,28.1c0.1,1.4,2.3,1.4,2.3,0
				c-0.5-8.4-1.2-17-4.6-24.9c-3.5-8.3-10.4-14.7-12.9-23.4C853.3,260.5,851.2,261.1,851.6,262.5L851.6,262.5z" style="fill:#E8E8E8;"/>
		</g>
	</g>
	<g id="XMLID_1970_">
		<g id="XMLID_2114_">
			<path id="XMLID_2118_" d="M840,248.5c3.7-1.6,7.8-1.4,11.3,0.5c1.3,0.7,2.4-1.3,1.1-1.9c-4.3-2.3-9.1-2.4-13.6-0.5
				C837.6,247.1,838.7,249.1,840,248.5L840,248.5z" style="fill:#E8E8E8;"/>
		</g>
	</g>
	<g id="XMLID_1978_">
		<g id="XMLID_2122_">
			<path id="XMLID_2131_" d="M841.2,241.4c1.5-0.8,0.2-2.3,1.1-3.1c0.6-0.6,3-0.3,3.8-0.3c1.6,0,3.2,0.3,4.8,0.7
				c-0.3-0.3-0.5-0.5-0.8-0.8c0.4,1.1,0.5,2.1,0.4,3.2c-0.2,1.4,2.1,1.4,2.3,0c0.1-1.2,0.2-3.7-1-4.5c-1.5-1-4.8-0.9-6.4-0.9
				c-1.6,0-3.7,0-4.9,1.1c-0.6,0.5-1.1,3.1-0.3,2.6C838.8,240.2,839.9,242.1,841.2,241.4L841.2,241.4z" style="fill:#E8E8E8;"/>
		</g>
	</g>
	<g id="XMLID_1986_">
		<g id="XMLID_2134_">
			<path id="XMLID_2139_" d="M834.6,285.1c-0.1,4.4-0.2,8.7-0.3,13.1c0,1.4,2.2,1.4,2.3,0c0.1-4.4,0.2-8.7,0.3-13.1
				C836.9,283.7,834.7,283.7,834.6,285.1L834.6,285.1z" style="fill:#E8E8E8;"/>
		</g>
	</g>
	<g id="XMLID_1994_">
		<g id="XMLID_2142_">
			<path id="XMLID_2147_" d="M836.3,285.4c7.3-0.5,14.6-0.3,21.8,0.8c1.4,0.2,2-1.9,0.6-2.2c-7.5-1.2-14.9-1.5-22.4-0.9
				C834.8,283.3,834.8,285.5,836.3,285.4L836.3,285.4z" style="fill:#E8E8E8;"/>
		</g>
	</g>
	<g id="XMLID_2002_">
		<g id="XMLID_2150_">
			<path id="XMLID_2155_" d="M835.6,300.4c8.3-1,16.7-1.5,25-1.7c1.4,0,1.5-2.3,0-2.3c-8.4,0.1-16.7,0.7-25,1.7
				C834.1,298.3,834.1,300.6,835.6,300.4L835.6,300.4z" style="fill:#E8E8E8;"/>
		</g>
	</g>
	<g id="XMLID_2014_">
		<g id="XMLID_2159_">
			<path id="XMLID_2163_" d="M858,286c1.8,3.7,2.5,7.7,2.2,11.9c-0.1,1.4,2.1,1.4,2.3,0c0.3-4.5-0.5-8.9-2.5-13
				C859.3,283.5,857.3,284.7,858,286L858,286z" style="fill:#E8E8E8;"/>
		</g>
	</g>
	<g id="XMLID_2022_">
		<g id="XMLID_2167_">
			<path id="XMLID_2171_" d="M690.9,311.3c0-13.5,0-27.1,0-40.6c-0.8,0-1.5,0-2.3,0c0,0.8,0,1.6,0,2.4
				c0,1.4,2.3,1.5,2.3,0c0-0.8,0-1.6,0-2.4c0-1.4-2.3-1.5-2.3,0c0,13.5,0,27.1,0,40.6C688.6,312.7,690.9,312.7,690.9,311.3
				L690.9,311.3z" style="fill:#E8E8E8;"/>
		</g>
	</g>
	<g id="XMLID_2034_">
		<g id="XMLID_2175_">
			<path id="XMLID_2180_" d="M689.6,270.9c0,12.9,0,25.8,0,38.6c0,1.4,2.3,1.5,2.3,0c0-12.9,0-25.8,0-38.6
				C691.9,269.4,689.6,269.4,689.6,270.9L689.6,270.9z" style="fill:#E8E8E8;"/>
		</g>
	</g>
	<g id="XMLID_2042_">
		<g id="XMLID_2183_">
			<path id="XMLID_2188_" d="M690.8,289.5c3.3,0,6.5,0,9.8,0c1.4,0,1.5-2.3,0-2.3c-3.3,0-6.5,0-9.8,0
				C689.3,287.2,689.3,289.5,690.8,289.5L690.8,289.5z" style="fill:#E8E8E8;"/>
		</g>
	</g>
	<g id="XMLID_2050_">
		<g id="XMLID_2191_">
			<path id="XMLID_2196_" d="M700.5,283.1c-0.4,4.1-1.1,10.4,0.7,14.3c0.9,2,3.2,3,4.8,1c2.3-3,1.7-9.3,1.6-12.8
				c-0.1-3.2,0-7.1-3.9-7.8c-0.5-0.1-0.9,0.1-1.3,0.5c-1.5,2-2.1,4.1-2.1,6.6c0,1.4,2.3,1.5,2.3,0c0-2.1,0.5-3.8,1.8-5.5
				c-0.4,0.2-0.8,0.3-1.3,0.5c3.6,0.6,2.8,13.2,1.5,15.5c-0.6,1.1-0.7,1.7-1.6-0.1c-0.5-0.9-0.4-3.3-0.5-4.6c-0.1-2.6,0-5.1,0.2-7.7
				C702.9,281.7,700.6,281.7,700.5,283.1L700.5,283.1z" style="fill:#E8E8E8;"/>
		</g>
	</g>
	<g id="XMLID_2060_">
		<g id="XMLID_2199_">
			<path id="XMLID_2204_" d="M707.9,290.4c2.9,0,5.7,0,8.6,0c1.4,0,1.5-2.3,0-2.3c-2.9,0-5.7,0-8.6,0
				C706.5,288.1,706.5,290.4,707.9,290.4L707.9,290.4z" style="fill:#E8E8E8;"/>
		</g>
	</g>
	<g id="XMLID_2069_">
		<g id="XMLID_2208_">
			<path id="XMLID_2212_" d="M718.9,294.2c-0.3-2-0.5-4-0.3-6.1c0.1-1.2,1-7.3,3.3-4.9c1.1,1.1,0.9,4.4,0.9,5.8
				c0,1.2-0.1,2.4-0.4,3.6c-0.1,0.4-0.2,0.7-0.3,1.1c-0.3,2.1-1.5,1.9-3.7-0.8c-0.2-1.4-2.4-1.4-2.3,0c0.4,2.8,2.6,7.9,6.2,5
				c3.3-2.6,2.9-9.7,2.2-13.2c-0.6-2.7-2.4-7.7-5.6-4.3c-3.4,3.6-3,9.9-2.3,14.3C717,296.2,719.2,295.6,718.9,294.2L718.9,294.2z" style="fill:#E8E8E8;"/>
		</g>
	</g>
	<g id="XMLID_2077_">
		<g id="XMLID_2216_">
			<path id="XMLID_2220_" d="M724.5,290.1c2.9,0,5.7,0,8.6,0c1.4,0,1.5-2.3,0-2.3c-2.9,0-5.7,0-8.6,0
				C723.1,287.8,723.1,290.1,724.5,290.1L724.5,290.1z" style="fill:#E8E8E8;"/>
		</g>
	</g>
	<g id="XMLID_2087_">
		<g id="XMLID_2224_">
			<path id="XMLID_2229_" d="M736.4,295.1c-0.5-2-1-4-1.2-6c-0.1-1.2,0.5-7.8,2.4-5.4c1,1.3,0.9,4.8,0.9,6.3
				c0,0.9-1.1,7.5-2.7,4.2c-0.6-1.3-2.6-0.2-1.9,1.1c1.2,2.4,3.5,3.6,5.3,1.1c2.6-3.5,1.8-9.5,0.6-13.3c-0.9-3-3.6-4.1-5.5-1.1
				c-2.5,3.9-1.1,9.5,0,13.7C734.6,297.1,736.7,296.5,736.4,295.1L736.4,295.1z" style="fill:#E8E8E8;"/>
		</g>
	</g>
	<g id="XMLID_2095_">
		<g id="XMLID_2232_">
			<path id="XMLID_2237_" d="M740.2,290.7c2.6,0,5.1,0,7.7,0c1.4,0,1.5-2.3,0-2.3c-2.6,0-5.1,0-7.7,0
				C738.7,288.4,738.7,290.7,740.2,290.7L740.2,290.7z" style="fill:#E8E8E8;"/>
		</g>
	</g>
	<g id="XMLID_2103_">
		<g id="XMLID_2240_">
			<path id="XMLID_2245_" d="M750.6,293.9c-0.5-2.3-1.6-9.8,1.3-10.8c1.4-0.5,1,0.3,1.2,1.6c0.2,1,0.2,2,0.2,3.1
				c0,0.7,0,1.4-0.1,2.1c-0.1,0.8-0.2,1.6-0.4,2.4c-0.1,0.9-0.7,1.4-1.8,1.4c-0.1-1.4-2.3-1.4-2.3,0c0.2,2.9,3.5,4.2,5.3,1.7
				c2.3-3.2,1.8-9.2,1-12.7c-0.7-2.8-3.5-4.2-5.5-1.4c-2.4,3.5-2,9.4-1.2,13.3C748.7,295.9,750.9,295.3,750.6,293.9L750.6,293.9z" style="fill:#E8E8E8;"/>
		</g>
	</g>
	<g id="XMLID_2111_">
		<g id="XMLID_2248_">
			<path id="XMLID_2253_" d="M755.5,290.1c1.9,0,3.9,0,5.8,0c1.4,0,1.5-2.3,0-2.3c-1.9,0-3.9,0-5.8,0
				C754,287.8,754,290.1,755.5,290.1L755.5,290.1z" style="fill:#E8E8E8;"/>
		</g>
	</g>
	<g id="XMLID_2120_">
		<g id="XMLID_2257_">
			<path id="XMLID_2261_" d="M762,271.2c0,12.8,0,25.6,0,38.3c0,1.4,2.3,1.5,2.3,0c0-12.8,0-25.6,0-38.3
				C764.3,269.7,762,269.7,762,271.2L762,271.2z" style="fill:#E8E8E8;"/>
		</g>
	</g>
	<g id="XMLID_2132_">
		<g id="XMLID_2265_">
			<path id="XMLID_2269_" d="M762.6,272.1c0,12.3,0,24.6,0,36.9c0,1.4,2.3,1.5,2.3,0c0-0.2,0-0.4,0-0.7
				c0-1.4-2.3-1.5-2.3,0c0,0.2,0,0.4,0,0.7c0,1.4,2.3,1.5,2.3,0c0-12.3,0-24.6,0-36.9C764.9,270.6,762.6,270.6,762.6,272.1
				L762.6,272.1z" style="fill:#E8E8E8;"/>
		</g>
	</g>
	<g id="XMLID_2140_">
		<g id="XMLID_2273_">
			<path id="XMLID_2278_" d="M677.7,208c0,33.6,0,67.3,0,100.9c0,1.4,2.3,1.5,2.3,0c0-33.6,0-67.3,0-100.9
				C679.9,206.5,677.7,206.5,677.7,208L677.7,208z" style="fill:#E8E8E8;"/>
		</g>
	</g>
	<g id="XMLID_2148_">
		<g id="XMLID_2281_">
			<path id="XMLID_2286_" d="M679.4,209.1c76.3,0,152.5,0,228.8,0c1.4,0,1.5-2.3,0-2.3c-76.3,0-152.5,0-228.8,0
				C678,206.9,678,209.1,679.4,209.1L679.4,209.1z" style="fill:#E8E8E8;"/>
		</g>
	</g>
	<g id="XMLID_2156_">
		<g id="XMLID_2289_">
			<path id="XMLID_2294_" d="M908,208c0,33.4,0,66.9,0,100.3c0,1.4,2.3,1.5,2.3,0c0-33.4,0-66.9,0-100.3
				C910.3,206.5,908,206.5,908,208L908,208z" style="fill:#E8E8E8;"/>
		</g>
	</g>
	<g id="XMLID_2164_">
		<g id="XMLID_2297_">
			<path id="XMLID_2302_" d="M695.7,223.3c0,9.3,0.2,18.7,0.5,28c0,1.4,2.3,1.5,2.3,0c-0.3-9.3-0.5-18.7-0.5-28
				C698,221.9,695.7,221.9,695.7,223.3L695.7,223.3z" style="fill:#E8E8E8;"/>
		</g>
	</g>
	<g id="XMLID_2173_">
		<g id="XMLID_2306_">
			<path id="XMLID_2310_" d="M697.8,224.1c15.1,0,30.2,0.4,45.3,1.4c1.4,0.1,1.4-2.2,0-2.3c-15.1-0.9-30.2-1.4-45.3-1.4
				C696.3,221.8,696.3,224.1,697.8,224.1L697.8,224.1z" style="fill:#E8E8E8;"/>
		</g>
	</g>
	<g id="XMLID_2181_">
		<g id="XMLID_2314_">
			<path id="XMLID_2318_" d="M697.8,252.5c15.7,1.7,31.4,2.1,47.1,1.1c1.4-0.1,1.4-2.3,0-2.3
				c-15.7,0.9-31.4,0.6-47.1-1.1C696.4,250.1,696.4,252.4,697.8,252.5L697.8,252.5z" style="fill:#E8E8E8;"/>
		</g>
	</g>
	<g id="XMLID_2189_">
		<g id="XMLID_2322_">
			<path id="XMLID_2327_" d="M743.3,224.5c0.4,9.8,0.2,19.5-0.4,29.2c-0.1,1.4,2.2,1.4,2.3,0c0.6-9.7,0.7-19.5,0.4-29.2
				C745.5,223.1,743.3,223.1,743.3,224.5L743.3,224.5z" style="fill:#E8E8E8;"/>
		</g>
	</g>
	<g id="XMLID_2197_">
		<g id="XMLID_2330_">
			<path id="XMLID_2335_" d="M702.6,232.2c8-0.2,15.9,0.2,23.9,1c1.4,0.2,1.4-2.1,0-2.3c-7.9-0.9-15.9-1.2-23.9-1
				C701.1,230,701.1,232.2,702.6,232.2L702.6,232.2z" style="fill:#E8E8E8;"/>
		</g>
	</g>
	<g id="XMLID_2205_">
		<g id="XMLID_2338_">
			<path id="XMLID_2343_" d="M707.4,238.5c9.3,0.8,18.7,1.5,28,2.3c1.4,0.1,1.4-2.1,0-2.3c-9.3-0.8-18.7-1.5-28-2.3
				C705.9,236.1,705.9,238.3,707.4,238.5L707.4,238.5z" style="fill:#E8E8E8;"/>
		</g>
	</g>
	<g id="XMLID_2213_">
		<g id="XMLID_2346_">
			<path id="XMLID_2351_" d="M719.3,247.2c6.9-0.7,13.9-0.9,20.9-0.7c1.4,0,1.4-2.2,0-2.3c-7-0.2-13.9,0-20.9,0.7
				C717.8,245.1,717.8,247.3,719.3,247.2L719.3,247.2z" style="fill:#E8E8E8;"/>
		</g>
	</g>
	<g id="XMLID_2222_">
		<g id="XMLID_2355_">
			<path id="XMLID_2359_" d="M640.6,641.7c0-10.8,0-21.7,0-32.5c0-1.4-2.3-1.5-2.3,0c0,10.8,0,21.7,0,32.5
				C638.3,643.1,640.6,643.1,640.6,641.7L640.6,641.7z" style="fill:#E8E8E8;"/>
		</g>
	</g>
	<g id="XMLID_2230_">
		<g id="XMLID_2363_">
			<path id="XMLID_2367_" d="M615.9,611c25.6,0,51.2,0,76.9,0c1.4,0,1.5-2.3,0-2.3c-25.6,0-51.2,0-76.9,0
				C614.5,608.7,614.5,611,615.9,611L615.9,611z" style="fill:#E8E8E8;"/>
		</g>
	</g>
	<g id="XMLID_2238_">
		<g id="XMLID_2371_">
			<path id="XMLID_2376_" d="M584.8,643.5c22.4,0,44.8,0,67.2,0c1.4,0,1.5-2.3,0-2.3c-22.4,0-44.8,0-67.2,0
				C583.3,641.3,583.3,643.5,584.8,643.5L584.8,643.5z" style="fill:#E8E8E8;"/>
		</g>
	</g>
	<g id="XMLID_2246_">
		<g id="XMLID_2379_">
			<path id="XMLID_2384_" d="M606.5,643.8c0,9.9,0,19.9,0,29.8c0,1.4,2.3,1.5,2.3,0c0-9.9,0-19.9,0-29.8
				C608.7,642.3,606.5,642.3,606.5,643.8L606.5,643.8z" style="fill:#E8E8E8;"/>
		</g>
	</g>
	<g id="XMLID_2254_">
		<g id="XMLID_2387_">
			<path id="XMLID_2392_" d="M567.7,992.8c22.2,0,44.4,0,66.7,0c1.4,0,1.5-2.3,0-2.3c-22.2,0-44.4,0-66.7,0
				C566.2,990.5,566.2,992.8,567.7,992.8L567.7,992.8z" style="fill:#E8E8E8;"/>
		</g>
	</g>
	<g id="XMLID_2262_">
		<g id="XMLID_2395_">
			<path id="XMLID_2400_" d="M622.1,990.8c0-27.6,0-55.3,0-82.9c0-1.4-2.3-1.5-2.3,0c0,27.6,0,55.3,0,82.9
				C619.9,992.2,622.1,992.2,622.1,990.8L622.1,990.8z" style="fill:#E8E8E8;"/>
		</g>
	</g>
	<g id="XMLID_2271_">
		<g id="XMLID_2404_">
			<path id="XMLID_2408_" d="M621.5,907.9c68.3,0,136.7,0,205,0c1.4,0,1.5-2.3,0-2.3c-68.3,0-136.7,0-205,0
				C620.1,905.7,620.1,907.9,621.5,907.9L621.5,907.9z" style="fill:#E8E8E8;"/>
		</g>
	</g>
	<g id="XMLID_2279_">
		<g id="XMLID_2412_">
			<path id="XMLID_2416_" d="M825.4,907.9c0,27.4,0,54.9,0,82.3c0,1.4,2.3,1.5,2.3,0c0-27.4,0-54.9,0-82.3
				C827.7,906.5,825.4,906.5,825.4,907.9L825.4,907.9z" style="fill:#E8E8E8;"/>
		</g>
	</g>
	<g id="XMLID_2287_">
		<g id="XMLID_2420_">
			<path id="XMLID_2425_" d="M657.2,953.8c-5.7,1.8-8.1,8.8-9.9,14c-2.5,7-3.6,14.4-4.2,21.8
				c-0.6,7.9-0.9,16.3-0.2,24.2c0.4,4.7,2.3,9,7.3,10.3c2.8,0.7,5.8,0.2,8.6,0.1c4.4-0.1,8.3,1.2,12.4,2.6c2.9,1,6,2,9.1,1.8
				c4.4-0.3,7.1-3.2,11.8-0.9c5.5,2.8,10.8,4.5,17.1,2.7c5.6-1.6,8.6-4.7,8.5-10.6c-0.2-18.3-3-46.3,17.5-55
				c1.3-0.6,0.7-2.7-0.6-2.2c-15.1,6.3-17.7,20.9-18.8,35.6c-0.4,5-0.6,10.1-0.5,15.1c0.1,5.7,1.5,11.8-5.3,14.4
				c-5,1.9-10.8,1.4-15.5-1.2c-2.5-1.4-4.1-3.2-7.1-2.8c-1.1,0.2-1.9,0.8-2.9,1.2c-3.1,1.4-5.7,1.5-9,0.8c-4.1-0.9-7.9-3-12.1-3.6
				c-3-0.5-5.9,0-8.9,0c-7.3,0-9.3-4.5-9.5-11.2c-0.2-8.5-0.2-17.1,0.7-25.6c0.5-4.9,1.5-9.8,2.9-14.5c1.4-4.5,3.9-13.1,9.1-14.8
				C659.2,955.6,658.6,953.4,657.2,953.8L657.2,953.8z" style="fill:#E8E8E8;"/>
		</g>
	</g>
	<g id="XMLID_2295_">
		<g id="XMLID_2428_">
			<path id="XMLID_2433_" d="M656.7,956.9c5.4-4.5,14.2-7.1,18.7,0.1c0.4,0.6,1.3,0.8,1.8,0.2c6.4-7.3,17.2-7,23,1
				c0.3,0.5,1,0.8,1.5,0.4c4.8-3.1,10.2-4.8,15.9-4.5c5.9,0.3,15.2,2.5,16,9.6c0.2,1.4,2.4,1.4,2.3,0c-0.8-6.8-7.3-10.1-13.5-11.3
				c-7.6-1.5-15.4,0.1-21.9,4.3c0.5,0.1,1,0.3,1.5,0.4c-6.6-9.1-19-9.9-26.5-1.4c0.6,0.1,1.2,0.2,1.8,0.2
				c-5.3-8.5-15.6-6.1-22.2-0.6C654,956.2,655.6,957.8,656.7,956.9L656.7,956.9z" style="fill:#E8E8E8;"/>
		</g>
	</g>
	<g id="XMLID_2303_">
		<g id="XMLID_2436_">
			<path id="XMLID_2441_" d="M674.8,956.9c-3.1,5-5.4,10.4-6.9,16.1c-0.4,1.4,1.8,2,2.2,0.6c1.5-5.5,3.7-10.7,6.7-15.6
				C677.5,956.8,675.5,955.7,674.8,956.9L674.8,956.9z" style="fill:#E8E8E8;"/>
		</g>
	</g>
	<g id="XMLID_2311_">
		<g id="XMLID_2444_">
			<path id="XMLID_2449_" d="M665.4,1023.1c0-2,0-3.9,0-5.9c0-1.4-2.3-1.5-2.3,0c0,2,0,3.9,0,5.9
				C663.1,1024.6,665.4,1024.6,665.4,1023.1L665.4,1023.1z" style="fill:#E8E8E8;"/>
		</g>
	</g>
	<g id="XMLID_2320_">
		<g id="XMLID_2453_">
			<path id="XMLID_2457_" d="M689.9,1025c0.1-10,1.4-19.9,3.9-29.6c0.4-1.4-1.8-2-2.2-0.6c-2.6,9.9-3.9,20-4,30.2
				C687.7,1026.4,689.9,1026.4,689.9,1025L689.9,1025z" style="fill:#E8E8E8;"/>
		</g>
	</g>
	<g id="XMLID_2328_">
		<g id="XMLID_2461_">
			<path id="XMLID_2465_" d="M700.1,957.8c-2.4,5-4.2,10.2-5.5,15.6c-0.3,1.4,1.8,2,2.2,0.6c1.2-5.2,3-10.2,5.3-15.1
				C702.7,957.6,700.7,956.5,700.1,957.8L700.1,957.8z" style="fill:#E8E8E8;"/>
		</g>
	</g>
	<g id="XMLID_2336_">
		<g id="XMLID_2469_">
			<path id="XMLID_2474_" d="M718.6,997.4c69.8,0,139.5,0,209.3,0c1.4,0,1.5-2.3,0-2.3c-69.8,0-139.5,0-209.3,0
				C717.2,995.2,717.2,997.4,718.6,997.4L718.6,997.4z" style="fill:#E8E8E8;"/>
		</g>
	</g>
	<g id="XMLID_2344_">
		<g id="XMLID_2477_">
			<path id="XMLID_2482_" d="M751.4,920.6c0.4,3.9,0.7,7.9,1.1,11.8c0.1,0.6,0.5,1.1,1.1,1.1c19,0.2,37.9-0.5,56.8-2.1
				c0.4,0,1-0.3,1.1-0.8c0.6-4,1.1-8,1.7-12.1c0.1-0.8-0.3-1.4-1.1-1.4c-20.1-1.8-40.2-1.1-60.2,2.1c-1.4,0.2-0.8,2.4,0.6,2.2
				c19.7-3.2,39.7-3.8,59.6-2c-0.4-0.5-0.7-0.9-1.1-1.4c-0.4,2.6-0.7,5.2-1.1,7.8c-0.5,3.3-1.1,3.6-4.4,3.9
				c-5.9,0.5-11.7,0.8-17.6,1.1c-11.4,0.5-22.9,0.7-34.3,0.6c0.4,0.4,0.8,0.8,1.1,1.1c-0.4-3.9-0.7-7.9-1.1-11.8
				C753.5,919.1,751.3,919.1,751.4,920.6L751.4,920.6z" style="fill:#E8E8E8;"/>
		</g>
	</g>
	<g id="XMLID_2352_">
		<g id="XMLID_2485_">
			<path id="XMLID_2490_" d="M734.8,941.7c16,0,31.9,0,47.9,0c1.4,0,1.5-2.3,0-2.3c-16,0-31.9,0-47.9,0
				C733.4,939.4,733.4,941.7,734.8,941.7L734.8,941.7z" style="fill:#E8E8E8;"/>
		</g>
	</g>
	<g id="XMLID_2360_">
		<g id="XMLID_2493_">
			<path id="XMLID_2498_" d="M754.4,950c17.2,0,34.4,0,51.6,0c1.4,0,1.5-2.3,0-2.3c-17.2,0-34.4,0-51.6,0
				C752.9,947.7,752.9,950,754.4,950L754.4,950z" style="fill:#E8E8E8;"/>
		</g>
	</g>
	<g id="XMLID_2369_">
		<g id="XMLID_2502_">
			<path id="XMLID_2506_" d="M629.4,980.5c0-19.1,0-38.3,0-57.4c0-1.4-2.3-1.5-2.3,0c0,19.1,0,38.3,0,57.4
				C627.2,981.9,629.4,981.9,629.4,980.5L629.4,980.5z" style="fill:#E8E8E8;"/>
		</g>
	</g>
	<g id="XMLID_2377_">
		<g id="XMLID_2510_">
			<path id="XMLID_2514_" d="M634.1,914.6c8,0,16.1,0,24.1,0c1.4,0,1.5-2.3,0-2.3c-8,0-16.1,0-24.1,0
				C632.7,912.4,632.7,914.6,634.1,914.6L634.1,914.6z" style="fill:#E8E8E8;"/>
		</g>
	</g>
	<g id="XMLID_2385_">
		<g id="XMLID_2518_">
			<path id="XMLID_2523_" d="M970.7,997.9c123.9,0,247.8,0,371.6,0c35.3,0,70.6,0,105.9,0c1.4,0,1.5-2.3,0-2.3
				c-123.9,0-247.8,0-371.6,0c-35.3,0-70.6,0-105.9,0C969.2,995.7,969.2,997.9,970.7,997.9L970.7,997.9z" style="fill:#E8E8E8;"/>
		</g>
	</g>
	<g id="XMLID_2393_">
		<g id="XMLID_2526_">
			<path id="XMLID_2531_" d="M1273.9,490.6c49.8,0,99.6,0,149.4,0c1.4,0,1.5-2.3,0-2.3c-49.8,0-99.6,0-149.4,0
				C1272.4,488.3,1272.4,490.6,1273.9,490.6L1273.9,490.6z" style="fill:#E8E8E8;"/>
		</g>
	</g>
	<g id="XMLID_2401_">
		<g id="XMLID_2534_">
			<path id="XMLID_2539_" d="M1347.1,491.5c1.4,0,1.5-2.3,0-2.3C1345.7,489.2,1345.7,491.5,1347.1,491.5L1347.1,491.5z" style="fill:#E8E8E8;"/>
		</g>
	</g>
	<g id="XMLID_2409_">
		<g id="XMLID_2542_">
			<path id="XMLID_2547_" d="M1356.3,491.3c0,15.3,0,30.7,0,46c0,1.4,2.3,1.5,2.3,0c0-15.3,0-30.7,0-46
				C1358.6,489.9,1356.3,489.9,1356.3,491.3L1356.3,491.3z" style="fill:#E8E8E8;"/>
		</g>
	</g>
	<g id="XMLID_2418_">
		<g id="XMLID_2551_">
			<path id="XMLID_2555_" d="M1330.2,539.4c39.5,0,78.9,0,118.4,0c1.4,0,1.5-2.3,0-2.3c-39.5,0-78.9,0-118.4,0
				C1328.8,537.2,1328.8,539.4,1330.2,539.4L1330.2,539.4z" style="fill:#E8E8E8;"/>
		</g>
	</g>
	<g id="XMLID_2426_">
		<g id="XMLID_2559_">
			<path id="XMLID_2563_" d="M1404.6,487.5c0-13.5,0-26.9,0-40.4c0-1.4-2.3-1.5-2.3,0c0,13.5,0,26.9,0,40.4
				C1402.4,489,1404.6,489,1404.6,487.5L1404.6,487.5z" style="fill:#E8E8E8;"/>
		</g>
	</g>
	<g id="XMLID_2965_">
		<g id="XMLID_3079_">
			<path id="XMLID_3083_" d="M63.4,1003.4c30.8,0,61.5,0,92.3,0c1.4,0,1.5-2.3,0-2.3c-30.8,0-61.5,0-92.3,0
				C62,1001.2,62,1003.4,63.4,1003.4L63.4,1003.4z" style="fill:#E8E8E8;"/>
		</g>
	</g>
</g>
<g id="details">
	<circle id="XMLID_1_" cx="595.2" cy="148.8" r="10.5" style="fill:#282828;"/>
	<circle id="XMLID_2_" cx="1241.2" cy="562.4" r="11.9" style="fill:#282828;"/>
	<circle id="XMLID_3_" cx="1235.2" cy="516.8" r="6" style="fill:#282828;"/>
	<circle id="XMLID_4_" cx="104.2" cy="759.7" r="23.2" style="fill:#282828;"/>
	<circle id="XMLID_5_" cx="145.5" cy="821" r="10.2" style="fill:#282828;"/>
	<circle id="XMLID_6_" cx="986.3" cy="103.4" r="18.3" style="fill:#AAAAAA;"/>
	<circle id="XMLID_7_" cx="1036.9" cy="111.7" r="10" style="fill:#AAAAAA;"/>
	<circle id="XMLID_8_" cx="581.4" cy="876" r="13.8" style="fill:#AAAAAA;"/>
	<circle id="XMLID_9_" cx="588.3" cy="824.4" r="6.9" style="fill:#AAAAAA;"/>
	<g id="XMLID_10_">
		<g id="XMLID_127_">
			<path id="XMLID_131_" d="M648.8,805.4c-2-3.9,0.2-9.7,4.8-10.8c3.3-0.8,6.6,1.3,9.6,2.2c4.2,1.2,8.6,0.7,10.6-3.6
				c2.5-5.3-0.2-11.6,3.8-16.4c6.5-7.7,17.7-3.4,25.3-0.2c1.8,0.7,2.6-2.2,0.8-2.9c-7.7-3.2-16.5-6.4-24.4-2.1
				c-7.4,4-6.3,10.6-7.5,17.8c-1.4,7.9-8.2,4-13.2,2.6c-2.9-0.8-5.7-0.8-8.3,0.8c-4.8,2.9-6.6,9.2-4.1,14.2
				C647.1,808.6,649.7,807.1,648.8,805.4L648.8,805.4z" style="fill:#444444;"/>
		</g>
	</g>
	<g id="XMLID_11_">
		<g id="XMLID_121_">
			<path id="XMLID_125_" d="M700.2,798.7c-4-8.7,4.6-18.2,13.6-13.9c4,1.9,7.3,6.2,12.2,4.5c4.5-1.5,6.8-7.1,9.8-10.3
				c4.8-5.2,11.1-8.5,18-10c1.9-0.4,1.1-3.3-0.8-2.9c-7.4,1.6-14.2,5.2-19.4,10.7c-2.3,2.4-3.8,5.5-6.1,7.8c-4.7,4.8-9.2-1.4-13.5-3
				c-11.7-4.5-21.4,7.8-16.5,18.5C698.4,802,701,800.5,700.2,798.7L700.2,798.7z" style="fill:#444444;"/>
		</g>
	</g>
	<g id="XMLID_12_">
		<g id="XMLID_133_">
			<path id="XMLID_137_" d="M1225.5,723.5c-7.1-6.5,2.3-17.8,10.3-11.6c3.9,3,5.1,8,2.5,12.3c-1.2,2.1-3.1,3.6-5.3,4.6
				c-1.5,0.7-8.3,2.6-8.1-1.1c0.1-1.9-2.9-1.9-3,0c-0.3,7.9,11.5,4.9,15.2,2.2c5.7-4.2,7.6-11.9,3.2-17.8
				c-3.8-5.1-11.6-7.3-16.6-2.5c-4.4,4.2-4.9,11.8-0.3,16C1224.8,726.9,1226.9,724.8,1225.5,723.5L1225.5,723.5z" style="fill:#444444;"/>
		</g>
	</g>
	<g id="XMLID_13_">
		<g id="XMLID_46_">
			<path id="XMLID_126_" d="M1236.9,741.5c-2-5-3.6-11-1-16.2c2.3-4.5,7.7-7.7,12.5-4.8c10.6,6.4,2.4,18.9-5.7,22.6
				c-1.8,0.8-0.2,3.4,1.5,2.6c6-2.7,11.4-7.8,12.1-14.7c0.6-5.5-2.4-11.4-7.5-13.7c-5.1-2.3-10.7-0.1-14,4.1
				c-4.7,6.1-3.5,14.1-0.8,20.9C1234.7,744.1,1237.6,743.3,1236.9,741.5L1236.9,741.5z" style="fill:#444444;"/>
		</g>
	</g>
	<g id="XMLID_14_">
		<g id="XMLID_52_">
			<path id="XMLID_57_" d="M130.4,189.9c-3.3-2.3-5-7-2.5-10.6c2.5-3.7,6.1-3.4,9.9-3c3.7,0.3,7-0.2,8.5-4
				c1.6-4.1-0.6-7.8-1.7-11.6c-2.6-9.4,6.8-16.6,14.9-10.9c1.6,1.1,3.1-1.5,1.5-2.6c-5-3.5-12-3.5-16.4,1c-2,2-3.3,4.7-3.6,7.5
				c-0.5,4.5,3,8.3,2.7,12.6c0.4,1.5-0.3,2.5-2.1,3.2c-0.8,1.9-2.1,2.5-3.7,1.9c-0.6,0-2-0.3-2.8-0.4c-1.6-0.1-3,0-4.5,0.6
				c-2.4,0.9-4.5,2.6-5.8,4.9c-2.9,5.1-0.6,11,3.9,14.1C130.5,193.5,132,190.9,130.4,189.9L130.4,189.9z" style="fill:#444444;"/>
		</g>
	</g>
	<g id="XMLID_15_">
		<g id="XMLID_33_">
			<path id="XMLID_50_" d="M161.7,173.5c-2.5-4.9-3.8-10.9-1-16c2.6-4.7,8.5-7.2,13.5-5c1.1,0.5,2.1-0.1,2.3-1.3
				c0.9-7.2,4.2-13.4,9.5-18.4c1.4-1.3-0.7-3.4-2.1-2.1c-5.9,5.5-9.3,12.5-10.4,20.5c0.8-0.4,1.5-0.9,2.3-1.3
				c-5.9-2.7-12.9-0.7-16.7,4.7c-4.4,6.2-3.2,14.1,0.1,20.5C160,176.7,162.6,175.2,161.7,173.5L161.7,173.5z" style="fill:#444444;"/>
		</g>
	</g>
	<g id="XMLID_16_">
		<g id="XMLID_115_">
			<path id="XMLID_119_" d="M542.5,333c-0.2-5.4,6.7-7.8,10.1-3.7c2,2.5,2.1,6,4.7,8.1c2.6,2.2,6.7,2.5,8.5-0.9
				c2.9-5.2-2.8-12,5-14.8c8.7-3.1,14.4,6.7,17.8,13c0.9,1.7,3.5,0.2,2.6-1.5c-3.4-6.3-8-14.1-15.9-14.9c-5.7-0.6-11.9,2.7-12.2,8.9
				c-0.1,1.7,0.8,3.9,0.3,5.5c0,0.4,0,0.8,0,1.1c-1.9-0.1-3.7-0.2-5.6-0.3c-0.7-0.5-1.3-2.8-1.7-3.6c-1.4-2.9-3.2-5.3-6.6-5.8
				c-5.2-0.7-10.3,3.5-10.2,8.8C539.6,334.9,542.6,334.9,542.5,333L542.5,333z" style="fill:#515151;"/>
		</g>
	</g>
	<g id="XMLID_18_">
		<g id="XMLID_109_">
			<path id="XMLID_113_" d="M580.9,348c-1.4-2.4-0.4-5.4,2-6.8c2.8-1.6,6.5,0.1,8.6,2c3.1,2.7,4.5,7,5.8,10.8
				c0.4,1.3,2.6,1.6,2.9,0c0.8-4.7,2.2-9.8,5.9-13.2c4.4-4,15.3-2.1,13.3,5.5c-0.5,1.9,2.4,2.7,2.9,0.8c1.8-6.8-5-12.3-11.5-11.7
				c-8.5,0.8-12.3,10.5-13.5,17.7c1,0,1.9,0,2.9,0c-2.4-6.9-6.6-16.4-15.6-15.5c-5.7,0.6-9.3,6.8-6.3,11.8
				C579.2,351.2,581.8,349.7,580.9,348L580.9,348z" style="fill:#515151;"/>
		</g>
	</g>
	<g id="XMLID_20_">
		<g id="XMLID_70_">
			<path id="XMLID_81_" d="M848.8,371.2c4.1,1.6,8.8-0.3,11-4.1c2.3-4,0.5-8.8-3.3-11.1c-3.7-2.2-8.4-1.7-11,1.9
				c-2.5,3.5-2.3,8.4,0.7,11.6c1.3,1.4,3.5-0.7,2.1-2.1c-4.3-4.5,1-12.3,6.7-8.7c6.1,3.8,0.7,12.1-5.4,9.6
				C847.8,367.6,847,370.5,848.8,371.2L848.8,371.2z" style="fill:#717172;"/>
		</g>
	</g>
	<g id="XMLID_27_">
		<g id="XMLID_38_">
			<path id="XMLID_44_" d="M874.1,349.7c-2.9-3.2,3.4-8.5,5.1-3.3c0.5,1.7,0,4-2,4.3c-2.3,0.3-4.6-2.1-4-4.4
				c0.5-1.9-2.4-2.7-2.9-0.8c-1,4.1,2.5,8.2,6.7,8.2c4.2,0,6.2-4.4,5.1-8.1c-1.1-3.6-5-5.8-8.5-3.6c-3.3,2.1-4.3,6.9-1.7,9.8
				C873.3,353.2,875.4,351.1,874.1,349.7L874.1,349.7z" style="fill:#717172;"/>
		</g>
	</g>
	<g id="XMLID_34_">
		<g id="XMLID_103_">
			<path id="XMLID_107_" d="M1314.6,841.8c-4.4-5.9,0.6-15.8,8.4-14.4c5.5,1,9.6,5.8,15.4,6c4,0.1,7.6-1.7,8.7-5.8
				c0.8-2.9-0.2-5.8-0.1-8.7c0.1-4.5,3.2-6.8,7.3-7.6c9.7-1.9,22.8,5,28.3-6.9c2.6-5.6,2.3-13.4,9.6-15c6.8-1.5,14.2,3.5,18.6,8.1
				c1.3,1.4,3.5-0.7,2.1-2.1c-6.9-7.2-22.3-14.8-29.2-3.3c-1.6,2.6-2,5.6-3,8.5c-1.9,6-5.7,8.4-12,8.3c-6.3-0.1-12.7-2.2-18.8,0.7
				c-5.4,2.5-6.1,7-5.8,12.5c0.2,3.3,0.4,7.3-3.7,8.3c-2.7,0.6-5.5-0.5-7.8-1.6c-2.9-1.5-5.7-3.4-8.9-4.1
				c-10.1-2.2-17.8,10.6-11.8,18.8C1313.1,844.8,1315.7,843.3,1314.6,841.8L1314.6,841.8z" style="fill:#515151;"/>
		</g>
	</g>
	<g id="XMLID_41_">
		<g id="XMLID_97_">
			<path id="XMLID_101_" d="M1387.8,833.5c-2.5-5.1-0.1-11,4.1-14.4c4.3-3.5,10.2-4,15.5-3.4c5.8,0.6,15.1,5,16.6-3.8
				c0.8-5,0.5-9.1,5.5-12.1c5-3.1,9.1-1.4,13.9,1.1c4.1,2.2,11.2,2.8,12.1-3.3c0.3-1.9-2.6-2.7-2.9-0.8c-0.4,2.9-3.9,2.9-5.9,2.3
				c-1.4-0.4-2.5-1.2-3.7-1.9c-1.6-0.8-3.1-1.6-4.8-2c-2.9-0.6-5.9-0.1-8.5,1.1c-3.1,1.4-5.8,3.8-7.3,6.9c-0.6,1.3-1,2.7-1.2,4.2
				c-0.1,0.6,0.2,2.3-0.1,2.9c-1.8,1.3-3.6,2.7-5.3,4c-0.8-0.2-1.5-0.4-2.3-0.5c-7.8-1.8-17-2.3-23.6,3c-5.4,4.4-7.8,11.8-4.7,18.2
				C1386,836.8,1388.6,835.3,1387.8,833.5L1387.8,833.5z" style="fill:#515151;"/>
		</g>
	</g>
	<g id="XMLID_48_">
		<g id="XMLID_91_">
			<path id="XMLID_95_" d="M1356.6,251.5c-10.1-9.2,0.7-27.4,13.5-19.5c5.7,3.5,8.4,10.8,4.1,16.4
				c-3.8,5-10.9,7-16.5,3.8c-1.7-0.9-3.2,1.6-1.5,2.6c6.9,3.9,15.8,1.6,20.5-4.7c5-6.7,2.5-15.5-4.1-20c-6.4-4.5-15.4-4.1-20.1,2.7
				c-4.5,6.4-3.9,15.6,2,20.9C1356,254.9,1358.1,252.8,1356.6,251.5L1356.6,251.5z" style="fill:#515151;"/>
		</g>
	</g>
	<g id="XMLID_55_">
		<g id="XMLID_75_">
			<path id="XMLID_84_" d="M1377.9,209.7c-0.7-4.8,4.2-9.6,9-9c1.1,0.1,1.3,0.5,1.3,1.7c0,1-0.5,2.1-1.1,2.9
				c-1.3,1.8-3.7,3.1-5.9,2.2c-1.8-0.8-3.3,1.8-1.5,2.6c3.4,1.5,7,0.4,9.4-2.5c1.8-2.1,3.5-6.9,0.8-9.1c-2.8-2.3-8.1-0.2-10.5,1.6
				c-3.3,2.5-5,6.3-4.4,10.4C1375.2,212.4,1378.1,211.6,1377.9,209.7L1377.9,209.7z" style="fill:#515151;"/>
		</g>
	</g>
	<g id="XMLID_62_">
		<g id="XMLID_67_">
			<path id="XMLID_114_" d="M577.3,507.3c-0.4,9.6-15.5,18.6-8.4,29c1,1.4,2.2,2.3,3.8,2.9c1,0.3,2.4,0.1,3.3,0.5
				c3.3,1.5,3.7,3.4,2.9,6.5c-2.1,7.7-4.9,15.3-7.3,22.9c-0.6,1.8,2.3,2.6,2.9,0.8c2.4-7.6,5.1-15.2,7.3-22.9c1-3.6,1.5-7.9-2.6-9.7
				c-3.4-1.5-7.3-0.2-8.7-4.6c-1.1-3.6,0.7-7.6,2.6-10.5c3.2-4.9,6.9-8.9,7.1-14.9C580.4,505.3,577.4,505.4,577.3,507.3L577.3,507.3
				z" style="fill:#444444;"/>
		</g>
	</g>
	<g id="XMLID_69_">
		<g id="XMLID_59_">
			<path id="XMLID_65_" d="M601.3,532.8c-1.3,4.3-2.6,8.6-3.9,13c-0.9,3.1-2,6-1.4,9.3c0.7,4,2.7,7.4,2.9,11.5
				c0.2,4.9-1.1,9.4-3.6,13.6c-1,1.7,1.6,3.2,2.6,1.5c3.6-6.1,5-13.2,3.3-20.2c-1.2-4.8-2.8-7.9-1.4-13.1c1.4-5,3-9.9,4.5-14.8
				C604.8,531.7,601.9,530.9,601.3,532.8L601.3,532.8z" style="fill:#444444;"/>
		</g>
	</g>
</g>
<g id="machine">
	<path id="XMLID_2831_" d="M297.6,136.5c-10.8,1.7-34.7,5.5-57.7,10.4c-23.3,5-11.2,3.8-24.7,6.6
		c-5.9,1.2-12.4,2.3-18.8,7.3c-2.8,2.1-4.7,4.3-5.9,5.9c0.7,10.7,1.4,21.3,2.1,32c1.6,1.3,3.2,2.5,4.9,3.8
		c0.1,5.9,0.2,14.7,0.3,25.4c0.4,41.7,0.1,71.4,0,89.3c-0.4,51,0.4,43.3,0.3,130.7c0,47.1-0.3,82.9-0.3,92.1
		c-0.4,60.4-0.9,60.7-1,102.9c-0.3,63.4,0.7,56.5,0.3,115.4c-0.2,37.2-0.7,59.3,0,98.4c0.4,20.3,1,37,1.4,48.3c-2.1,1.2-5.2,3.4-8,7
		c-7,8.9-6.4,19.6-6.3,21.2c0.7,9,4.9,11.3,2.8,16c-2.2,5-8,4.7-10.1,10.1c-1.4,3.7-0.2,7.6,1,10.4c-3,4.3-6,8.6-9,12.9
		c-1.1,6.5-1.9,13.4-2.4,20.9c-1.2,16.9-0.3,32,1.4,44.8c6.8,3.7,16.3,8.5,28.2,12.9c13.2,4.9,26,8.2,41,10.8
		c9.9,1.7,42.5,6.9,92.5,5.2c33.1-1.1,58.2-4.7,78.2-7.6c25.8-3.8,47.5-8.2,63.6-11.8c-0.4,10.3-0.4,19.2-0.3,26.4
		c0,5.2,0.1,8.5,2.4,11.5c3.7,4.8,11,6.1,16.7,4.9c9.1-2.1,12.8-10.6,13.2-11.5c0.8,0.5,6.1,3.6,12.5,1.7
		c7.9-2.4,10.3-10.2,10.4-10.8c-1.4-10.9-2.8-21.8-4.2-32.7c3.2-0.8,6.5-1.6,9.7-2.4c1.5-9.1,2.7-19.9,2.8-32
		c0.1-14.5-1.5-27.2-3.5-37.5c-3-3.1-6-6.3-9-9.4c2.7-4.1,2.6-6.7,2.1-8.3c-0.6-1.9-1.7-2.2-7-7.6c-3.3-3.4-3.9-4.3-4.2-5.6
		c-0.5-1.9,0.1-2.9,0.7-6.6c0,0,0.2-1.2,0.7-7.3c0.2-2.2,1.5-18.1-8.3-27.8c-1.5-1.5-3.1-2.6-4.5-3.5c-1-16.3-1.1-29.5-1-38.2
		c0.2-23.9,1.8-37.6,4.9-88.3c0.5-7.8,0.8-14.2,1-18.1c0-41.3,0-80.5,0-83.1c0-178.6-0.2-177.1,0-220c0.2-57.4,0.5-59.6,1-178
		c0.1-23.8,0.3-53.7,0.3-76.5c1.1,0,2.6-0.1,3.8-1c3.6-2.6,2.7-9.4,2.1-13.6c-0.7-4.6-2.5-12.3-8.3-21.2c-7.8-5.8-17.4-11.8-28.8-17
		c-30.1-13.7-58-15.2-75.4-14.6c0.2-2.3,0.5-4.6,0.7-7c-12.2-0.1-24.7,0-37.5,0.3c-22.1,0.6-43.2,2-63.3,3.8
		c-2.3,0.7-4.1,2.6-4.5,4.9C296,134.1,297.3,136.1,297.6,136.5z" style="fill:#FFFFFF;"/>
	<path id="XMLID_2833_" d="M178.5,1006c-2.9-2.4-4.3-7.4-1.7-10.9c1.8-2.5,5.4-3.9,8.4-2.7c4,1.6,4.8,6.9,4,10.1
		c-0.2,0.8-1,3.8-3.7,4.9C182,1008.9,178.7,1006.2,178.5,1006z" style="fill:#545454;"/>
	<path id="XMLID_2834_" d="M200.8,1009.2c-2.7-1.9-4.5-5.7-3.2-9.2c1.6-4.3,7.2-6.1,11.1-4c2.7,1.5,4.2,4.8,3.7,7.9
		c-0.4,3-2.6,5.7-5.7,6.4C203.7,1011.2,201.3,1009.6,200.8,1009.2z" style="fill:#545454;"/>
	<path id="XMLID_2835_" d="M457.9,943.9c-2.8-3.1-2.3-7.9,0-10.9c2.7-3.6,8.2-4.8,12-2.2c2.7,1.9,4.1,5.4,3.3,8.7
		c-0.9,3.5-3.9,5.1-4.5,5.5C465.8,946.4,460.9,947.1,457.9,943.9z" style="fill:#828282;"/>
	<path id="XMLID_3131_" d="M486.8,938.8c-3-2-2.7-6.6-1.3-9.3c1.2-2.3,4.2-5.1,7.3-4.2c3.1,0.9,4.1,4.9,4,7.3
		c0,0.7-0.1,2.8-1.6,4.5C493.3,939.3,489.5,940.5,486.8,938.8z" style="fill:#828282;"/>
	<g id="XMLID_2434_">
		<g id="XMLID_2567_">
			<path id="XMLID_2572_" d="M196.4,202.1c0,91.4,0,182.9,0,274.3c0,91.1,0,182.2,0,273.3c0,51.5,0,103.1,0,154.6
				c0,1.9,3,1.9,3,0c0-91.4,0-182.9,0-274.3c0-91.1,0-182.2,0-273.3c0-51.5,0-103.1,0-154.6C199.4,200.2,196.4,200.2,196.4,202.1
				L196.4,202.1z" style="fill:#161616;"/>
		</g>
	</g>
	<g id="XMLID_2442_">
		<g id="XMLID_2575_">
			<path id="XMLID_2580_" d="M506.4,197.7c0,45.5,0,91.1,0,136.6c0,1.9,3,1.9,3,0c0-45.5,0-91.1,0-136.6
				C509.4,195.8,506.4,195.8,506.4,197.7L506.4,197.7z" style="fill:#161616;"/>
		</g>
	</g>
	<g id="XMLID_2450_">
		<g id="XMLID_2583_">
			<path id="XMLID_2588_" d="M504.9,390.2c0,99.9,0,199.7,0,299.6c0,28,0,55.9,0,83.9c0,1.9,3,1.9,3,0
				c0-99.9,0-199.7,0-299.6c0-28,0-55.9,0-83.9C507.9,388.3,504.9,388.3,504.9,390.2L504.9,390.2z" style="fill:#161616;"/>
		</g>
	</g>
	<g id="XMLID_2458_">
		<g id="XMLID_2591_">
			<path id="XMLID_2596_" d="M502.1,901.5c0-27.9,0-55.8,0-83.7c0-1.9-3-1.9-3,0c0,27.9,0,55.8,0,83.7
				C499.1,903.4,502.1,903.4,502.1,901.5L502.1,901.5z" style="fill:#161616;"/>
		</g>
	</g>
	<g id="XMLID_2467_">
		<g id="XMLID_2600_">
			<path id="XMLID_2604_" d="M199.4,906.1c-9.1-7.7-15.2,17.5-15.7,22.3c-0.4,3.9-0.4,7.8,0.1,11.7
				c0.6,4.5,3.3,9.4-1.4,12.6c-4,2.7-7.5,4.7-7,10.4c0.3,3.5,3,6.2-0.5,9c-2,1.6-3.7,3.2-5,5.4c-3.2,5.5-3.6,12.5-4.3,18.7
				c-1.7,17.6-1,35.3,1.8,52.7c0.3,1.9,3.2,1.1,2.9-0.8c-2.5-15.2-3.2-30.7-2.2-46.1c0.5-6.8,0.7-14.3,3.3-20.7c1.3-3.3,3.4-5,6-7.4
				c1.1-1,2.3-2,2.7-3.6c0.4-1.9-0.5-3.4-1.1-5.2c-1.4-4.2,0.2-7.2,3.9-9.4c4.1-2.4,5.8-4.4,5.2-9.5c-0.9-6.6-2.2-12.4-1.2-19.1
				c0.4-2.6,6-22.7,10.4-19C198.7,909.4,200.9,907.3,199.4,906.1L199.4,906.1z" style="fill:#161616;"/>
		</g>
	</g>
	<g id="XMLID_2475_">
		<g id="XMLID_2608_">
			<path id="XMLID_2612_" d="M501.6,903.4c4.7-3.8,10.5,15.4,11,18.1c1.2,6.8,0,12.8-1,19.5c-0.6,4.3,0.3,7.4,4.2,9.4
				c3.7,2,6.5,4,5.6,8.6c-0.4,2.1-1.9,4-1.5,6.2c0.3,1.6,1.3,2.6,2.5,3.6c2.4,2.1,4.7,3.5,6.2,6.5c3.2,6.1,3.3,14.1,3.8,20.8
				c1.2,15.7,0.4,31.5-2.2,47.1c-0.3,1.9,2.6,2.7,2.9,0.8c3-17.4,3.7-35.1,1.9-52.7c-0.6-6.2-1.1-13.2-4.5-18.7
				c-1.4-2.3-3.2-3.8-5.3-5.4c-3.8-2.9-0.3-6.5-0.5-10.3c-0.1-2.1-0.9-4.1-2.3-5.7c-2-2.4-5.3-2.7-7.1-5c-2.3-3.1,0.2-8.5,0.6-12.2
				c0.4-3.5,0.4-7.1,0-10.6c-0.6-5.3-7-29.8-16.4-22.2C498,902.5,500.1,904.6,501.6,903.4L501.6,903.4z" style="fill:#161616;"/>
		</g>
	</g>
	<g id="XMLID_2483_">
		<g id="XMLID_2616_">
			<path id="XMLID_2621_" d="M168.1,1049.7c32.5,19.3,70.4,25.5,107.5,27.8c41.8,2.6,83.8,0.9,125.2-4.9
				c23.7-3.3,47.2-8,70.3-13.9c1.9-0.5,1.1-3.4-0.8-2.9c-40,10.3-81,16.7-122.3,19c-39.4,2.2-80.1,1.8-118.9-5.8
				c-20.9-4.1-41.2-10.9-59.6-21.8C167.9,1046.1,166.4,1048.7,168.1,1049.7L168.1,1049.7z" style="fill:#161616;"/>
		</g>
	</g>
	<g id="XMLID_2491_">
		<g id="XMLID_2624_">
			<path id="XMLID_2629_" d="M446,996.2c22.2,20.5,24.6,51.9,23.8,80.3c-0.2,5.7-1.5,12.6,1.4,17.8
				c2.4,4.3,7.4,7,12.2,7.8c10.2,1.6,19.3-5.1,21.7-14.9c0.5-1.9-2.4-2.7-2.9-0.8c-1.5,6.2-6.1,11.4-12.5,12.7
				c-7.9,1.6-16.7-3-17.2-11.6c-0.7-12.5,0.9-25-0.2-37.6c-1.9-20.6-8.5-41.3-24.1-55.7C446.7,992.7,444.5,994.9,446,996.2
				L446,996.2z" style="fill:#161616;"/>
		</g>
	</g>
	<g id="XMLID_2499_">
		<g id="XMLID_2632_">
			<path id="XMLID_2637_" d="M501.7,1088.8c10.2,8.6,25.2,1.9,25.5-11.5c0-1.9-3-1.9-3,0c-0.2,10.7-12.1,16.3-20.3,9.4
				C502.4,1085.4,500.2,1087.5,501.7,1088.8L501.7,1088.8z" style="fill:#161616;"/>
		</g>
	</g>
	<g id="XMLID_2507_">
		<g id="XMLID_2640_">
			<path id="XMLID_2645_" d="M449.5,996.2c2-7.1,7-14,14.6-15.7c7.1-1.6,15,2.3,17.3,9.4c0.6,1.8,3.5,1,2.9-0.8
				c-2.6-8.1-11-12.9-19.3-11.8c-9.4,1.3-15.9,9.4-18.4,18.1C446.1,997.2,449,998,449.5,996.2L449.5,996.2z" style="fill:#161616;"/>
		</g>
	</g>
	<g id="XMLID_2516_">
		<g id="XMLID_2649_">
			<path id="XMLID_2653_" d="M479.6,981c6.4-9.2,19.7-10.8,25.8-0.5c5.2,8.8,7,20.6,9.2,30.4c5.2,22.4,8.4,45.1,9.7,68
				c0.1,1.9,3.1,1.9,3,0c-1.6-28.3-6.1-56.4-13.6-83.8c-2.4-8.7-4.8-20.2-14.3-23.9c-8.4-3.3-17.6,1.3-22.5,8.2
				C475.9,981.1,478.5,982.6,479.6,981L479.6,981z" style="fill:#161616;"/>
		</g>
	</g>
	<g id="XMLID_2524_">
		<g id="XMLID_2657_">
			<path id="XMLID_2661_" d="M524.4,1049c2.4-0.9,4.8-1.8,7.1-2.8c1.8-0.7,1-3.6-0.8-2.9c-2.4,0.9-4.8,1.8-7.1,2.8
				C521.8,1046.8,522.6,1049.7,524.4,1049L524.4,1049z" style="fill:#161616;"/>
		</g>
	</g>
	<g id="XMLID_2532_">
		<g id="XMLID_2665_">
			<path id="XMLID_2670_" d="M178.6,972.8c13.2,6.8,27.1,12.1,41.5,15.8c1.9,0.5,2.7-2.4,0.8-2.9
				c-14.1-3.6-27.7-8.8-40.7-15.4C178.4,969.3,176.9,971.9,178.6,972.8L178.6,972.8z" style="fill:#161616;"/>
		</g>
	</g>
	<g id="XMLID_2540_">
		<g id="XMLID_2673_">
			<path id="XMLID_2678_" d="M251.1,996.5c18.6,4.2,37.4,7.5,56.3,9.9c1.9,0.2,1.9-2.8,0-3c-18.7-2.4-37.2-5.7-55.5-9.8
				C250,993.1,249.2,996,251.1,996.5L251.1,996.5z" style="fill:#161616;"/>
		</g>
	</g>
	<g id="XMLID_2548_">
		<g id="XMLID_2681_">
			<path id="XMLID_2686_" d="M197.6,955.1c10.4,3.8,21,6.8,31.8,9.2c1.9,0.4,2.7-2.5,0.8-2.9
				c-10.8-2.4-21.4-5.4-31.8-9.2C196.5,951.6,195.8,954.5,197.6,955.1L197.6,955.1z" style="fill:#161616;"/>
		</g>
	</g>
	<g id="XMLID_2556_">
		<g id="XMLID_2689_">
			<path id="XMLID_2694_" d="M198.6,907.9C231.1,928,269.2,936,307,937.4c22.1,0.8,44.2-0.4,66.2-2.3
				c20.4-1.7,41.5-2.7,61.4-7.6c23.2-5.7,45.6-15.6,67.9-24c1.8-0.7,1-3.6-0.8-2.9c-19.3,7.2-38.4,15.1-58.1,21.2
				c-20,6.2-40.9,7.5-61.6,9.4c-40.8,3.7-82.4,6.1-122.7-2.7c-20.9-4.5-41.1-12.1-59.3-23.4C198.5,904.3,197,906.9,198.6,907.9
				L198.6,907.9z" style="fill:#161616;"/>
		</g>
	</g>
	<g id="XMLID_2565_">
		<g id="XMLID_2698_">
			<path id="XMLID_2702_" d="M179.4,1005.4c-1.7-2.3-2.4-4.9-1.7-7.6c1-4,5.3-7.1,8.2-2.6c1.7,2.5,2.4,6.2,1,9
				c-2,4-9.2,4.6-8.8-1.2c0.1-1.9-2.9-1.9-3,0c-0.3,5.4,5.3,9,10.2,6.8c5.4-2.5,6.4-9.1,4.2-14.2c-2.1-4.8-7.2-7.9-11.6-3.8
				c-4.3,3.9-4.4,10.7-1.1,15.2C178,1008.5,180.6,1007,179.4,1005.4L179.4,1005.4z" style="fill:#161616;"/>
		</g>
	</g>
	<g id="XMLID_2573_">
		<g id="XMLID_2706_">
			<path id="XMLID_2710_" d="M203.3,1008.1c-4.7,0-5.3-5.9-2.7-8.8c2.5-2.8,6.9-3.2,9.3,0c1.9,2.5,2,6.3-0.7,8.2
				c-2.5,1.8-6.1,1.3-8.1-1c-1.3-1.5-3.4,0.7-2.1,2.1c3.3,3.8,9.7,3.9,13.2,0.3c3.6-3.8,2.3-10.2-1.6-13.2
				c-4.6-3.5-11.1-1.2-13.6,3.7c-2.5,4.9,0.5,11.7,6.4,11.7C205.2,1011.1,205.2,1008.1,203.3,1008.1L203.3,1008.1z" style="fill:#161616;"/>
		</g>
	</g>
	<g id="XMLID_2581_">
		<g id="XMLID_2714_">
			<path id="XMLID_2719_" d="M447.8,995.3c3.6-13.7,18.6-19.9,30.8-12.8c1.7,1,3.2-1.6,1.5-2.6
				c-13.9-8-31.1-1-35.2,14.6C444.4,996.4,447.3,997.2,447.8,995.3L447.8,995.3z" style="fill:#161616;"/>
		</g>
	</g>
	<g id="XMLID_2589_">
		<g id="XMLID_2722_">
			<path id="XMLID_2727_" d="M459.9,944.2c-2.9-2.9-3-7.9,0.2-10.7c2.9-2.5,8.3-2.7,10.8,0.5c2.7,3.3,0.1,7.7-3.1,9.6
				c-2.9,1.7-6.5,1.9-9.4,0.2c-1.7-1-3.2,1.6-1.5,2.6c4.5,2.5,10,1.9,14-1.3c4.2-3.4,5.9-10.1,1.3-14c-4.1-3.5-10.7-3.2-14.6,0.6
				c-4.1,4-3.8,10.7,0.1,14.6C459.1,947.7,461.3,945.6,459.9,944.2L459.9,944.2z" style="fill:#161616;"/>
		</g>
	</g>
	<g id="XMLID_2597_">
		<g id="XMLID_2730_">
			<path id="XMLID_2735_" d="M488.9,937.2c-2.4-1.3-3.8-4.4-2.6-7c1.2-2.5,4.8-3.6,7.2-2.1c2.3,1.4,3,4.8,1.7,7.1
				c-1.8,3-5.9,3-8.8,2.2c-1.9-0.5-2.7,2.4-0.8,2.9c4.5,1.2,10.2,0.6,12.5-4.1c1.9-3.9,0.4-9-3.5-10.9c-3.8-1.9-9-0.3-10.9,3.6
				c-1.9,3.9-0.1,8.9,3.7,10.9C489.1,940.7,490.6,938.1,488.9,937.2L488.9,937.2z" style="fill:#161616;"/>
		</g>
	</g>
	<g id="XMLID_2605_">
		<g id="XMLID_2738_">
			<path id="XMLID_2743_" d="M478.6,980.9c6.1,12.8,10.5,26.2,13.5,40.1c0.4,1.9,3.3,1.1,2.9-0.8
				c-3-14.1-7.6-27.8-13.8-40.8C480.3,977.7,477.8,979.2,478.6,980.9L478.6,980.9z" style="fill:#161616;"/>
		</g>
	</g>
	<g id="XMLID_2614_">
		<g id="XMLID_2747_">
			<path id="XMLID_2751_" d="M419,1067.1c-0.2-3-0.4-6-0.6-9c-0.4,0.5-0.7,1-1.1,1.4c15.5-2.2,30.9-5.3,46.1-9.1
				c-0.6-0.5-1.3-1-1.9-1.4c0.4,3,0.8,5.9,1.1,8.9c0.2,1.9,3.2,1.9,3,0c-0.4-3-0.8-5.9-1.1-8.9c-0.1-1-0.9-1.7-1.9-1.4
				c-15.2,3.9-30.6,6.9-46.1,9.1c-0.6,0.1-1.1,0.9-1.1,1.4c0.2,3,0.4,6,0.6,9C416.1,1069.1,419.1,1069.1,419,1067.1L419,1067.1z" style="fill:#161616;"/>
		</g>
	</g>
	<g id="XMLID_2622_">
		<g id="XMLID_2755_">
			<path id="XMLID_2759_" d="M198.2,203.8c3.8-9,16.6-11.1,25-13.7c10.4-3.2,20.8-5.9,31.4-8.3c21.4-4.9,43.1-7.9,65-10
				c42.6-4.1,86.4-9.3,128.7-0.2c21.5,4.6,42,12.9,59.7,26c1.6,1.2,3-1.5,1.5-2.6c-33.6-25-76.2-31.8-117.2-31.3
				c-23.4,0.3-46.7,2.6-69.9,4.9c-22.5,2.1-44.8,5-66.8,9.9c-12.4,2.8-24.8,6.1-36.9,9.9c-8.3,2.6-19.3,5-23.1,13.9
				C194.8,204.1,197.4,205.6,198.2,203.8L198.2,203.8z" style="fill:#161616;"/>
		</g>
	</g>
	<g id="XMLID_2630_">
		<g id="XMLID_2763_">
			<path id="XMLID_2768_" d="M192.4,168.5c3.8-9,16.6-11.1,25-13.7c10.4-3.2,20.8-5.9,31.4-8.3c21.4-4.9,43.1-7.9,65-10
				c42.6-4.1,86.4-9.3,128.7-0.2c21.5,4.6,42,12.9,59.7,26c1.6,1.2,3-1.5,1.5-2.6c-33.6-25-76.2-31.8-117.2-31.3
				c-23.4,0.3-46.7,2.6-69.9,4.9c-22.5,2.1-44.8,5-66.8,9.9c-12.4,2.8-24.8,6.1-36.9,9.9c-8.3,2.6-19.3,5-23.1,13.9
				C189,168.8,191.6,170.3,192.4,168.5L192.4,168.5z" style="fill:#161616;"/>
		</g>
	</g>
	<g id="XMLID_2638_">
		<g id="XMLID_2771_">
			<path id="XMLID_2775_" d="M190.8,166.3c-1.3,8-1.5,16-0.3,24c0.4,2.7,0.5,13.2,5.3,12c0.5-0.1,1-0.6,1-1
				c0-0.2,0.1-0.4,0.1-0.5c0.3-1.9-2.6-2.7-2.9-0.8c0.5-0.1,1-0.3,1.4-0.4c-0.2-0.6-0.3-1.2-0.5-1.8c-0.1-1.2-0.6-2.5-0.8-3.6
				c-0.7-3.2-1.1-6.5-1.3-9.8c-0.4-5.8-0.1-11.6,0.8-17.3C194,165.2,191.1,164.3,190.8,166.3L190.8,166.3z" style="fill:#161616;"/>
		</g>
	</g>
	<g id="XMLID_2646_">
		<g id="XMLID_2778_">
			<path id="XMLID_2782_" d="M501.5,162c5.6,3.1,8.5,8.7,9.8,14.8c0.6,3,0.8,6.2,0.9,9.3c0,1.3,0.1,2.7-0.1,4.1
				c-0.2,1.9-1.7,4.4-1.1,6c-0.7-1.8-3.6-1-2.9,0.8c0.7,2,2.6,2.7,4.4,1.2c3.1-2.7,2.8-9.2,2.7-12.8c-0.4-10-2.8-20.7-12.2-25.9
				C501.3,158.5,499.8,161.1,501.5,162L501.5,162z" style="fill:#161616;"/>
		</g>
	</g>
	<g id="XMLID_2654_">
		<g id="XMLID_2785_">
			<path id="XMLID_2789_" d="M204.9,179.3c-4.6-1.9,1.3-13.3,6-7.8c3.6,4.2,0.1,12.5-5.7,9.2c-1.7-1-3.2,1.6-1.5,2.6
				c3.7,2.1,8.5,0.8,10.7-2.8c2.3-3.9,1.1-9.8-2.7-12.4c-8-5.4-16.4,10.5-7.5,14.1C205.9,183,206.7,180.1,204.9,179.3L204.9,179.3z" style="fill:#161616;"/>
		</g>
	</g>
	<g id="XMLID_2663_">
		<g id="XMLID_2792_">
			<path id="XMLID_2796_" d="M224.1,178.4c3.9,1.9,9,0.8,11.3-3.1c2.1-3.6,0.9-8.8-2.6-11.2c-3.5-2.4-8.7-1.5-11.3,1.9
				c-2.7,3.6-1.9,9,1.7,11.7c1.5,1.2,3.6-0.9,2.1-2.1c-2.1-1.6-3.1-4.6-1.9-7.1c1.3-2.5,4.9-3.5,7.4-2.2c2.4,1.3,3.4,4.6,2.2,7
				c-1.3,2.7-4.8,3.7-7.4,2.4C223.9,175,222.4,177.6,224.1,178.4L224.1,178.4z" style="fill:#161616;"/>
		</g>
	</g>
	<g id="XMLID_2671_">
		<g id="XMLID_2799_">
			<path id="XMLID_2803_" d="M299.2,133.8c-0.7-3.3,0.4-5,3.2-5.3c1.2-0.2,2.3-0.4,3.5-0.5c1.9-0.2,3.9-0.4,5.8-0.6
				c4.2-0.4,8.5-0.7,12.7-1.1c8.1-0.6,16.3-1.1,24.4-1.5c8.2-0.4,16.3-0.7,24.5-1c3.9-0.1,7.8-0.3,11.7-0.4c2-0.1,3.9-0.1,5.9-0.2
				c1,0,13.2-0.6,8.8,4.7c-1.2,1.5,0.9,3.6,2.1,2.1c1.8-2.3,2-5.1,0-7.4c-3-3.5-8.8-2.5-12.9-2.4c-14,0.5-28.1,1-42.1,1.7
				c-14,0.7-28.1,1.5-42,3.1c-3.5,0.4-7.7,1.1-9.2,4.8c-1,2.6-0.2,4.9,1.9,6.4C299.2,137.5,300.7,134.9,299.2,133.8L299.2,133.8z" style="fill:#161616;"/>
		</g>
	</g>
	<g id="XMLID_2817_">
		<g id="XMLID_3002_">
			<path id="XMLID_3006_" d="M254.7,890.2c-5.9-7.1,3.9-17.8,11.1-10.7c3.7,3.6,2.4,9.8-2.1,12.2
				c-4.8,2.6-10.3-1.2-11.1-6.2c-0.3-1.4-2.4-0.8-2.2,0.6c1.1,6.1,7.7,10.4,13.6,7.9c5.7-2.4,8.2-9.9,4.4-14.9
				c-3.5-4.6-10.5-5.8-14.7-1.5c-3.7,3.9-4.1,10.1-0.6,14.2C254,892.9,255.6,891.3,254.7,890.2L254.7,890.2z" style="fill:#E8E8E8;"/>
		</g>
	</g>
	<g id="XMLID_2819_">
		<g id="XMLID_3009_">
			<path id="XMLID_3013_" d="M247.4,833.1c-0.8-2.9-0.6-5.8,0.7-8.5c-0.3,0.2-0.6,0.4-1,0.6c3.6-0.3,7.7,2.7,5.9,6.6
				c-0.8,1.6-2.5,2.8-4.3,2.2c-1.9-0.6-2.9-2.7-2.3-4.5c0.5-1.4-1.7-2-2.2-0.6c-2,5.9,6.1,10,9.9,5.2c4.2-5.3-1-11.7-7-11.2
				c-0.4,0-0.8,0.2-1,0.6c-1.5,3.3-1.8,6.7-0.9,10.2C245.7,835.1,247.8,834.5,247.4,833.1L247.4,833.1z" style="fill:#E8E8E8;"/>
		</g>
	</g>
	<g id="XMLID_2820_">
		<g id="XMLID_3016_">
			<path id="XMLID_3020_" d="M229.2,510.8c-4.9-4.3-6.7-11.3-3.1-17c4.1-6.5,13.8-8.2,17.8-0.5
				c2.1,4.1,1.2,9.4-1.3,13.2c-2.9,4.4-13.4,9.4-15.3,1.3c-0.3-1.4-2.5-0.8-2.2,0.6c1.7,7.1,10.7,6.9,15.6,3.3
				c5.8-4.2,8.5-13,5.1-19.5c-4.1-8.1-14-8.1-19.8-1.9c-6.1,6.5-5,16.4,1.6,22.1C228.7,513.3,230.3,511.8,229.2,510.8L229.2,510.8z" style="fill:#E8E8E8;"/>
		</g>
	</g>
	<g id="XMLID_2821_">
		<g id="XMLID_3023_">
			<path id="XMLID_3027_" d="M233.7,457.1c-4.6-3.8-0.3-12.4,5.3-8.4c2.3,1.6,3,4.8,0.5,6.6c-1.9,1.4-4.7,1.4-6.2-0.5
				c-0.9-1.1-2.5,0.5-1.6,1.6c2.3,2.9,6.7,2.7,9.4,0.5c3.2-2.6,2.7-7.1-0.3-9.6c-3-2.5-7.6-2.5-10,0.8c-2.3,3.2-1.8,8,1.2,10.6
				C233.2,459.6,234.8,458,233.7,457.1L233.7,457.1z" style="fill:#E8E8E8;"/>
		</g>
	</g>
	<g id="XMLID_2822_">
		<g id="XMLID_3030_">
			<path id="XMLID_3034_" d="M447.2,749.6c-5-1.6-4.5-9.5-2.4-13.1c2.9-4.9,8.8-5.7,13.5-2.8c5.2,3.3,6.4,10,2.1,14.5
				c-3.7,4-13,5.9-14.8-1.2c-0.3-1.4-2.5-0.8-2.2,0.6c1.9,7.7,11.7,7.7,16.9,3.6c6.1-4.8,6.5-13.3,0.5-18.4
				c-5.3-4.5-13.5-4.3-17.5,1.7c-3.4,5-3.6,15,3.3,17.2C448,752.2,448.6,750.1,447.2,749.6L447.2,749.6z" style="fill:#E8E8E8;"/>
		</g>
	</g>
	<g id="XMLID_2830_">
		<g id="XMLID_3037_">
			<path id="XMLID_3041_" d="M252.1,194.8c0,64.8,0,129.5,0,194.3c0,1.4,2.3,1.5,2.3,0c0-64.8,0-129.5,0-194.3
				C254.4,193.4,252.1,193.4,252.1,194.8L252.1,194.8z" style="fill:#E8E8E8;"/>
		</g>
	</g>
	<g id="XMLID_2838_">
		<g id="XMLID_3044_">
			<path id="XMLID_3048_" d="M276.5,288.5c0,55.6,0,111.3,0,166.9c0,1.4,2.3,1.5,2.3,0c0-55.6,0-111.3,0-166.9
				C278.8,287.1,276.5,287.1,276.5,288.5L276.5,288.5z" style="fill:#E8E8E8;"/>
		</g>
	</g>
	<g id="XMLID_2853_">
		<g id="XMLID_3051_">
			<path id="XMLID_3055_" d="M326.3,700.5c0,73.5,0,147.1,0,220.6c0,1.4,2.3,1.5,2.3,0c0-73.5,0-147.1,0-220.6
				C328.6,699.1,326.3,699.1,326.3,700.5L326.3,700.5z" style="fill:#E8E8E8;"/>
		</g>
	</g>
	<g id="XMLID_2890_">
		<g id="XMLID_3058_">
			<path id="XMLID_3062_" d="M363.4,806c0,35.1,0,70.3,0,105.4c0,1.4,2.3,1.5,2.3,0c0-35.1,0-70.3,0-105.4
				C365.7,804.5,363.4,804.5,363.4,806L363.4,806z" style="fill:#E8E8E8;"/>
		</g>
	</g>
	<g id="XMLID_2897_">
		<g id="XMLID_3065_">
			<path id="XMLID_3069_" d="M441.3,818.7c-1.1,0.8-1.5-1-1.3-1.7c0.1-0.5,0.5-1,0.8-1.5c0.7-0.8,1.6-1.4,2.6-1.7
				c2-0.6,4.1,0.2,4.9,2.2c0.7,1.7,0.5,4-1.3,4.9c-1.7,0.8-4.1,0-4.8-1.8c-0.5-1.4-2.7-0.8-2.2,0.6c1.2,3.3,5.4,4.8,8.5,2.9
				c3.3-2,3.1-7,0.5-9.6c-2.8-2.8-7.7-1.9-10,1c-1.2,1.5-1.9,3.7-0.8,5.5c0.9,1.4,2.8,1.9,4.2,1
				C443.6,819.8,442.5,817.9,441.3,818.7L441.3,818.7z" style="fill:#E8E8E8;"/>
		</g>
	</g>
	<g id="XMLID_2916_">
		<g id="XMLID_3072_">
			<path id="XMLID_3076_" d="M431.9,260.6c-1.4-0.3-2.9-0.5-4.3-0.8c-0.5-1.4-1-2.8-1.6-4.2c-0.3-1.5,0.2-3.4,0.4-4.9
				c0.6-3,1.7-6.2,3.9-8.4c5.7-5.9,13.7-2.4,15.8,4.8c1.2,4.2,0.3,9-2,12.7c-2.7,4.3-11.6,9.6-14.7,2.8c-0.6-1.3-2.6-0.2-1.9,1.1
				c3.5,7.4,13.5,3.7,17.5-1.2c4.9-6.2,5.6-16.1,0.1-22.1c-6.6-7.3-16.5-2.3-19.6,5.6c-2,5.2-2.9,20.5,7,16.6
				C433.8,262.2,433.2,260,431.9,260.6L431.9,260.6z" style="fill:#E8E8E8;"/>
		</g>
	</g>
	<path id="XMLID_3132_" d="M199.6,908.2c-0.2,5.3,0.2,12.2,2.4,19.9c5.3,18.2,17.4,29.1,22.9,33.5
		c-9-2.4-18-4.7-27.1-7.1c-1.1,2.4-3.3,8-1.8,14.7c2,8.9,9.9,16,20,18.2c-6.3,0.2-12.6,0.4-18.8,0.6c-4,10.2-8.7,26.1-8.2,45.9
		c0.2,10.1,1.7,18.8,3.5,25.9c-8.2-3.7-16.5-7.5-24.7-11.2c-1-12.7-1.5-23.5-1.8-31.8c-0.5-13.5-0.2-18.5,1.4-24.7
		c2.4-8.8,6.6-15.4,9.8-19.5c-2-5.7-1.2-9-0.2-11c2.3-4.3,7-4.5,8.8-9.3c0.8-2,0.6-3.6,0.3-6.7c-0.7-7.4-1.3-13.6-1.1-18.2
		c0.4-7.1,3.3-17.6,9.9-19.5C196.8,907.7,198.5,907.9,199.6,908.2z" style="opacity:0.1;fill:#606060;"/>
	<path id="XMLID_3133_" d="M238.5,148.5c-0.5,2.1-3.3,13.5,3.5,23.7c3.1,4.7,7.1,7.4,9.7,8.8
		c0.4,23.2,0.6,60.9-0.9,107.3c-6.1,190.8-35.1,332.8-11.2,496.7c4.5,30.9,11.1,91.5,54.7,118.7c6.4,4,17,9.4,44,14
		c30.5,5.2,80.3,9.1,144.7-6.7c-55.2,18-102.4,23.7-135.3,25.3c-76.6,3.9-113.1-11.8-125-17.4c-11.4-5.4-20.4-10.9-26.4-15
		c0.5-11.3,1.2-29.5,1.8-51.9c1.2-53.9,0.3-94.2,0-107.3c-2-92.5-1.6-238.2-0.9-465.3c0.1-33.5,0.2-60.4,0.3-75.4
		c-1.2-1.2-3-3.1-4.3-5.7c-2.4-4.8-2-9-1.7-16.9c0.1-3.8,0.3-9.6,0.3-16.9c2.5-2,6.3-4.7,11.4-7.2c1.4-0.6,5.8-2.7,18.9-5.7
		C226.2,150.8,231.8,149.6,238.5,148.5z" style="opacity:5.000000e-002;fill:#606060;"/>
</g>
<g id="alien">
	<path id="XMLID_2805_" d="M337.2,348.9c-3.5,7.7-2.9,13.1-8,16.4c-4.2,2.8-6.9,0.6-11.5,2.7
		c-8.1,3.6-10.4,15-11.5,21.3c-2.7,14.5,1.2,19.9,2.2,37.2c0.3,4.9,0.9,20.7-3.5,38.5c-5.4,21.5-12.5,23.3-12.4,39
		c0,4,0.2,16.8,8.4,27.9c5.6,7.6,8.8,6.2,16.8,14.2c6.5,6.5,7.7,10.7,19.1,33.2c8.5,16.9,12.8,25.4,15.5,27.9
		c12.2,11.4,28.7,12.3,40.3,12.8c11.7,0.6,25.1,1.3,36.8-7.5c9.4-7.1,13.7-17.3,14.2-18.6c3.6-9.1,1.2-12.3,5.3-20.8
		c2.9-6.1,5.8-7.7,13.7-16.4c4.4-4.8,11.3-12.4,16.8-20.8c9.9-15.2,12.8-29.6,14.2-36.8c1.6-8.3,2.7-14.6,0.9-22.6
		c-1.6-7.1-4.4-10.2-8-17.3c-4.2-8.4-5.8-15.4-8.9-29.2c-7.1-32-3.1-37.1-9.7-62c-5-18.6-10.5-27.9-17.3-35
		c-4.3-4.5-12-12.5-21.7-12c-7,0.4-14.3,5.2-17.7,7.5c-6.2,4.1-6.7,6.3-10.6,7.1c-6,1.2-9.1-3.3-16.8-6.2c-9.6-3.7-21.9-3.3-31,1.8
		C343.1,336.5,338.3,346.5,337.2,348.9z" style="opacity:0.52;fill:#9E9E9E;"/>
	<path id="XMLID_2806_" d="M286.2,359.1c-3.7-3.3-3.3-8.8-3.1-11.1c0.8-9.6,8.5-15.9,9.7-16.8c7.8-6.1,11.7-2.3,18.2-8
		c6.8-6,4.6-12,11.5-15.9c3.8-2.1,9.8-3.4,13.3-0.4c3.9,3.3,2.6,10.2,2.2,12c-1.6,8.5-7.9,13.8-16.4,20.8
		c-10.9,9-12.4,6.5-18.2,13.3c-3.2,3.8-5.6,7.9-10.2,8.4C289.4,361.8,286.4,359.3,286.2,359.1z" style="opacity:0.52;fill:#C9C9C9;"/>
	<path id="XMLID_2807_" d="M291.1,570.9c-0.3,2.6,0.1,5.1,2.7,11.1c2.4,5.7,4.2,8.4,6.2,12.4
		c5.2,10.1,4.4,12.7,9.7,21.7c4.9,8.3,7.1,8.9,8.4,8.9c3.9,0,6.6-5.7,7.1-6.6c2.7-5.7,1.3-11.6,0.4-14.6c-1.2-4.5-2.3-4.6-5.3-11.1
		c-3.4-7.5-2.5-8.8-6.2-17.3c-4.2-9.8-7-11.6-8.4-12.4c-0.8-0.5-5.2-2.8-9.3-0.9C292,564.1,291.2,569.7,291.1,570.9z" style="opacity:0.52;fill:#C9C9C9;"/>
	<path id="XMLID_2808_" d="M471,619.6c-2.9,0.1-5.8-8.4-6.2-15.5c-0.2-3.3-0.5-8.6,2.7-13.3c3-4.6,5.5-3,9.7-8
		c5-5.8,4.2-11.1,8.4-12.4c1.7-0.5,3.9-0.3,5.3,0.9c2.7,2.4,1.4,7.8,0,13.3c-0.9,3.5-2.2,8.6-5.8,14.6c-3.7,6.2-5.2,5.8-9.3,12.8
		C472.8,617.3,472.4,619.6,471,619.6z" style="opacity:0.52;fill:#C9C9C9;"/>
	<path id="XMLID_2809_" d="M358.7,561.8c-8.8-10.3-14-23.9-11.7-25.4c1.5-1,4.9,4.2,16.3,12.7
		c13.9,10.5,22.1,12.5,21.9,17.8c-0.1,3.3-3.6,6.2-6.6,7.1C371,576.2,362.7,566.4,358.7,561.8z" style="fill:#939393;"/>
	<path id="XMLID_2810_" d="M460.5,492.6c4.8-15.9,4.1-25.6,8.7-26.5c3.1-0.6,6.5,3.2,8.1,6.1c2.1,3.8,2.3,8.2-4.1,27
		c-7,20.7-10.3,24.1-14.2,25.4c-0.7,0.3-5.8,1.9-8.1-0.5C447.1,520.3,454.8,511.3,460.5,492.6z" style="fill:#939393;"/>
	<path id="XMLID_2823_" d="M342.4,376.5c-2.3-3.6,9.3-14.7,18.3-23.4c7.3-7,11.7-11.2,13.2-10.2
		c2.1,1.4-2.3,11.4-6.1,17.8c-3.5,5.9-8.6,14.3-17.8,16.3C348.4,377.4,343.7,378.4,342.4,376.5z" style="fill:#939393;"/>
	<ellipse id="XMLID_2824_" cx="319" cy="509.3" rx="4.6" ry="9.4" style="fill:#939393;"/>
	<ellipse id="XMLID_2826_" cx="422" cy="554.7" rx="3.2" ry="3.5" style="fill:#939393;"/>
	<ellipse id="XMLID_2827_" cx="432.3" cy="496.2" rx="3.8" ry="3.7" style="fill:#939393;"/>
	<ellipse id="XMLID_2828_" cx="339.7" cy="427.7" rx="8.9" ry="8.4" style="fill:#939393;"/>
	<ellipse id="XMLID_2829_" cx="460" cy="427.7" rx="10.2" ry="8.4" style="fill:#939393;"/>
	<g id="XMLID_2679_">
		<g id="XMLID_3126_">
			<path id="XMLID_3130_" d="M322.4,363.8c-25.7,12.3-18.2,45.7-15.9,68c1.7,16.6-2.3,31.3-7.7,46.9
				c-4.4,12.5-10,26.5-7.2,40c2.7,13.2,14.6,19.6,23.8,28c11.3,10.3,17.7,23.1,22,37.5c3.5,11.8,8.8,21.4,19.7,27.8
				c10.7,6.3,23.4,8.8,35.7,9.6c13.6,1,28-1,39.4-9.1c10.3-7.4,14.3-17.4,16.6-29.4c1.4-7.2,3-14.3,8.6-19.5c5-4.7,10.6-8.2,15-13.6
				c7.9-9.8,12.5-21.7,16.6-33.5c4.6-13.5,9.8-27.7,5.6-42c-2-6.9-5.5-13.3-8.3-19.9c-2.9-6.9-5.1-14.2-6.8-21.5
				c-6.4-27.8-6.1-57.4-18.1-83.7c-5-10.9-12.4-22-24-26.5c-5.3-2.1-11.4-2.7-17-1.3c-5.8,1.5-9.3,5.2-13.6,9
				c-7.8,6.9-15.3,1.4-23.5-1.4c-6.7-2.2-13.9-3.2-21-2.2c-11.5,1.6-21.4,8.7-25.6,19.7c-2.7,7.1-5,18.8-15,17.7
				c-1.9-0.2-1.9,2.8,0,3c13.1,1.5,14.8-14.3,19.1-22.7c7.2-14.3,24.9-17.3,39.1-13.4c5.7,1.6,10.9,5.1,16.8,5.9
				c5.2,0.7,9.1-1.6,12.8-4.9c5.4-5,10.2-8.7,18-8.4c7.4,0.2,14.1,3.7,19.3,8.9c19.1,18.7,21.7,50.3,25.3,75.3
				c1.9,13.4,4,26.9,8.4,39.8c4.5,13.3,13.5,25.7,12.7,40.3c-0.7,13.1-6.3,26.8-11.2,38.9c-5.2,12.8-12.1,23.1-23,31.6
				c-4.3,3.4-7.7,6.8-9.8,11.9c-2.2,5.2-2.9,10.9-4.1,16.5c-3,13.9-11.8,24.1-25.3,28.9c-13.6,4.9-29.3,3.8-43.2,0.6
				c-11.5-2.7-23.4-7.9-30.1-18.1c-3.9-5.9-5.4-12.8-7.4-19.4c-1.8-5.8-4.1-11.3-7.2-16.5c-6.4-10.9-15.3-18.3-24.9-26.3
				c-5.8-4.8-10.8-10.3-12.4-18c-1.6-8.1,0.3-16.4,2.5-24.2c4.3-14.7,10.9-28.8,12.7-44.1c1.8-16.4-3.5-32.3-3.4-48.6
				c0.1-13.4,4.7-28.3,17.6-34.5C325.7,365.6,324.2,363,322.4,363.8L322.4,363.8z" style="fill:#161616;"/>
		</g>
	</g>
	<g id="XMLID_2728_">
		<g id="XMLID_3120_">
			<path id="XMLID_3124_" d="M399.6,419.2c0,3.5-0.5,11.1-5.9,10.1c-1.9-0.3-2.7,2.6-0.8,2.9c2.9,0.5,5.6-0.6,7.4-3
				c2.2-2.8,2.3-6.6,2.3-10C402.6,417.3,399.6,417.3,399.6,419.2L399.6,419.2z" style="fill:#161616;"/>
		</g>
	</g>
	<g id="XMLID_2736_">
		<g id="XMLID_2999_">
			<path id="XMLID_3118_" d="M399.1,428.3c4,3.9,9.2,7.3,15,6.5c4.9-0.6,9.1-4.2,9.9-9.2c0.3-1.9-2.6-2.7-2.9-0.8
				c-0.7,4.2-4.3,7.1-8.6,7.1c-4.5,0-8.3-2.8-11.3-5.8C399.9,424.9,397.7,427,399.1,428.3L399.1,428.3z" style="fill:#161616;"/>
		</g>
	</g>
	<g id="XMLID_2744_">
		<g id="XMLID_2992_">
			<path id="XMLID_2997_" d="M333.1,427.6c3.4,3.2,6.9,6.4,10.3,9.6c1.4,1.3,3.5-0.8,2.1-2.1c-3.4-3.2-6.9-6.4-10.3-9.6
				C333.8,424.2,331.7,426.3,333.1,427.6L333.1,427.6z" style="fill:#161616;"/>
		</g>
	</g>
	<g id="XMLID_2752_">
		<g id="XMLID_2985_">
			<path id="XMLID_2990_" d="M338,423.3c3.4,3.3,6.5,6.8,9.3,10.7c1.1,1.6,3.7,0.1,2.6-1.5c-2.9-4.1-6.1-7.8-9.7-11.3
				C338.7,419.9,336.6,422,338,423.3L338,423.3z" style="fill:#161616;"/>
		</g>
	</g>
	<g id="XMLID_2761_">
		<g id="XMLID_2978_">
			<path id="XMLID_2983_" d="M455.4,432.6c2.7-2.9,5.7-5.3,9.1-7.3c1.6-1,0.1-3.6-1.5-2.6c-3.6,2.2-6.8,4.8-9.7,7.8
				C451.9,431.9,454,434,455.4,432.6L455.4,432.6z" style="fill:#161616;"/>
		</g>
	</g>
	<g id="XMLID_2769_">
		<g id="XMLID_2971_">
			<path id="XMLID_2976_" d="M459.4,436.6c1.4-1.2,2.8-2.4,4.3-3.6c0.6-0.5,0.5-1.6,0-2.1c-0.6-0.6-1.5-0.5-2.1,0
				c-1.4,1.2-2.8,2.4-4.3,3.6c-0.6,0.5-0.5,1.6,0,2.1C457.9,437.2,458.8,437.1,459.4,436.6L459.4,436.6z" style="fill:#161616;"/>
		</g>
	</g>
	<g id="XMLID_2790_">
		<g id="XMLID_2964_">
			<path id="XMLID_2969_" d="M373.3,618.9c0.9,31.4,1.8,62.7,2.7,94.1c0.1,1.9,3.1,1.9,3,0c-0.9-31.4-1.8-62.7-2.7-94.1
				C376.2,617,373.2,617,373.3,618.9L373.3,618.9z" style="fill:#161616;"/>
		</g>
	</g>
	<g id="XMLID_2797_">
		<g id="XMLID_2958_">
			<path id="XMLID_2962_" d="M401.9,622.5c-0.6,29.5-1.1,59.1-1.7,88.6c0,1.9,3,1.9,3,0c0.6-29.5,1.1-59.1,1.7-88.6
				C404.9,620.6,401.9,620.6,401.9,622.5L401.9,622.5z" style="fill:#161616;"/>
		</g>
	</g>
	<g id="XMLID_2804_">
		<g id="XMLID_2952_">
			<path id="XMLID_2956_" d="M375.5,714.2c0,9.2,0,18.5,0,27.7c0,1.9,3,1.9,3,0c0-9.2,0-18.5,0-27.7
				C378.5,712.3,375.5,712.3,375.5,714.2L375.5,714.2z" style="fill:#161616;"/>
		</g>
	</g>
	<g id="XMLID_2811_">
		<g id="XMLID_2946_">
			<path id="XMLID_2950_" d="M374.4,713.8c-1.7,7.6-4,14.9-7.1,22c-0.8,1.8,1.8,3.3,2.6,1.5c3.2-7.3,5.7-14.9,7.4-22.7
				C377.7,712.7,374.8,711.9,374.4,713.8L374.4,713.8z" style="fill:#161616;"/>
		</g>
	</g>
	<g id="XMLID_2818_">
		<g id="XMLID_2940_">
			<path id="XMLID_2944_" d="M376.9,714.5c2.6,7.7,5.3,15.4,7.9,23.1c0.6,1.8,3.5,1,2.9-0.8c-2.6-7.7-5.3-15.4-7.9-23.1
				C379.2,711.9,376.3,712.7,376.9,714.5L376.9,714.5z" style="fill:#161616;"/>
		</g>
	</g>
	<g id="XMLID_2825_">
		<g id="XMLID_2934_">
			<path id="XMLID_2938_" d="M399.2,710.8c-1.7,7-3.3,14-5,21.1c-0.4,1.9,2.4,2.7,2.9,0.8c1.7-7,3.3-14,5-21.1
				C402.5,709.7,399.6,708.9,399.2,710.8L399.2,710.8z" style="fill:#161616;"/>
		</g>
	</g>
	<g id="XMLID_2832_">
		<g id="XMLID_2928_">
			<path id="XMLID_2932_" d="M400.3,712.2c2.2,7.4,4.4,14.9,6.6,22.3c0.5,1.8,3.4,1.1,2.9-0.8
				c-2.2-7.4-4.4-14.9-6.6-22.3C402.6,709.5,399.7,710.3,400.3,712.2L400.3,712.2z" style="fill:#161616;"/>
		</g>
	</g>
	<g id="XMLID_2839_">
		<g id="XMLID_2922_">
			<path id="XMLID_2926_" d="M399.6,715.4c0.2,6,0.5,12.1,0.7,18.1c0.1,1.9,3.1,1.9,3,0c-0.2-6-0.5-12.1-0.7-18.1
				C402.5,713.5,399.5,713.5,399.6,715.4L399.6,715.4z" style="fill:#161616;"/>
		</g>
	</g>
	<g id="XMLID_2846_">
		<g id="XMLID_2915_">
			<path id="XMLID_2920_" d="M420,417.3c-0.8,4.4,0.7,8.7,4.1,11.6c1.5,1.2,3.6-0.9,2.1-2.1c-2.6-2.1-3.9-5.3-3.4-8.7
				C423.2,416.2,420.3,415.4,420,417.3L420,417.3z" style="fill:#161616;"/>
		</g>
	</g>
	<g id="XMLID_2687_">
		<g id="XMLID_2909_">
			<path id="XMLID_2913_" d="M342,404.7c11.5-5,30.6-6.3,33.5,9.8c0.3,1.9,3.2,1.1,2.9-0.8c-1.2-6.7-6.1-11.8-12.4-14.2
				c-8.4-3.2-17.6-0.8-25.5,2.6C338.7,402.9,340.3,405.5,342,404.7L342,404.7z" style="fill:#161616;"/>
		</g>
	</g>
	<g id="XMLID_2695_">
		<g id="XMLID_2903_">
			<path id="XMLID_2907_" d="M433.1,410c4.9-7.2,22.8-25.1,30.3-11.7c0.9,1.7,3.5,0.2,2.6-1.5
				c-9-16.1-29.4,2.7-35.5,11.7C429.5,410.1,432.1,411.6,433.1,410L433.1,410z" style="fill:#161616;"/>
		</g>
	</g>
	<g id="XMLID_2703_">
		<g id="XMLID_2896_">
			<path id="XMLID_2901_" d="M369.9,374.9c2.6-1.8,5.5-2.6,8.6-2.5c1.9,0.1,1.9-2.9,0-3c-3.6-0.1-7.1,0.9-10.1,2.9
				C366.8,373.4,368.3,376,369.9,374.9L369.9,374.9z" style="fill:#161616;"/>
		</g>
	</g>
	<g id="XMLID_2712_">
		<g id="XMLID_2889_">
			<path id="XMLID_2894_" d="M431,362.6c3.4-0.1,6.6,0.7,9.5,2.4c1.7,0.9,3.2-1.6,1.5-2.6c-3.4-1.9-7.1-2.9-11.1-2.8
				C429.1,359.6,429.1,362.6,431,362.6L431,362.6z" style="fill:#161616;"/>
		</g>
	</g>
	<g id="XMLID_2720_">
		<g id="XMLID_2883_">
			<path id="XMLID_2887_" d="M339.8,478.7c7.8,15.4,18.5,37.9,39.3,34.7c17.1-2.6,30.9-16.8,34.8-33.3
				c0.4-1.9-2.4-2.7-2.9-0.8c-3.5,15-15.6,27.9-30.9,30.9c-20,4-30.2-18.3-37.6-33C341.5,475.4,338.9,477,339.8,478.7L339.8,478.7z" style="fill:#161616;"/>
		</g>
	</g>
	<g id="XMLID_2776_">
		<g id="XMLID_2877_">
			<path id="XMLID_2881_" d="M412.2,478.2c-2.1-4.1-2.8-8.6-2-13.1c0.3-1.9-2.6-2.7-2.9-0.8c-0.9,5.4-0.1,10.5,2.3,15.4
				C410.4,481.4,413,479.9,412.2,478.2L412.2,478.2z" style="fill:#161616;"/>
		</g>
	</g>
	<g id="XMLID_2783_">
		<g id="XMLID_2871_">
			<path id="XMLID_2875_" d="M413.8,478.5c0.8-5.1,2.6-9.6,5.5-13.8c1.1-1.6-1.5-3.1-2.6-1.5c-3.1,4.4-5,9.3-5.8,14.6
				C410.6,479.6,413.5,480.4,413.8,478.5L413.8,478.5z" style="fill:#161616;"/>
		</g>
	</g>
	<g id="XMLID_2812_">
		<g id="XMLID_2865_">
			<path id="XMLID_2869_" d="M414.6,479.2c1.7-4.5,5.6-7.8,10.2-9c1.9-0.5,1.1-3.4-0.8-2.9c-5.7,1.5-10.2,5.6-12.3,11.1
				C411,480.2,413.9,481,414.6,479.2L414.6,479.2z" style="fill:#161616;"/>
		</g>
	</g>
	<g id="XMLID_2813_">
		<g id="XMLID_2859_">
			<path id="XMLID_2863_" d="M413.6,482.5c1.6-0.6,3.2-0.8,4.8-0.5c1.9,0.4,2.7-2.5,0.8-2.9c-2.2-0.4-4.4-0.3-6.4,0.5
				c-0.8,0.3-1.3,1-1,1.8C412,482.2,412.9,482.8,413.6,482.5L413.6,482.5z" style="fill:#161616;"/>
		</g>
	</g>
	<g id="XMLID_2814_">
		<g id="XMLID_2852_">
			<path id="XMLID_2857_" d="M300,360c2.8-6.8,9.8-10.2,15.8-13.8c5.4-3.2,10.3-7,14.4-11.7c6.1-7,15.6-22.1,4.8-29.5
				c-4.1-2.8-8.9-1.5-12.5,1.5c-5.5,4.7-7.2,12.1-13.7,16c-5.4,3.2-11.7,4.4-16.8,8c-4.7,3.3-7.2,8.4-9,13.8
				c-1.8,5.7-2,12.9,3.5,16.7c5.6,3.8,11.4-0.5,15.4-4.5c1.4-1.4-0.8-3.5-2.1-2.1c-3.7,3.6-10.2,7.9-13.8,1.7
				c-2.4-4.2-0.8-9.4,0.9-13.5c2.8-7.1,7.4-10.4,14.2-13.2c4.5-1.8,9.2-3.5,12.9-6.7c4.6-4,6.2-10.6,11.2-14.1
				c4.8-3.4,10.3-1.4,11.5,4.5c0.9,4.5-1.5,9.2-3.7,12.9c-3.5,5.8-8.2,10.8-13.7,14.7c-8,5.7-18,9-22.1,18.7
				C296.4,360.9,299.3,361.7,300,360L300,360z" style="fill:#161616;"/>
		</g>
	</g>
	<g id="XMLID_2815_">
		<g id="XMLID_2845_">
			<path id="XMLID_2850_" d="M297.2,580.9c-2.8-2.5-4.6-5.3-4.6-9.1c0-4.1,2.6-8.3,7.1-8.7c6.6-0.5,10.5,6.9,12.1,12.1
				c1.4,4.4,2.3,8.9,4.2,13c2.2,4.7,5.5,8.9,7.5,13.7c1.1,2.8,1.8,5.7,1.7,8.7c-0.1,2.5-0.6,7.4-2.5,9.2c-1.4,1.3-7.2,1.5-8.6,0.2
				c-1-0.9-1.7-2.7-2.3-4c-1.5-2.8-2.7-5.7-3.8-8.7c-1.6-4.2-3.1-8.3-5.6-12c-3-4.5-7.7-9.1-6.9-14.9c0.3-1.9-2.6-2.7-2.9-0.8
				c-0.7,5.3,1.5,9.4,4.5,13.6c4.3,6,6.6,12.2,9.5,19c1.9,4.4,4.5,11.6,9.1,13.9c4.4,2.2,8.1-1.9,9.9-5.5c2.5-4.9,3.1-10.7,1.8-16
				c-1.5-6.4-5.8-11.5-8.6-17.3c-4.3-9-4.7-25.8-17.8-27.2c-5-0.5-9.5,2.8-11.1,7.4c-2.1,5.7,0.7,11.5,5,15.4
				C296.5,584.3,298.6,582.2,297.2,580.9L297.2,580.9z" style="fill:#161616;"/>
		</g>
	</g>
	<g id="XMLID_2816_">
		<g id="XMLID_2837_">
			<path id="XMLID_2843_" d="M468.1,614.6c-2.4-8.6-4-19.4,3.4-26c3.1-2.7,6.5-4.7,9.2-7.8c1.1-1.3,2.1-2.6,3.1-4
				c0.6-0.9,2-4.8,2.8-5.1c4.5-1.9,3.7,10.4,3.4,12.5c-0.5,4.6-2,9.2-4.3,13.3c-2.2,3.9-5.1,6.8-8.2,9.9c-1.1,1.1-2.2,2.2-2.8,3.7
				c-0.3,0.6-0.4,1.3-0.4,2.1c-0.1,2.1-2,2.4-5.5,1.1c0.2-1.9-2.8-1.9-3,0c-0.5,4.1,2.8,7.9,7.1,6.7c1.7-0.5,3.2-1.9,3.8-3.6
				c1.1-2.8-0.7-3.4,1.8-6.9c1.1-1.5,3-2.7,4.3-4c8.1-8.5,12.1-21.3,9.7-32.9c-0.6-3.1-2.7-7.8-6.7-5.4c-2.1,1.2-2.8,4.1-3.9,6
				c-2.3,3.8-5.3,6.9-8.8,9.6c-4.8,3.6-8.5,7.2-9.7,13.3c-1.2,6.1,0,12.5,1.6,18.5C465.7,617.2,468.6,616.4,468.1,614.6L468.1,614.6
				z" style="fill:#161616;"/>
		</g>
	</g>
</g>
<g id="guy">
	<g id="torso">
		<path id="XMLID_3097_" d="M1050.6,358.4c-8.9,3.3-17.9,6.6-26.8,9.9c-9.5,22.6-18.5,47.7-26.4,75.1
			C977.3,514,971.7,578,971.8,629.1c12.2,3.8,25.4,7.3,39.5,10.4c35.5,7.7,67.9,10.3,95.6,10.4c0.9-60.5,1.8-121,2.8-181.5
			c0.7-34.6,1.4-69.3,2.1-103.9c-3.7-3.1-13.5-10.6-28.4-12.5C1067,350.1,1054.7,356.2,1050.6,358.4z" style="fill:#CCCCCC;"/>
		<path id="XMLID_3098_" d="M1080.6,352.8c-9.7,4.8-10,21.6-10.3,34.3c-0.8,32.5-8.2,64.9-6.2,97.3
			c2,32.7-6.3,82.2-54.1,154.9c16.2,3.1,34.1,5.8,53.5,7.5c15.3,1.4,29.7,2,43.2,2.1c0.5-17.8,0.9-35.6,1.4-53.5
			c1.9-77.2,3.2-154.4,4.1-231.7C1108,360.4,1091.5,347.3,1080.6,352.8z" style="opacity:0.12;fill:#606060;"/>
	</g>
	<g id="leg_right">
		<path id="XMLID_3113_" d="M1007.9,1018.8c2.8,16,5.5,32,8.3,48c-10.8,4.5-19.5,8.1-25.2,10.4c-22.4,9-32.6,12.4-48.3,20
			c-7.3,3.6-13.1,6.7-16.6,8.6c5.8,1.2,14.7,2.6,25.5,2.1c8.7-0.5,14.1-1.9,22.1-3.8c10.1-2.3,3.8-0.5,60.4-10.4
			c5.4-0.9,13.5-2.4,23.5-4.1c-0.6-10.5-1.4-21.4-2.4-32.4c-2.3-25-5.7-48.7-9.7-70.8C1033,997.2,1020.4,1008,1007.9,1018.8z"/>
		<path id="XMLID_3112_" d="M984.3,631.6c-1.3,5.3-3.2,13.5-4.5,23.8c-2.3,17.8-1.7,31.2-1.5,35.8
			c1,26.3-2.5,47.6-4.5,84.9c-2.8,54.4,0.1,98.5,4.5,166.1c2,30.8,4.3,56.2,6,73.7c11.8,2.3,21.7,3.3,29.1,3.7
			c15.3,0.9,28.5,1.6,44-3.7c5.2-1.8,9.3-3.8,11.9-5.2c-1.3-12.2-3.3-31.2-5.2-54.4c-9.2-111.3-7.1-196-6-227.9
			c0.7-19.1,1.9-46.3,4.5-79c-12.7-2.9-23-4.7-30.2-5.8c-13.7-2.2-23.2-3-36.5-7.6C990.8,634.4,986.9,632.7,984.3,631.6z" style="fill:#FFFFFF;"/>
		<path id="XMLID_3114_" d="M1020.2,642.3c0.5,12.7,1.2,31.5,1.9,54.4c2.1,73.7,1.5,118.2,1.9,164.6
			c0.3,37.7,1.4,91.5,5.1,157.6c5.6,0.4,13.6,0.4,22.8-1.9c6.8-1.7,12.3-4.1,16.5-6.3c-1.5-16.4-3.6-40.7-5.7-70.3
			c-4.9-67.3-7.9-109.9-7.6-159.5c0.2-32,1.9-77.4,8.9-132.3C1049.3,646.5,1034.8,644.4,1020.2,642.3z" style="opacity:0.12;fill:#606060;"/>
		<g id="XMLID_1692_">
			<g id="XMLID_1766_">
				<path id="XMLID_1771_" d="M982.4,633.9c-10.6,98.7-12.8,198.2-6.4,297.3c1.8,28.2,4.3,56.4,7.5,84.4
					c0.2,1.9,3.2,1.9,3,0c-11.2-98.6-13.9-198.1-8.1-297.2c1.6-28.2,4-56.4,7-84.5C985.6,632,982.6,632,982.4,633.9L982.4,633.9z" style="fill:#161616;"/>
			</g>
		</g>
		<g id="XMLID_1700_">
			<g id="XMLID_1774_">
				<path id="XMLID_1779_" d="M983.2,633c3.5,3,8,3.5,12.4,4.4c6,1.3,12.1,2.6,18.1,3.9c12.1,2.6,24.2,5.2,36.2,7.8
					c1.9,0.4,2.7-2.5,0.8-2.9c-10.8-2.3-21.6-4.6-32.4-6.9c-5.1-1.1-10.2-2.2-15.3-3.3c-5.3-1.1-13.4-1.5-17.7-5.1
					C983.9,629.7,981.8,631.8,983.2,633L983.2,633z" style="fill:#161616;"/>
			</g>
		</g>
		<g id="XMLID_1708_">
			<g id="XMLID_1783_">
				<path id="XMLID_1787_" d="M984.2,1017.1c1.9,2,4.3,2.2,7,2.5c4,0.5,8.1,1,12.1,1.4c8.7,0.9,17.4,1.5,26.2,1.4
					c8.1-0.2,16.3-1,24.2-3c3.9-1,7.7-2.2,11.3-3.7c2.2-0.9,4.2-1.4,5.1-3.7c0.2-0.5,0-1.1-0.4-1.5c-0.1-0.1-0.3-0.3-0.4-0.4
					c-1.4-1.4-3.5,0.7-2.1,2.1c-1.1-1.1-9.3,2.9-11.1,3.4c-2.7,0.8-5.5,1.4-8.3,2c-6.9,1.3-14,1.8-21,1.8c-6.4,0-12.8-0.4-19.2-1
					c-3.2-0.3-6.4-0.6-9.6-1c-3.2-0.4-9.5-0.1-11.8-2.5C984.9,1013.5,982.8,1015.7,984.2,1017.1L984.2,1017.1z" style="fill:#161616;"/>
			</g>
		</g>
		<g id="XMLID_1716_">
			<g id="XMLID_1791_">
				<path id="XMLID_1795_" d="M1055.1,738.3c-4.7,70.7-0.2,141.5,6.5,211.9c1.9,20,4,40,6,60c0.2,1.9,3.2,1.9,3,0
					c-7.3-70.4-14.6-140.9-14.5-211.7c0-20.1,0.7-40.1,2-60.1C1058.3,736.4,1055.3,736.4,1055.1,738.3L1055.1,738.3z" style="fill:#161616;"/>
			</g>
		</g>
		<g id="XMLID_1724_">
			<g id="XMLID_1799_">
				<path id="XMLID_1804_" d="M1007.1,1022c2.7,15.3,5.4,30.6,8.1,45.9c0.3-0.6,0.7-1.2,1-1.8
					c-31.7,9.8-62.2,22.7-91.3,38.5c-0.9,0.5-1,2.1,0,2.6c9.1,4.1,18.9,2.5,28.5,1.3c11.4-1.5,22.7-3.1,34-4.9
					c23.6-3.8,47.2-8.2,70.5-13.3c0.6-0.1,1.2-0.8,1.1-1.4c-2.3-23.1-4.6-46.1-7-69.2c-0.2-1.9-3.2-1.9-3,0
					c2.3,23.1,4.6,46.1,7,69.2c0.4-0.5,0.7-1,1.1-1.4c-21.5,4.7-43.1,8.9-64.8,12.4c-10.5,1.7-21.1,3.3-31.7,4.8
					c-10.8,1.5-23.8,4.8-34.2,0.1c0,0.9,0,1.7,0,2.6c28.9-15.7,59.2-28.5,90.6-38.2c0.8-0.3,1.2-1,1-1.8
					c-2.7-15.3-5.4-30.6-8.1-45.9C1009.6,1019.3,1006.7,1020.1,1007.1,1022L1007.1,1022z" style="fill:#161616;"/>
			</g>
		</g>
	</g>
	<g id="leg_left">
		<path id="XMLID_3105_" d="M1098.4,1008.5c5.2,17.9,10.3,35.8,15.5,53.6c-9.3,5.9-17.1,10.1-22.1,12.7
			c-21.8,11.3-32.7,13.1-47,24.3c-6.9,5.4-11.7,10.7-14.4,13.8c16.6-2.5,34.1-5.7,52.5-10c25.6-5.9,49.1-12.7,70.2-19.9
			c-7.6-30.6-15.1-61.2-22.7-91.8C1119.8,997,1109.1,1002.8,1098.4,1008.5z"/>
		<path id="XMLID_3104_" d="M1014,640.4c-1.7,2.6-3.9,6.8-4.4,12.1c-1,12.2,8.3,20.1,14.7,31.6
			c5.2,9.3,7.1,18.9,11,38.2c4.7,23.5,2.9,32.7,5.5,79.4c0.6,10.8,1.2,19.4,2.5,36.6c1.8,23.5,4.2,55.7,7.4,82.8
			c2.9,23.9,8.1,57.5,18.2,98.4c11.1,0.7,25.8,0.6,42.6-2.8c21.8-4.3,38.7-12.4,49.8-18.8c-1.3-7-3.5-19-6.1-33.7
			c-14.3-83.2-20.7-149.2-24.6-190.1c-2.1-21.7-3.1-32.5-3.6-42.4c-1.2-23.2-0.5-35-3.3-55.6c-1.6-12-3.7-21.6-5.2-27.9
			C1083.8,645.6,1048.9,643,1014,640.4z" style="fill:#FFFFFF;"/>
		<path id="XMLID_3111_" d="M1061.8,643.5c5.4,11.5,13.4,29.5,20.9,52.1c14.1,42.7,21,84.9,26.1,212.3
			c1.1,27.4,2.3,63.7,3,106.5c8.3-1.3,18.3-3.5,29.1-7.4c7.7-2.8,14.4-5.9,20.1-8.9c-1.6-9.2-4-23.2-6.7-40.2
			c-7.4-46.3-19.4-122.1-26.8-217.5c-1.7-22.2-3.8-53-5.2-90.1C1102,648,1081.9,645.7,1061.8,643.5z" style="opacity:0.1;fill:#606060;"/>
		<g id="XMLID_1732_">
			<g id="XMLID_1807_">
				<path id="XMLID_1812_" d="M1017.2,681c15.3,12.7,17.5,33.7,18.8,52.2c1.6,23.3,2.8,46.6,4.1,69.9
					c2.6,46,5.5,92.1,12,137.7c3.7,26.2,8.7,52.1,15.3,77.7c0.5,1.9,3.4,1.1,2.9-0.8c-24.3-93.5-24.6-190.2-31.4-285.9
					c-1.3-18.9-4.1-40.1-19.6-52.9C1017.8,677.7,1015.7,679.8,1017.2,681L1017.2,681z" style="fill:#161616;"/>
			</g>
		</g>
		<g id="XMLID_1744_">
			<g id="XMLID_1815_">
				<path id="XMLID_1820_" d="M1068.8,1019.9c18.4,1.4,36.9-0.1,54.8-4.7c8.5-2.2,16.9-5,25-8.6
					c5.5-2.4,13.9-4.7,14.7-11.6c0.2-1.9-2.8-1.9-3,0c-0.5,4.2-7.5,6.5-10.7,7.9c-4,1.8-8,3.4-12.1,4.9c-7.1,2.5-14.3,4.5-21.6,6.1
					c-15.5,3.2-31.3,4.2-47,3C1066.9,1016.8,1066.9,1019.8,1068.8,1019.9L1068.8,1019.9z" style="fill:#161616;"/>
			</g>
		</g>
		<g id="XMLID_1756_">
			<g id="XMLID_1823_">
				<path id="XMLID_1828_" d="M1121,658.1c5,87.9,13.8,175.5,26.3,262.6c3.6,24.7,7.4,49.3,11.6,73.9
					c0.3,1.9,3.2,1.1,2.9-0.8c-14.6-86.5-25.5-173.7-32.6-261.1c-2-24.8-3.7-49.7-5.2-74.6C1123.9,656.1,1120.9,656.1,1121,658.1
					L1121,658.1z" style="fill:#161616;"/>
			</g>
		</g>
		<g id="XMLID_1764_">
			<g id="XMLID_1832_">
				<path id="XMLID_1836_" d="M1099.6,1018.4c4.5,15.4,9,30.8,13.5,46.2c0.2-0.6,0.5-1.1,0.7-1.7
					c-15.7,7.3-31.3,15-46.6,23.1c-13.1,6.9-28,13.5-37.4,25.4c-1,1.2-0.1,2.7,1.5,2.5c41.5-5.8,82.3-15.5,122-29.1
					c0.8-0.3,1.2-1,1-1.8c-5.6-24.6-11.3-49.2-16.9-73.8c-0.4-1.9-3.3-1.1-2.9,0.8c5.6,24.6,11.3,49.2,16.9,73.8
					c0.3-0.6,0.7-1.2,1-1.8c-39.6,13.6-80.5,23.4-122,29.1c0.5,0.8,1,1.7,1.5,2.5c9.5-12.2,25.1-18.8,38.5-25.9
					c14.8-7.8,29.7-15.2,44.9-22.2c0.6-0.3,0.9-1.1,0.7-1.7c-4.5-15.4-9-30.8-13.5-46.2C1102,1015.8,1099.1,1016.5,1099.6,1018.4
					L1099.6,1018.4z" style="fill:#161616;"/>
			</g>
		</g>
	</g>
	<g id="coat_left">
		<path id="XMLID_3077_" d="M1088,353.1c-1.1,3.4-2.6,8.3-4.3,14.3c-4.1,14.5-9.2,35-14.3,68.1c-2.6,16.7-7,46-9.1,85.7
			c-0.5,9.6-1.4,30,1,109.1c1.5,51.3,2.3,77,3.8,98.6c3.4,48.1,8.6,88.9,13.3,126.7c2.5,19.4,4.7,35.4,6.2,46.2
			c7.9,0.9,18.8,1.5,31.4,0c6.9-0.8,36.7-4.8,67.2-26.7c7-5,15.8-12.2,24.8-22.4c-4.7-14-11.1-34.1-17.6-58.6
			c-4.3-15.9-18-68.4-31-167.2c-4.5-34.4-3.6-33.9-14.8-135.3c-4.4-39.8-8.1-72.3-10.5-93.4c-0.5-5-2.2-15.6-10-25.7
			C1111.2,355.7,1091.7,353.4,1088,353.1z" style="fill:#FFFFFF;"/>
		<path id="XMLID_3090_" d="M1115.6,365.5c2.5,9.7,5.9,24.2,9.1,41.9c8.9,49.3,8,78.8,10,117.7
			c3.6,70.5,11.2,65.4,18.1,157.2c3.2,42,4.8,64.7,3.3,96.2c-2.3,49.9-11,90.8-18.6,119.1c9.1-2.8,20.2-7.1,31.9-13.8
			c17.1-9.8,29.5-21.1,37.6-30c-2.3-7.3-5.7-18.2-9.5-31.4c-11.9-41.7-23.3-91.3-36.2-186.7c-7.7-56.7-6-56.8-17.1-147.2
			c-5.3-43.2-10.1-78.6-13.3-102.4c-1.8-3.8-4.4-8.2-8.1-12.9C1120.4,370,1117.9,367.5,1115.6,365.5z" style="opacity:0.12;fill:#606060;"/>
		<g id="XMLID_1362_">
			<g id="XMLID_1435_">
				<path id="XMLID_1439_" d="M1086.3,353.2c-16.5,48.9-23.3,100.3-25.7,151.7c-2.5,54-1.1,108.3,0.4,162.3
					c0.9,31.6,2.1,63.1,3.5,94.7c0.1,1.9,3.1,1.9,3,0c-2.6-55.8-4.3-111.6-5-167.4c-0.6-52-0.3-104.2,6.9-155.7
					c4.1-28.7,10.3-57.1,19.7-84.6C1089.8,352.2,1086.9,351.4,1086.3,353.2L1086.3,353.2z" style="fill:#161616;"/>
			</g>
		</g>
		<g id="XMLID_1372_">
			<g id="XMLID_1443_">
				<path id="XMLID_1448_" d="M1089.4,355.2c11.9,3.5,23.6,7.4,31.5,17.4c6.7,8.3,10,18.8,12.1,29.2
					c2.5,12.1,3.5,24.6,4.7,36.9c1.4,14,2.8,28.1,4.1,42.2c5.2,55.2,11.5,110.4,19.6,165.3c4.6,31.4,9.7,62.7,15.3,94
					c0.3,1.9,3.2,1.1,2.9-0.8c-10.4-57.9-19-116-26-174.4c-3.4-29-6.4-58-9.1-87c-1.4-14.7-2.8-29.4-4.3-44.1
					c-1.2-11.4-2.2-23-4.6-34.3c-2.3-10.8-6.2-21.6-13.5-30.1c-8.3-9.7-20.1-13.7-32-17.1C1088.3,351.8,1087.5,354.7,1089.4,355.2
					L1089.4,355.2z" style="fill:#161616;"/>
			</g>
		</g>
		<g id="XMLID_1380_">
			<g id="XMLID_1451_">
				<path id="XMLID_1456_" d="M1063.4,741.1c3.3,54,10.1,107.7,20.2,160.8c0.4,1.9,3.3,1.1,2.9-0.8
					c-10.1-52.9-16.8-106.3-20.1-160C1066.3,739.1,1063.3,739.1,1063.4,741.1L1063.4,741.1z" style="fill:#161616;"/>
			</g>
		</g>
		<g id="XMLID_1392_">
			<g id="XMLID_1459_">
				<path id="XMLID_1464_" d="M1085.6,904.8c45.3,2.6,90.7-15.5,121.7-48.7c1.3-1.4-0.8-3.5-2.1-2.1
					c-30.5,32.6-75,50.4-119.6,47.8C1083.7,901.7,1083.7,904.7,1085.6,904.8L1085.6,904.8z" style="fill:#161616;"/>
			</g>
		</g>
		<g id="XMLID_1400_">
			<g id="XMLID_1467_">
				<path id="XMLID_1472_" d="M1175.1,732.4c8.2,41.3,18.6,82.1,30.9,122.3c0.6,1.8,3.5,1.1,2.9-0.8
					c-12.4-40.2-22.7-81-30.9-122.3C1177.6,729.7,1174.7,730.5,1175.1,732.4L1175.1,732.4z" style="fill:#161616;"/>
			</g>
		</g>
		<g id="XMLID_1408_">
			<g id="XMLID_1476_">
				<path id="XMLID_1480_" d="M1088.3,668c-0.8,13.6,0.1,27.2,2.9,40.5c2.5,11.6,6,24.2,12.5,34.3
					c5.7,8.8,14.3,14.2,25,13.4c7.9-0.6,17.5-4.8,17.7-13.9c0.1-1.9-2.9-1.9-3,0c-0.3,11.5-18.1,12.5-25.8,9.3
					c-9-3.8-13.7-13.3-17-21.9c-7.6-19.6-10.6-40.7-9.3-61.6C1091.4,666.1,1088.4,666.1,1088.3,668L1088.3,668z" style="fill:#161616;"/>
			</g>
		</g>
		<g id="XMLID_1416_">
			<g id="XMLID_1484_">
				<path id="XMLID_1488_" d="M1094.7,669.6c6.5,9.2,14.9,17.1,25.5,21.4c5.2,2.1,10.9,3.4,16.5,3.5
					c3.8,0.1,9.1,0.3,11.2-3.5c0.9-1.7-1.7-3.2-2.6-1.5c-2.1,3.8-12.7,1.9-15.9,1.3c-4.4-0.9-8.6-2.4-12.6-4.6
					c-7.9-4.3-14.4-10.7-19.5-18C1096.2,666.5,1093.6,668,1094.7,669.6L1094.7,669.6z" style="fill:#161616;"/>
			</g>
		</g>
		<g id="XMLID_1424_">
			<g id="XMLID_1493_">
				<path id="XMLID_1498_" d="M1096.8,660.8c8.7,9.9,20.4,16.4,33.4,18.6c1.9,0.3,2.7-2.6,0.8-2.9
					c-12.6-2.1-23.7-8.3-32.1-17.8C1097.7,657.2,1095.6,659.3,1096.8,660.8L1096.8,660.8z" style="fill:#161616;"/>
			</g>
		</g>
		<g id="XMLID_1432_">
			<g id="XMLID_1501_">
				<path id="XMLID_1506_" d="M1087.7,353.8c1.5,5.4,7.1,6.6,10.4,10.6c4.8,5.9,3.4,14.6,1.7,21.4
					c-2,7.8-4.8,15.4-7.7,22.9c-2.7,7.3-7.4,14.9-8.7,22.7c-1.2,7.1,3.7,13,3.8,20c0,8.9-3.9,18.3-6,26.9c-4.2,17-8,34-11.3,51.2
					c-3.8,19.7-7.1,39.5-9.8,59.4c-0.3,1.9,2.6,2.7,2.9,0.8c4.9-35.9,11.6-71.6,20.2-106.8c2.1-8.6,4.8-17.1,6.4-25.8
					c0.6-3.1,0.9-6.4,0.4-9.5c-0.6-3.7-2.5-7-3.4-10.7c-1.1-4.8,1-9.1,2.8-13.4c1.7-4,3.3-8.1,4.9-12.2c3-7.9,5.9-15.9,8.1-24
					c1.7-6.3,2.9-13.5,0.7-19.8c-0.9-2.5-2.3-4.7-4.2-6.5c-2.8-2.6-7.3-4-8.4-8C1090.1,351.1,1087.2,351.9,1087.7,353.8
					L1087.7,353.8z" style="fill:#161616;"/>
			</g>
		</g>
	</g>
	<g id="coat_right">
		<path id="XMLID_3063_" d="M1018.5,372.1c-3.1,2.5-8.8,7.1-12.9,11.9c-3.3,3.9-5.9,8.2-9.5,17.1
			c-5.4,13.4-7.8,23.9-10,32.9c-4.7,19.1-5,17-9.5,35.2c-5.7,22.7-9.1,41.6-13.8,69.1c-7.6,44.7-11.4,67-13.8,85.7
			c-2,15.3-9.9,79.3-10,165.8c0,26.9,0.7,49.5,1.4,65.7c2.4,1.2,5.1,2.4,8.1,3.3c9.4,3,17.9,3,23.8,2.4c-0.1-17.4,0-43.3,1-74.8
			c0.9-27.6,2-47,2.9-62.4c1.6-29.6,3.6-72,4.8-126.2c0.7-7.9,1.8-19.2,3.3-32.9c3.8-33.9,6.4-57.8,12.4-86.7
			c1.6-7.5,5.5-23,13.3-53.8c6.1-24,11.2-43.7,14.8-57.2C1023.1,368.5,1021,370.1,1018.5,372.1z" style="fill:#FFFFFF;"/>
		<g id="XMLID_1441_">
			<g id="XMLID_1509_">
				<path id="XMLID_1514_" d="M1023.8,367.1c-34.2,107.1-46.8,219.3-54.2,331c-2.1,32.1-3.8,64.2-5.4,96.3
					c-0.1,1.9,2.9,1.9,3,0c5.8-112.3,11.9-225.3,35.5-335.6c6.6-30.7,14.5-61.1,24-91C1027.3,366.1,1024.4,365.3,1023.8,367.1
					L1023.8,367.1z" style="fill:#161616;"/>
			</g>
		</g>
		<g id="XMLID_1449_">
			<g id="XMLID_1517_">
				<path id="XMLID_1522_" d="M1023.9,366.2c-21.8,12.8-31.2,37.4-37.7,60.6c-8.8,31.5-15.8,63.6-22.1,95.8
					c-12.7,65.5-20.9,131.9-24.5,198.5c-2,37.9-2.5,75.9-1.6,113.8c0,1.9,3,1.9,3,0c-1.6-65.3,1.1-130.7,8.3-195.6
					c7.2-65.1,18.9-129.7,34.9-193.2c7-27.9,14.3-61.6,41.1-77.3C1027.1,367.8,1025.6,365.2,1023.9,366.2L1023.9,366.2z" style="fill:#161616;"/>
			</g>
		</g>
		<g id="XMLID_1457_">
			<g id="XMLID_1526_">
				<path id="XMLID_1530_" d="M937.8,829c0.1,6.4,0.1,12.8,0.2,19.3c0,3.7-0.6,8.4,2.3,11.2c2.6,2.5,6.9,2.6,10.3,3
					c6.5,0.8,13.1,1.2,19.7,1.3c1.9,0,1.9-3,0-3c-4.6,0-9.2-0.2-13.8-0.6c-2.5-0.2-5-0.5-7.4-0.9c-3.3-0.5-4.1-0.3-6.2-3.2
					c-2.8-3.8-1.8-9-1.9-13.6c0-4.5-0.1-9-0.1-13.5C940.8,827.1,937.8,827.1,937.8,829L937.8,829z" style="fill:#161616;"/>
			</g>
		</g>
		<g id="XMLID_1465_">
			<g id="XMLID_1534_">
				<path id="XMLID_1538_" d="M1020,369.8c-11.2,6.8-16.6,19.4-17.6,32.1c-0.4,5.3,0.4,10.7-0.7,15.9
					c-0.9,4.3-2.9,8.2-4.7,12.2c-3.5,7.9-6.1,16.2-8,24.7c-3.7,16.9-4.7,34.3-5.4,51.6c-0.9,20.2-1.8,40.3-2.7,60.5
					c-0.1,1.9,2.9,1.9,3,0c0.8-18.6,1.6-37.2,2.5-55.9c0.8-17.4,1.5-34.9,4.8-52c1.6-8.1,3.8-16,6.8-23.7c2.9-7.3,6.7-13.8,7.1-21.9
					c0.4-7.9-0.1-15.3,2.5-23c2.5-7.5,7-13.9,13.8-18C1023.2,371.4,1021.6,368.8,1020,369.8L1020,369.8z" style="fill:#161616;"/>
			</g>
		</g>
	</g>
	<g id="hand_left">
		<path id="XMLID_3042_" d="M1122,369.2c-2.8,8.3-5.8,19.6-6.7,33.4c-1,15.3,0.8,28.2,2.8,37.3c3.1,2.3,7.7,6.4,11,12.8
			c3.5,6.9,4.4,14.2,3.2,25.9c-1.7,16.9-3.7,35.9-17.7,54.6c-10.7,14.3-23.8,22.1-31.9,27c-6,3.6-11.4,6.1-15.3,7.8
			c5.3,7.4,5.6,9.6,5,10.3c-1.1,1.2-5-2.4-11.7-4.3c-9.6-2.6-11.7,2-20.2,0c-9.3-2.2-9.5-8.3-19.5-9.9c-2.7-0.4-10.1-1.6-12.8,2.5
			c-2,3.1-0.9,8.3,2.8,12.8c-1.2,0.1-3.1,0.2-5.3,0c-2.9-0.3-3.9-0.8-5.3-0.4c-1.2,0.4-2.7,1.5-3.9,5c-4.2-2-8.2-0.7-8.9,1.1
			c-0.7,1.7,1.1,5,5,6.7c-0.8,0.9-1.7,2.2-1.4,3.5c0.4,1.9,3.2,2.7,7.1,3.5c7.5,1.6,11.5,1.2,16,1.8c6.9,0.9,7.6,2.9,14.9,5
			c9.6,2.7,17.7,1.6,22.4,1.1c14.3-1.8,24.7-8.1,30.2-12.1c1.9,5.6,3.8,11.1,5.7,16.7c7.2-1,18.2-3.4,30.2-9.9
			c12.8-7,20.5-15.3,25.9-21.3c12.9-14.2,19.9-29.1,23.8-40.1c3.1-8.7,4.2-15.3,5.7-23.8c2.3-13.5,5.1-29.4,3.2-49
			c-0.7-6.7-3.6-31.3-19.5-58.2C1145.1,389.9,1131.7,377,1122,369.2z" style="fill:#FFFFFF;"/>
		<path id="XMLID_3049_" d="M1124.8,373.4c6.6,8,15.2,20,22.4,35.8c3.9,8.6,14.5,34.1,14.2,68.8
			c-0.2,24.7-0.5,55.2-22.4,80.9c-19.1,22.4-44.9,29.5-57.8,31.9c-8.6,1-18.5,1.6-29.4,1.1c-21.3-1-39.1-5.6-52.2-10.3
			c-7.2,0.4-9.2,1.9-9.6,3.2c-0.5,1.5,1.1,2.7,1.1,6c0,2.7-1.1,3.3-0.7,4.6c0.6,2.1,4.2,3.1,11,3.9c10.5,1.3,13.1,0.5,18.8,1.8
			c6.1,1.4,5.9,3,11.4,4.6c9.7,2.9,18.4,0.5,31.6-3.2c4.7-1.3,11.2-3.4,18.8-6.7c1.8,4.8,3.5,9.7,5.3,14.5
			c8.7-1.5,22.2-4.9,36.2-13.8c14.2-9,22.2-19.4,26.6-25.2c10.8-14.2,15.5-27.3,18.1-34.8c8.6-24.7,8.1-45.4,7.8-56.4
			c-0.4-13.7-1.1-34.1-11.7-57.5C1152.9,397.9,1136,382.1,1124.8,373.4z" style="opacity:0.12;fill:#606060;"/>
		<g id="XMLID_1473_">
			<g id="XMLID_1542_">
				<path id="XMLID_1547_" d="M1116.4,367.7c32.6,22.2,53,58,56.8,97.1c3.9,40.5-3.8,85.2-32.6,115.7
					c-14.4,15.2-33,26.1-53.8,29.3c-1.9,0.3-1.1,3.2,0.8,2.9c39.6-6.1,69.2-38.3,81.4-75.1c13.1-39.4,11.7-87.3-7.9-124.3
					c-10.2-19.3-25.1-35.9-43.2-48.2C1116.3,364,1114.8,366.6,1116.4,367.7L1116.4,367.7z" style="fill:#161616;"/>
			</g>
		</g>
		<g id="XMLID_1481_">
			<g id="XMLID_1550_">
				<path id="XMLID_1555_" d="M1117.8,442.2c9.7,5.5,11.8,16.8,13.4,27c0.3,1.9,3.2,1.1,2.9-0.8
					c-1.8-11-4.3-22.8-14.8-28.8C1117.6,438.7,1116.1,441.3,1117.8,442.2L1117.8,442.2z" style="fill:#161616;"/>
			</g>
		</g>
		<g id="XMLID_1491_">
			<g id="XMLID_1558_">
				<path id="XMLID_1563_" d="M1132.2,453.6c-0.2,32.3-8.8,63.9-25,91.9c-1,1.7,1.6,3.2,2.6,1.5
					c16.5-28.4,25.2-60.6,25.4-93.4C1135.2,451.7,1132.2,451.7,1132.2,453.6L1132.2,453.6z" style="fill:#161616;"/>
			</g>
		</g>
		<g id="XMLID_1499_">
			<g id="XMLID_1566_">
				<path id="XMLID_1571_" d="M1115.1,527.5c-3.3,10.1-12.8,16.5-21,22.4c-8.6,6.1-17.6,11.6-26.9,16.5
					c-1.7,0.9-0.2,3.5,1.5,2.6c10.9-5.8,21.4-12.3,31.2-19.7c7.6-5.7,15-11.8,18-21C1118.6,526.5,1115.7,525.7,1115.1,527.5
					L1115.1,527.5z" style="fill:#161616;"/>
			</g>
		</g>
		<g id="XMLID_1507_">
			<g id="XMLID_1575_">
				<path id="XMLID_1579_" d="M1066.3,568.9c6.2,14.4,15.9,27.3,19.1,42.8c0.4,1.9,3.3,1.1,2.9-0.8
					c-3.3-15.8-13.1-28.9-19.4-43.5C1068.1,565.7,1065.5,567.2,1066.3,568.9L1066.3,568.9z" style="fill:#161616;"/>
			</g>
		</g>
		<g id="XMLID_1515_">
			<g id="XMLID_1583_">
				<path id="XMLID_1587_" d="M1072.1,578.2c-7.7-7.2-16.4-8.2-26.4-6.9c-7.4,1-11.8-1.8-17.8-5.5c-4-2.4-8.3-4-13-4
					c-7.4,0-11.7,5.2-8.2,12.3c4.1,8.5,15.2,11.2,23.6,12.6c1.9,0.3,2.7-2.6,0.8-2.9c-7.4-1.3-16.9-3.2-21.2-10.1
					c-0.9-1.5-2-4.4-1.3-6.1c1.5-3.6,6.9-3.1,9.8-2.5c3.7,0.7,6.8,2.6,9.9,4.5c5.3,3.4,10,5.6,16.4,4.8c9.7-1.1,17.7-1.2,25.3,5.9
					C1071.3,581.6,1073.5,579.5,1072.1,578.2L1072.1,578.2z" style="fill:#161616;"/>
			</g>
		</g>
		<g id="XMLID_1523_">
			<g id="XMLID_1591_">
				<path id="XMLID_1596_" d="M995.1,584.7c7.4,8.6,18.3,12.4,29.4,10.8c1.9-0.3,1.1-3.2-0.8-2.9
					c-10.1,1.5-19.9-2.4-26.4-10C995.9,581.2,993.8,583.3,995.1,584.7L995.1,584.7z" style="fill:#161616;"/>
			</g>
		</g>
		<g id="XMLID_1531_">
			<g id="XMLID_1599_">
				<path id="XMLID_1604_" d="M987,586.2c3.4,9.3,12.9,11.9,21.9,12.6c1.9,0.2,1.9-2.9,0-3c-7.4-0.6-16.1-2.4-19-10.4
					C989.3,583.6,986.4,584.4,987,586.2L987,586.2z" style="fill:#161616;"/>
			</g>
		</g>
		<g id="XMLID_1540_">
			<g id="XMLID_1607_">
				<path id="XMLID_1612_" d="M988.7,593.3c2.7,6.3,9.4,8.2,15.7,8.5c4.8,0.3,9.5,0,14.3,1.3c4.4,1.1,8.6,3,12.9,4.3
					c17.2,5.2,33.5-2.2,48.6-10.1c1.7-0.9,0.2-3.5-1.5-2.6c-14.4,7.4-29.9,14.7-46.3,9.8c-6.1-1.8-11.9-4.6-18.3-5.3
					c-7.8-0.9-19,1.6-22.8-7.4C990.5,590.1,987.9,591.6,988.7,593.3L988.7,593.3z" style="fill:#161616;"/>
			</g>
		</g>
		<g id="XMLID_1548_">
			<g id="XMLID_1615_">
				<path id="XMLID_1620_" d="M997.9,582.2c-0.1,0,2.6-1.1,2.7-1.2c1.2-0.3,2.5-0.5,3.7-0.5c2.3-0.1,4.6,0.5,6.7,1.3
					c1.8,0.7,2.6-2.2,0.8-2.9c-4.5-1.7-9.8-2-14.2-0.1c-2.3,1-4.7,4.5-1.3,6C998.2,585.6,999.7,583,997.9,582.2L997.9,582.2z" style="fill:#161616;"/>
			</g>
		</g>
		<g id="XMLID_1556_">
			<g id="XMLID_1624_">
				<path id="XMLID_1628_" d="M989.7,586.1c-0.9-1.6,3.3-1,3.8-1c1.5,0.1,2.8,0,4.2-0.7c1.7-0.9,0.2-3.5-1.5-2.6
					c-2.3,1.2-5.2-0.7-7.6,0.8c-1.8,1-2.5,3.2-1.5,5C988.1,589.2,990.7,587.7,989.7,586.1L989.7,586.1z" style="fill:#161616;"/>
			</g>
		</g>
	</g>
	<g id="hand_right">
		<path id="XMLID_3000_" d="M1003.1,389.1c-5.2,4.4-12.3,11.1-19.2,20.6c-3.1,4.3-5.1,7.5-7.6,11.6
			c-4,6.7-11,18.2-17,34.5c-2.3,6.1-4.9,14.3-7.2,24.2c-4,3-8.1,6-12.1,9c-2.2,0.9-8.8,3.8-13.4,11.2c-4.7,7.6-4.3,15.1-4,17.5
			c-4.5,0.8-9.2,1.6-13.9,2.2c-22.6,3.2-43.9,4.3-63.6,4c7.8,9.1,15.5,18.2,23.3,27.3c-2.4,2.2-4.8,4.5-7.2,6.7
			c4.3,5.8,8.7,11.6,13,17.5c5.7-0.7,11.3-1.5,17-2.2c8.8,10.6,17.6,21.2,26.4,31.8c15.1-1.8,27.7-4.4,37.1-6.7
			c29.2-7,50.6-16.4,60.4-21c8.2-3.8,14.8-7.4,19.2-9.8c-2.5-6.5-5-11.5-6.7-14.8c-5-9.4-15-27.7-34.9-40.3c-3.8-2.4-7.1-4-9-4.9
			c-0.5-13.6,0.6-24.8,1.8-32.7c3.1-20.8,9.9-39.6,10.7-42.1c2.5-7,4-9.8,5.4-16.1C1004.3,405.3,1003.9,395.6,1003.1,389.1z" style="fill:#FFFFFF;"/>
		<path id="XMLID_3035_" d="M994.4,399.2c-6.1,11.7-12.5,25.6-18,41.8c-5.2,15.1-8.7,29.1-11.1,41.5
			c-3.5-0.9-7.3,0.2-9.8,2.8c-2.5,2.7-3.4,6.6-2.2,10.1c-3.1,0.5-8.6,1.8-13.6,6c-11.7,9.8-9.7,26.1-9.5,27.5
			c-4.4,0.5-9.1,1.2-13.9,2.2c-19.8,4.2-35.8,11.9-47.8,19.3c-7.5-8.9-15-17.7-22.5-26.6c24.5-1.7,48.9-3.4,73.4-5.1
			c0.6-3.4,2-8.2,5.1-13.3c5.4-8.9,12.8-13.3,16.5-15.2c0.7-1.4,1.5-2.7,2.2-4.1c2.7-2.1,5.5-4.2,8.2-6.3c1.6-7.9,3.4-14.2,4.7-18.4
			c3.9-12.2,10.9-33.7,28.8-53.2C988.9,404.1,992.3,401,994.4,399.2z" style="opacity:0.11;fill:#606060;"/>
		<g id="XMLID_1564_">
			<g id="XMLID_1632_">
				<path id="XMLID_1636_" d="M1003.6,386.3c-26.8,24.4-45.4,57-52.6,92.6c-0.4,1.9,2.5,2.7,2.9,0.8
					c7.1-35.1,25.3-67.2,51.8-91.3C1007.1,387.1,1005,385,1003.6,386.3L1003.6,386.3z" style="fill:#161616;"/>
			</g>
		</g>
		<g id="XMLID_1572_">
			<g id="XMLID_1640_">
				<path id="XMLID_1645_" d="M945.1,487.7c-7.8-0.5-13.5,5.1-17.9,11c-5.3,7.1-7,15.6-6,24.4c0.6,5.1,4.5,13,11,10.5
					c3-1.2,4.4-4.6,5.7-7.3c2-4.3,3.8-8.7,5.5-13.1c0.7-1.8-2.2-2.6-2.9-0.8c-1.1,2.8-2.2,5.7-3.4,8.5c-0.9,2-1.7,5.2-3.1,6.7
					c-0.2,0.4-0.5,0.8-0.7,1.2c-2.5-0.2-5-0.5-7.5-0.7c-1.1-1-1.4-3.7-1.6-5.1c-0.3-2.5-0.2-5-0.1-7.5c0.7-10.2,8.8-25.4,20.9-24.7
					C947.1,490.8,947.1,487.8,945.1,487.7L945.1,487.7z" style="fill:#161616;"/>
			</g>
		</g>
		<g id="XMLID_1580_">
			<g id="XMLID_1648_">
				<path id="XMLID_1653_" d="M940.7,489.9c6.8-2.6,13.1,9.6,14.6,14.6c0.6,1.8,3.5,1.1,2.9-0.8
					c-2-6.6-9.5-20-18.3-16.7C938.1,487.7,938.9,490.6,940.7,489.9L940.7,489.9z" style="fill:#161616;"/>
			</g>
		</g>
		<g id="XMLID_1589_">
			<g id="XMLID_1656_">
				<path id="XMLID_1665_" d="M942.2,488.5c6.5-4.1,14.6-8.7,21.8-3.4c1.6,1.1,3.1-1.5,1.5-2.6
					c-8.1-6-17.4-1.3-24.8,3.4C939,487,940.5,489.6,942.2,488.5L942.2,488.5z" style="fill:#161616;"/>
			</g>
		</g>
		<g id="XMLID_1597_">
			<g id="XMLID_1668_">
				<path id="XMLID_1673_" d="M943.9,514.2c5.3,0.1,10-2.5,12.9-6.9c1.1-1.6-1.5-3.1-2.6-1.5c-2.3,3.5-6.1,5.5-10.3,5.4
					C941.9,511.1,941.9,514.1,943.9,514.2L943.9,514.2z" style="fill:#161616;"/>
			</g>
		</g>
		<g id="XMLID_1605_">
			<g id="XMLID_1677_">
				<path id="XMLID_1681_" d="M844.2,524.8c7.6,9.2,15.1,18.3,22.7,27.5c1.2,1.5,3.3-0.6,2.1-2.1
					c-7.6-9.2-15.1-18.3-22.7-27.5C845,521.2,842.9,523.4,844.2,524.8L844.2,524.8z" style="fill:#161616;"/>
			</g>
		</g>
		<g id="XMLID_1613_">
			<g id="XMLID_1685_">
				<path id="XMLID_1689_" d="M845.3,524.5c24.6,0.9,49.2-0.5,73.5-4.4c1.9-0.3,1.1-3.2-0.8-2.9
					c-24.1,3.8-48.4,5.2-72.7,4.3C843.4,521.4,843.4,524.4,845.3,524.5L845.3,524.5z" style="fill:#161616;"/>
			</g>
		</g>
		<g id="XMLID_1621_">
			<g id="XMLID_1694_">
				<path id="XMLID_1699_" d="M944.4,515.8c9.6-3.1,19.3-7.1,29.1-9.4c6.3-1.5,9.7,1.6,14.4,5.2c4,3.1,7.9,6.4,11.7,9.8
					c13.5,12.4,24.9,26.8,34,42.8c1,1.7,3.5,0.2,2.6-1.5c-10-17.6-22.9-33.4-38.1-46.7c-3.4-3-7-5.8-10.6-8.5
					c-3.2-2.4-6.5-5.3-10.7-5c-5,0.3-10.3,2.9-15,4.5c-6.1,1.9-12.1,3.9-18.2,5.8C941.8,513.5,942.6,516.4,944.4,515.8L944.4,515.8z
					" style="fill:#161616;"/>
			</g>
		</g>
		<g id="XMLID_1629_">
			<g id="XMLID_1702_">
				<path id="XMLID_1707_" d="M859.5,555.8c3.2,8,8,14.9,14.6,20.4c1.5,1.2,3.6-0.9,2.1-2.1
					c-6.1-5.2-10.8-11.6-13.8-19.1C861.7,553.2,858.8,554,859.5,555.8L859.5,555.8z" style="fill:#161616;"/>
			</g>
		</g>
		<g id="XMLID_1638_">
			<g id="XMLID_1710_">
				<path id="XMLID_1715_" d="M862.7,557.7c2.7-1.6,5.5-3,8.4-4.1c4.4-1.6,7.3-0.1,10.3,3c1.9,2,3.9,3.9,5.9,5.8
					c0.8,0.7,6.1,4.7,6.2,5.4c0.4-0.5,0.7-1,1.1-1.4c0.3,0.1,0.6,0.2,1,0.3c0.1,0.6,0.2,1.2,0.2,1.8c0-0.1,0.1-0.1,0.1-0.2
					c1.1-1.6-1.5-3.1-2.6-1.5c0,0.1-0.1,0.1-0.1,0.2c-0.3,0.5-0.2,1.4,0.2,1.8c0.6,0.6,1.1,0.8,2,0.5c0.6-0.2,1.1-0.8,1.1-1.4
					c-0.2-2.8-3.8-4.6-5.7-6.3c-3.7-3.4-7-7.8-10.9-10.9c-5.2-4.1-14,1.7-18.7,4.4C859.5,556,861,558.6,862.7,557.7L862.7,557.7z" style="fill:#161616;"/>
			</g>
		</g>
		<g id="XMLID_1646_">
			<g id="XMLID_1718_">
				<path id="XMLID_1723_" d="M875.9,576.9c5.2,0.3,10.9,0.6,16.1-0.5c1.1-0.2,2-0.4,2.7-1.4c0.9-1.4,0.2-3,1-4.4
					c0.9-1.7-1.7-3.2-2.6-1.5c-0.5,0.8-0.4,1.4-0.7,2.3c-0.8,2.4-2.5,2.4-4.9,2.5c-3.9,0.3-7.7,0.2-11.6,0
					C873.9,573.8,873.9,576.8,875.9,576.9L875.9,576.9z" style="fill:#161616;"/>
			</g>
		</g>
		<g id="XMLID_1654_">
			<g id="XMLID_1727_">
				<path id="XMLID_1731_" d="M875.9,576.1c6.5-0.7,12.7-2.1,18.8-4.3c1.8-0.7,1-3.6-0.8-2.9c-5.8,2.2-11.8,3.6-18,4.2
					C874,573.2,873.9,576.3,875.9,576.1L875.9,576.1z" style="fill:#161616;"/>
			</g>
		</g>
		<g id="XMLID_1666_">
			<g id="XMLID_1735_">
				<path id="XMLID_1739_" d="M890,574.8c1.1-0.7,2.4-1.1,3.7-1.2c1.9-0.2,1.9-3.2,0-3c-1.9,0.1-3.6,0.7-5.2,1.6
					C886.8,573.2,888.3,575.8,890,574.8L890,574.8z" style="fill:#161616;"/>
			</g>
		</g>
		<g id="XMLID_1674_">
			<g id="XMLID_1746_">
				<path id="XMLID_1755_" d="M890.4,575.4c7.9,10.3,16.3,20.1,25.4,29.4c1.3,1.4,3.5-0.7,2.1-2.1
					c-8.9-9.1-17.2-18.7-24.9-28.8C891.8,572.4,889.2,573.9,890.4,575.4L890.4,575.4z" style="fill:#161616;"/>
			</g>
		</g>
		<g id="XMLID_1682_">
			<g id="XMLID_1758_">
				<path id="XMLID_1763_" d="M917.9,606.4c23-3.6,45.8-9,68-16.2c10.9-3.6,21.8-7.5,32.4-11.9c6-2.5,18.2-5.2,18-13.5
					c0-1.9-3-1.9-3,0c0.1,5.6-10.2,8.2-14.1,9.8c-4.6,1.9-9.2,3.8-13.9,5.5c-9.6,3.6-19.3,6.9-29.1,9.9
					c-19.4,5.8-39.1,10.3-59.1,13.5C915.2,603.8,916,606.7,917.9,606.4L917.9,606.4z" style="fill:#161616;"/>
			</g>
		</g>
		<g id="XMLID_3007_">
			<g id="XMLID_3085_">
				<path id="XMLID_3089_" d="M893.6,543.8c9.9,13.8,19.8,27.5,29.8,41.3c1.1,1.6,3.7,0.1,2.6-1.5
					c-9.9-13.8-19.8-27.5-29.8-41.3C895.1,540.8,892.5,542.2,893.6,543.8L893.6,543.8z" style="fill:#161616;"/>
			</g>
		</g>
		<g id="XMLID_3014_">
			<g id="XMLID_3092_">
				<path id="XMLID_3096_" d="M915.6,551.9c8.9,13.3,18.6,26,29,38.1c1.3,1.5,3.4-0.7,2.1-2.1
					c-10.3-11.9-19.8-24.4-28.6-37.5C917.1,548.8,914.5,550.3,915.6,551.9L915.6,551.9z" style="fill:#161616;"/>
			</g>
		</g>
		<g id="XMLID_3021_">
			<g id="XMLID_3099_">
				<path id="XMLID_3103_" d="M937,540.5c10.8,14.2,21.7,28.4,32.5,42.6c1.2,1.5,3.8,0,2.6-1.5
					c-10.8-14.2-21.7-28.4-32.5-42.6C938.4,537.5,935.8,538.9,937,540.5L937,540.5z" style="fill:#161616;"/>
			</g>
		</g>
		<g id="XMLID_3028_">
			<g id="XMLID_3106_">
				<path id="XMLID_3110_" d="M959.3,529.3c5.3,6.3,10.3,12.8,15.1,19.5c1.1,1.6,3.7,0.1,2.6-1.5
					c-5-6.9-10.2-13.6-15.6-20.1C960.1,525.7,958,527.8,959.3,529.3L959.3,529.3z" style="fill:#161616;"/>
			</g>
		</g>
	</g>
	<g id="head">
		<path id="XMLID_2972_" d="M971.7,244.9c-0.5,2.7,0,6.3,1.1,13.2c3.1,21,5.3,35.3,14,50.8
			c5.9,10.4,14.7,26.1,32.5,31.5c9.3,2.8,17.6,1.8,22.7,0.8c0.5,2.8,1.4,6.2,2.9,9.8c3.5,8.2,8.7,13.6,12.2,16.7
			c2.4-0.2,9.3-1.3,15.3-6.9c4.2-3.9,6.1-8.2,6.9-10.6c-2.1-2.5-4.7-6.2-6.6-11.1c-3.4-8.4-3.1-16-2.6-20.1
			c1.1-8.5,2.1-16.9,3.2-25.4c1.5,0,4.5-0.3,7.1-2.4c4.7-3.7,5.7-11.1,2.6-16.1c-1.7-2.8-5.8-6.8-10.3-5.6c-3.8,1.1-5.3,5.2-5.6,5.8
			c-0.3-8.2-1.8-21-7.7-35.4c-5.2-12.7-8.9-21.8-17.4-27C1019.7,199.4,976.1,220.4,971.7,244.9z" style="fill:#FFFFFF;"/>
		<g id="XMLID_742_">
			<g id="XMLID_1274_">
				<path id="XMLID_1278_" d="M971.1,252.6c2.8,29.9,11.3,65.2,37,83.9c12.2,8.9,28.2,9.8,41.7,3.3
					c13.6-6.5,22.6-19.9,26.1-34.4c0.4-1.9-2.4-2.7-2.9-0.8c-3.3,13.7-11.7,26.4-24.7,32.6c-14.9,7.1-31.4,4-43.3-7.1
					c-21-19.7-28.4-49.9-31-77.5C974,250.7,971,250.7,971.1,252.6L971.1,252.6z" style="fill:#161616;"/>
			</g>
		</g>
		<g id="XMLID_748_">
			<g id="XMLID_1282_">
				<path id="XMLID_1286_" d="M1040.8,341.9c2.4,10.1,5.5,20.6,15,26.3c1.7,1,3.2-1.6,1.5-2.6
					c-8.8-5.2-11.4-15.2-13.6-24.5C1043.3,339.2,1040.4,340,1040.8,341.9L1040.8,341.9z" style="fill:#161616;"/>
			</g>
		</g>
		<g id="XMLID_754_">
			<g id="XMLID_1290_">
				<path id="XMLID_1295_" d="M1068.1,320.8c1,11.2,2.4,22.8,10.3,31.4c1.3,1.4,3.4-0.7,2.1-2.1c-7.3-8-8.5-19-9.4-29.3
					C1070.9,318.9,1067.9,318.9,1068.1,320.8L1068.1,320.8z" style="fill:#161616;"/>
			</g>
		</g>
		<g id="XMLID_760_">
			<g id="XMLID_1298_">
				<path id="XMLID_1303_" d="M1057.2,369.1c10.5-1.1,19.2-7.8,22.8-17.8c0.7-1.8-2.2-2.6-2.9-0.8
					c-3.1,8.6-10.9,14.6-19.9,15.6C1055.3,366.3,1055.3,369.3,1057.2,369.1L1057.2,369.1z" style="fill:#161616;"/>
			</g>
		</g>
		<g id="XMLID_766_">
			<g id="XMLID_1306_">
				<path id="XMLID_1311_" d="M1069,276.4c0.1-4.7,4.9-7.1,8.9-5c2.5,1.3,3.9,3.7,4.4,6.3c0.9,4.3-1.9,16.3-8.8,13.4
					c-1.8-0.7-3.3,1.8-1.5,2.6c10.4,4.5,15.9-11.9,12.4-19.4c-4-8.7-18.2-9-18.5,2.1C1066,278.4,1069,278.4,1069,276.4L1069,276.4z" style="fill:#161616;"/>
			</g>
		</g>
		<g id="XMLID_767_">
			<g id="XMLID_1314_">
				<path id="XMLID_1319_" d="M1000.8,261.5c-2,9.2-3.5,18.6-4,28.1c-0.1,2.5-0.4,4.2,1.5,6c2.7,2.5,7.5,3.6,11,4.3
					c1.9,0.4,2.7-2.5,0.8-2.9c-2.8-0.5-7.5-1.2-9.5-3.4c-2.1-2.3-0.6-7.7-0.3-10.5c0.7-7,1.9-13.9,3.4-20.8
					C1004.1,260.4,1001.2,259.6,1000.8,261.5L1000.8,261.5z" style="fill:#161616;"/>
			</g>
		</g>
		<g id="XMLID_769_">
			<g id="XMLID_1323_">
				<path id="XMLID_1327_" d="M978.1,266.8c4.9,2.8,10.7,2.6,15.4-0.4c1.6-1,0.1-3.6-1.5-2.6c-3.8,2.5-8.4,2.6-12.4,0.4
					C977.9,263.3,976.4,265.9,978.1,266.8L978.1,266.8z" style="fill:#161616;"/>
			</g>
		</g>
		<g id="XMLID_771_">
			<g id="XMLID_1331_">
				<path id="XMLID_1335_" d="M1012.4,252.4c4.6-6.5,13.7-5.1,16.8,2c0.8,1.8,3.4,0.2,2.6-1.5c-4.2-9.3-16.2-10.1-22-2
					C1008.7,252.5,1011.3,254,1012.4,252.4L1012.4,252.4z" style="fill:#161616;"/>
			</g>
		</g>
		<g id="XMLID_1271_">
			<g id="XMLID_1339_">
				<path id="XMLID_1344_" d="M983.5,267.4c-1,4.7,0.2,9.3,3.4,12.9c1.3,1.4,3.4-0.7,2.1-2.1c-2.4-2.8-3.4-6.4-2.6-10
					C986.8,266.3,983.9,265.5,983.5,267.4L983.5,267.4z" style="fill:#161616;"/>
			</g>
		</g>
		<g id="XMLID_1279_">
			<g id="XMLID_1347_">
				<path id="XMLID_1352_" d="M986,268.2c1,3.5,1.5,7,1.5,10.6c0,1.9,3,1.9,3,0c0-3.9-0.6-7.6-1.6-11.4
					C988.3,265.6,985.4,266.4,986,268.2L986,268.2z" style="fill:#161616;"/>
			</g>
		</g>
		<g id="XMLID_1288_">
			<g id="XMLID_1355_">
				<path id="XMLID_1361_" d="M985.1,268.5c-0.7,3.3-0.2,6.5,1.5,9.4c1,1.6,3.6,0.1,2.6-1.5c-1.3-2.2-1.8-4.6-1.2-7.1
					C988.4,267.4,985.5,266.6,985.1,268.5L985.1,268.5z" style="fill:#161616;"/>
			</g>
		</g>
		<g id="XMLID_1296_">
			<g id="XMLID_1364_">
				<path id="XMLID_1371_" d="M989.5,280.9c1.1-1.1,1.5-2.6,1.2-4.1c-0.1-0.8-1.1-1.2-1.8-1c-0.8,0.2-1.2,1-1,1.8
					c0-0.2,0,0.3,0,0.4c0-0.2-0.1,0.2-0.1,0.2c-0.1,0.3,0.1-0.1-0.1,0.2c-0.1,0.1-0.1,0.2,0,0.1c-0.1,0.1-0.1,0.2-0.2,0.2
					c-0.6,0.6-0.6,1.6,0,2.1C988,281.5,988.9,281.5,989.5,280.9L989.5,280.9z" style="fill:#161616;"/>
			</g>
		</g>
		<g id="XMLID_1304_">
			<g id="XMLID_1375_">
				<path id="XMLID_1379_" d="M1017.3,261c-1.6,4.3-1.6,8.9,0,13.2c0.7,1.8,3.6,1,2.9-0.8c-1.5-3.8-1.5-7.7,0-11.6
					C1020.9,260,1018,259.2,1017.3,261L1017.3,261z" style="fill:#161616;"/>
			</g>
		</g>
		<g id="XMLID_1312_">
			<g id="XMLID_1383_">
				<path id="XMLID_1387_" d="M1017.6,262.1c0.8,4,1.1,7.9,0.8,12c-0.1,1.9,2.9,1.9,3,0c0.3-4.3,0-8.6-0.9-12.8
					C1020.1,259.4,1017.2,260.2,1017.6,262.1L1017.6,262.1z" style="fill:#161616;"/>
			</g>
		</g>
		<g id="XMLID_1320_">
			<g id="XMLID_1394_">
				<path id="XMLID_1399_" d="M999.1,307.9c6.4-0.5,10.8,4.1,14.7,8.5c1.3,1.4,3.4-0.7,2.1-2.1
					c-4.5-4.9-9.7-9.9-16.8-9.4C997.2,305,997.2,308,999.1,307.9L999.1,307.9z" style="fill:#161616;"/>
			</g>
		</g>
		<g id="XMLID_1328_">
			<g id="XMLID_1402_">
				<path id="XMLID_1407_" d="M1018.1,261.6c0.8,2.4,1.2,4.8,1.3,7.3c0,1,0,2-0.1,2.9c-0.7,1.7-0.4,2,0.9,1
					c0.1-0.5,0.1-0.9,0-1.4c-0.2-1.9-3.2-1.9-3,0c0.1,1.5-0.3,3.2,1.1,4.2c1.1,0.8,2.5,0.6,3.2-0.6c1-1.5,0.9-4.5,0.9-6.2
					c0-2.8-0.5-5.5-1.4-8.1C1020.4,259,1017.5,259.8,1018.1,261.6L1018.1,261.6z" style="fill:#161616;"/>
			</g>
		</g>
		<g id="XMLID_1337_">
			<g id="XMLID_1410_">
				<path id="XMLID_1415_" d="M1043.5,344.2c9.7-1.4,16.4-7.5,21.5-15.5c1-1.6-1.6-3.1-2.6-1.5
					c-4.7,7.5-10.7,12.8-19.7,14.1C1040.8,341.6,1041.6,344.5,1043.5,344.2L1043.5,344.2z" style="fill:#161616;"/>
			</g>
		</g>
		<g id="XMLID_1345_">
			<g id="XMLID_1418_">
				<path id="XMLID_1423_" d="M1043.7,346.4c11.2-1,20.8-13.3,25.5-22.5c0.9-1.7-1.7-3.2-2.6-1.5
					c-4.1,8.1-13,20.1-22.9,21C1041.8,343.5,1041.8,346.5,1043.7,346.4L1043.7,346.4z" style="fill:#161616;"/>
			</g>
		</g>
		<g id="XMLID_1353_">
			<g id="XMLID_1427_">
				<path id="XMLID_1431_" d="M1043.5,347.9c6.7,0.2,11.7-5.5,16.1-9.9c4.4-4.4,9.4-9.3,10.1-15.8c0.2-1.9-2.8-1.9-3,0
					c-0.5,5.5-5.5,10-9.2,13.7c-3.7,3.8-8.3,9.1-14,9C1041.5,344.9,1041.5,347.9,1043.5,347.9L1043.5,347.9z" style="fill:#161616;"/>
			</g>
		</g>
		<path id="XMLID_2979_" d="M972.7,257.2c-3-3.9-9-12.7-8.8-24.3c0.4-22.3,23.4-35.3,26.6-37.1
			c10.5-5.9,17.1-5.2,41.5-9.4c17.2-3,30.9-6.3,39.5-8.5c-3.8,4.3-7.6,8.6-11.4,12.9c5,1.5,10.2,3.2,15.5,5.3
			c14.5,5.5,27.1,12,37.7,18.4c-5.1,1.9-10.1,3.9-15.2,5.8c3.5,1.3,17.4,7,22.8,21c3.5,9.3,1.7,18,0.9,21.6
			c-3.9,17.7-16.7,21.9-15.8,33.9c0.3,3.6,1.9,8.9,8.8,15.2c-4.1-0.4-8.2-0.8-12.3-1.2c1.1,3.5,2.1,7,3.2,10.5
			c-2.9,0.9-8.1,2.1-14.3,1.2c-2.6-0.4-16.2-2.5-20.7-13.7c-2.9-7.3-0.4-14.3,0.6-16.7c2.3,1,5.5,1.9,8.2,0.6
			c6.8-3.3,7.5-19,0.9-23.4c-2.3-1.5-5.9-1.9-9.1-0.6c-3.4,1.5-4.9,4.4-5.3,5.3c-2.9-0.9-7-2.7-10.5-6.4c-10.2-10.7-5.6-27-5.3-28.1
			c-4.1-0.2-10.5-0.9-17.8-3.5c-9.2-3.3-12.2-6.8-19.3-8.2c-4.4-0.8-11.2-1-20.5,3.2c-2.9,1.4-7.1,3.8-11.1,8.2
			C975.2,246.2,973.4,253.7,972.7,257.2z" style="fill:#636363;"/>
		<path id="XMLID_2986_" d="M1037,236.3c5.9,11.8,9.1,22,10.9,29.2c3.1,12.5,8.1,34.5,0.4,59.2
			c-2.1,6.8-4.7,12-6.5,15.2c5.1-2.5,10.2-4.9,15.2-7.4c4.1,10.4,8.1,20.9,12.2,31.3c3.3-3.9,6.7-7.8,10-11.8
			c-2.6-3.4-7.3-10.8-8.7-21.3c-1-7.7,0.2-14,1.3-17.8c2.2,1.3,4.4,2.6,6.5,3.9c2.4,1.5,6.1,3.3,10.9,4.4c6.6,1.4,12.1,0.7,15.2,0
			c-0.9-3.6-1.7-7.3-2.6-10.9c4.2,0.6,8.4,1.2,12.6,1.7c-1.7-1.1-4.9-3.6-7-7.8c-3.4-6.9-1.4-13.5-0.9-15.2c2-6.5,5.8-7.4,10-13.5
			c1.4-2.1,6.9-11.1,6.1-23.1c-0.7-10.5-5.8-17.6-7-19.2c-7-9.4-16.6-12.3-19.6-13.1c5.4-2,10.7-4.1,16.1-6.1
			c-3-1.7-21.6-11.7-44-4.4C1048,216.4,1038.9,232.8,1037,236.3z" style="opacity:0.13;fill:#606060;"/>
		<path id="XMLID_2993_" d="M997,294.6c-1.2,1.2-1.9,3.2-1.3,4.8c1.3,3.6,8.8,5.2,13.1,2.2c0.5-0.4,2.9-2.1,2.6-3.9
			C1010.8,294.1,1000.8,290.7,997,294.6z" style="opacity:0.18;fill:#606060;"/>
	</g>
</g>
</svg>