<?xml version="1.0" encoding="UTF-8"?><svg version="1.1" xmlns="http://www.w3.org/2000/svg" xmlns:xlink="http://www.w3.org/1999/xlink" x="0px" y="0px" viewBox="0 0 1600 1200" style="enable-background:new 0 0 1600 1200;" xml:space="preserve" width="1600px" height="1200px">

<g id="ground">
	<g>
		<g>
			<path d="M428.6,860c116.5,0,232.9,0,349.4,0s232.9,0,349.4,0c65.2,0,130.4,0,195.6,0c1.9,0,1.9-3,0-3
				c-116.5,0-232.9,0-349.4,0c-116.5,0-232.9,0-349.4,0c-65.2,0-130.4,0-195.6,0C426.7,857,426.7,860,428.6,860L428.6,860z" style="fill:#E8E8E8;"/>
		</g>
	</g>
	<g>
		<g>
			<path d="M1039.9,878.6c78.7,0,157.5,0,236.2,0c22.3,0,44.5,0,66.8,0c1.9,0,1.9-3,0-3c-78.7,0-157.5,0-236.2,0
				c-22.3,0-44.5,0-66.8,0C1038,875.6,1038,878.6,1039.9,878.6L1039.9,878.6z" style="fill:#E8E8E8;"/>
		</g>
	</g>
	<g>
		<g>
			<path d="M367.5,886.6c69.9,0,139.9,0,209.8,0c20,0,40,0,59.9,0c1.9,0,1.9-3,0-3c-69.9,0-139.9,0-209.8,0
				c-20,0-40,0-59.9,0C365.5,883.6,365.5,886.6,367.5,886.6L367.5,886.6z" style="fill:#E8E8E8;"/>
		</g>
	</g>
	<g>
		<g>
			<path d="M507,902.5c73.9,0,147.8,0,221.7,0c20.9,0,41.8,0,62.6,0c1.9,0,1.9-3,0-3c-73.9,0-147.8,0-221.7,0
				c-20.9,0-41.8,0-62.6,0C505.1,899.5,505.1,902.5,507,902.5L507,902.5z" style="fill:#E8E8E8;"/>
		</g>
	</g>
	<g>
		<g>
			<path d="M318.3,927.8c77.1,0,154.2,0,231.2,0c1.9,0,1.9-3,0-3c-77.1,0-154.2,0-231.2,0
				C316.4,924.8,316.4,927.8,318.3,927.8L318.3,927.8z" style="fill:#E8E8E8;"/>
		</g>
	</g>
	<g>
		<g>
			<path d="M1311,933.1c66.4,0,132.9,0,199.3,0c1.9,0,1.9-3,0-3c-66.4,0-132.9,0-199.3,0
				C1309.1,930.1,1309.1,933.1,1311,933.1L1311,933.1z" style="fill:#E8E8E8;"/>
		</g>
	</g>
	<g>
		<g>
			<path d="M859.6,1021.8c79.2,0,158.4,0,237.6,0c22.6,0,45.3,0,67.9,0c1.9,0,1.9-3,0-3c-79.2,0-158.4,0-237.6,0
				c-22.6,0-45.3,0-67.9,0C857.7,1018.8,857.7,1021.8,859.6,1021.8L859.6,1021.8z" style="fill:#E8E8E8;"/>
		</g>
	</g>
	<g>
		<g>
			<path d="M1012.4,1043.1c70.6,0,141.1,0,211.7,0c20,0,39.9,0,59.9,0c1.9,0,1.9-3,0-3c-70.6,0-141.1,0-211.7,0
				c-20,0-39.9,0-59.9,0C1010.5,1040.1,1010.5,1043.1,1012.4,1043.1L1012.4,1043.1z" style="fill:#E8E8E8;"/>
		</g>
	</g>
	<g>
		<g>
			<path d="M419.3,875c92.8,0,185.6,0,278.3,0c26.3,0,52.5,0,78.8,0c3.9,0,3.9-6,0-6c-92.8,0-185.6,0-278.3,0c-26.3,0-52.5,0-78.8,0
				C415.5,869,415.4,875,419.3,875L419.3,875z"/>
		</g>
	</g>
	<g>
		<g>
			<path d="M932.9,870.2c80.2,0,160.4,0,240.6,0c22.5,0,45.1,0,67.6,0c3.9,0,3.9-6,0-6c-80.2,0-160.4,0-240.6,0
				c-22.5,0-45.1,0-67.6,0C929,864.2,929,870.2,932.9,870.2L932.9,870.2z"/>
		</g>
	</g>
	<g>
		<g>
			<path d="M401.9,1036.2c87.6,0,175.3,0,262.9,0c24.6,0,49.1,0,73.7,0c3.9,0,3.9-6,0-6c-87.6,0-175.3,0-262.9,0
				c-24.6,0-49.1,0-73.7,0C398.1,1030.2,398.1,1036.2,401.9,1036.2L401.9,1036.2z"/>
		</g>
	</g>
	<g>
		<g>
			<path d="M300.8,1037.7c24.8,0,49.5,0,74.3,0c3.9,0,3.9-6,0-6c-24.8,0-49.5,0-74.3,0C296.9,1031.7,296.9,1037.7,300.8,1037.7
				L300.8,1037.7z"/>
		</g>
	</g>
	<g>
		<g>
			<path d="M697.4,1058.3c27.9,0,55.8,0,83.8,0c3.9,0,3.9-6,0-6c-27.9,0-55.8,0-83.8,0C693.6,1052.3,693.6,1058.3,697.4,1058.3
				L697.4,1058.3z"/>
		</g>
	</g>
	<g>
		<g>
			<path d="M931.3,1047.2c19,0,37.9,0,56.9,0c3.9,0,3.9-6,0-6c-19,0-37.9,0-56.9,0C927.5,1041.2,927.5,1047.2,931.3,1047.2
				L931.3,1047.2z"/>
		</g>
	</g>
	<g>
		<g>
			<path d="M974,1067.8c71.6,0,143.2,0,214.9,0c20.6,0,41.1,0,61.7,0c3.9,0,3.9-6,0-6c-71.6,0-143.2,0-214.9,0
				c-20.6,0-41.1,0-61.7,0C970.1,1061.8,970.1,1067.8,974,1067.8L974,1067.8z"/>
		</g>
	</g>
	<g>
		<g>
			<path d="M1089.4,1044.1c74.8,0,149.6,0,224.4,0c3.9,0,3.9-6,0-6c-74.8,0-149.6,0-224.4,0
				C1085.5,1038.1,1085.5,1044.1,1089.4,1044.1L1089.4,1044.1z"/>
		</g>
	</g>
	<g>
		<g>
			<path d="M1346.9,1037.7c13.2,0,26.3,0,39.5,0c3.9,0,3.9-6,0-6c-13.2,0-26.3,0-39.5,0C1343.1,1031.7,1343.1,1037.7,1346.9,1037.7
				L1346.9,1037.7z"/>
		</g>
	</g>
	<g>
		<g>
			<path d="M1228.4,889.2c25.3,0,50.6,0,75.9,0c3.9,0,3.9-6,0-6c-25.3,0-50.6,0-75.9,0C1224.6,883.2,1224.6,889.2,1228.4,889.2
				L1228.4,889.2z"/>
		</g>
	</g>
	<g>
		<g>
			<path d="M431.2,856.4c-10.6-21.5-16.6-44.9-17.8-68.9c-0.1-1.9-3.1-1.9-3,0c1.2,24.5,7.4,48.4,18.2,70.4
				C429.5,859.6,432,858.1,431.2,856.4L431.2,856.4z" style="fill:#E8E8E8;"/>
		</g>
	</g>
	<g>
		<g>
			<path d="M413.9,787.6c14.6,1.8,29.4,4.6,44.1,5c14.2,0.3,28.2-2.8,42-5.8c1.9-0.4,1.1-3.3-0.8-2.9
				c-14.2,3.1-28.5,6.3-43.1,5.6c-14.1-0.6-28.2-3.2-42.1-4.9C412,784.4,412,787.4,413.9,787.6L413.9,787.6z" style="fill:#E8E8E8;"/>
		</g>
	</g>
	<g>
		<g>
			<path d="M497.9,786.2c-0.5,23.8-5.5,47.2-14.5,69.3c-0.7,1.8,2.2,2.6,2.9,0.8c9.2-22.3,14.1-46,14.6-70.1
				C501,784.3,498,784.3,497.9,786.2L497.9,786.2z" style="fill:#E8E8E8;"/>
		</g>
	</g>
	<g>
		<g>
			<path d="M430.1,786.5c-4.5-5.2-8.5-10.8-11.8-16.9c-1.7-3.1-3.2-6.2-4.6-9.5c-1.2-2.9-5.5-15.1,3.2-13.3
				c1,0.2,2.3-0.7,1.8-1.8c-3.1-8.5-5-17.3-7-26.1c-2.1-9.1-4.3-18.2-5.3-27.5c-0.5-4.3-0.7-8.7-0.5-13.1c0.1-3,0.8-16.2,7.8-9.2
				c2.8,2.8,4.7,7.3,6.7,10.8c2.2,3.8,4.2,7.7,6.2,11.6c15.4,30.9,23.5,65.2,23.8,99.8c0,1.9,3,1.9,3,0c-0.3-31.3-6.8-62.3-19.4-91
				c-3.2-7.2-6.7-14.3-10.6-21.1c-2.6-4.5-5.8-12.7-11-14.8c-12.3-4.9-9.6,22.1-9,27.1c1,8.9,2.9,17.6,4.9,26.4
				c2.2,9.4,4.1,19,7.4,28c0.6-0.6,1.2-1.2,1.8-1.8c-3.4-0.7-6.6,0.7-8.2,3.9c-2,3.9-0.5,8.5,1,12.3c4.1,10.5,10.1,20,17.4,28.5
				C429.2,790.1,431.3,788,430.1,786.5L430.1,786.5z" style="fill:#E8E8E8;"/>
		</g>
	</g>
	<g>
		<g>
			<path d="M447.7,745.9c-0.5-3.8-1.2-25.6,6.6-24c1,0.2,1.8-0.4,1.9-1.4c1.7-14.3,3.4-28.9,9.2-42.2
				c1.5-3.5,3.3-7,5.5-10.1c1.9-2.7,5.5-3.8,7.6-0.6c0.8,1.2,1.2,2.8,1.6,4.2c2,7.8,2.8,16,3.2,24c1.4,31.9-6.8,63.3-14.8,94
				c-0.5,1.9,2.4,2.7,2.9,0.8c9.7-36.9,19.7-75.7,12.8-114c-0.8-4.6-1.7-12.3-7-14.3c-6.1-2.3-10,6-12.2,10.2
				c-7.8,14.8-9.8,31.7-11.7,48c0.6-0.5,1.3-1,1.9-1.4c-11.5-2.4-11.2,20.4-10.4,26.9C445,747.8,448,747.9,447.7,745.9L447.7,745.9z
				" style="fill:#E8E8E8;"/>
		</g>
	</g>
	<g>
		<g>
			<path d="M410.1,790.4c13.1,26.4,31.7,49.8,54.5,68.4c1.5,1.2,3.6-0.9,2.1-2.1c-22.7-18.5-41.1-41.6-54-67.8
				C411.9,787.2,409.3,788.7,410.1,790.4L410.1,790.4z" style="fill:#E8E8E8;"/>
		</g>
	</g>
	<g>
		<g>
			<path d="M432.9,789.5c9.5,10.4,19.1,20.9,28.6,31.3c8,8.8,15.8,18.5,26.4,24.3c1.7,0.9,3.2-1.7,1.5-2.6
				c-10.9-5.9-18.9-16.2-27.1-25.2c-9.1-10-18.2-19.9-27.3-29.9C433.7,786,431.6,788.1,432.9,789.5L432.9,789.5z" style="fill:#E8E8E8;"/>
		</g>
	</g>
	<g>
		<g>
			<path d="M462.7,792.3c8.8,12.2,19,23.1,30.6,32.7c1.5,1.2,3.6-0.9,2.1-2.1c-11.3-9.5-21.4-20.2-30.1-32.1
				C464.2,789.3,461.6,790.8,462.7,792.3L462.7,792.3z" style="fill:#E8E8E8;"/>
		</g>
	</g>
	<g>
		<g>
			<path d="M486.8,788.7c3.7,4.2,7.4,8.4,11.1,12.6c1.3,1.5,3.4-0.7,2.1-2.1c-3.7-4.2-7.4-8.4-11.1-12.6
				C487.6,785.2,485.5,787.3,486.8,788.7L486.8,788.7z" style="fill:#E8E8E8;"/>
		</g>
	</g>
</g>
<g id="background">
	<g>
		<g>
			<path d="M1205.7,316.9c0,8,0,16.1,0,24.1c0,1.9,3,1.9,3,0c0-8,0-16.1,0-24.1C1208.7,315,1205.7,315,1205.7,316.9
				L1205.7,316.9z" style="fill:#E8E8E8;"/>
		</g>
	</g>
	<g>
		<g>
			<path d="M1207.2,318.4c70.5,0,141,0,211.5,0c1.9,0,1.9-3,0-3c-70.5,0-141,0-211.5,0
				C1205.3,315.4,1205.3,318.4,1207.2,318.4L1207.2,318.4z" style="fill:#E8E8E8;"/>
		</g>
	</g>
	<g>
		<g>
			<path d="M1207.6,342.6c70.5,0,141,0,211.5,0c1.9,0,1.9-3,0-3c-70.5,0-141,0-211.5,0
				C1205.7,339.6,1205.7,342.6,1207.6,342.6L1207.6,342.6z" style="fill:#E8E8E8;"/>
		</g>
	</g>
	<g>
		<g>
			<path d="M1417.5,316.9c0,8,0,16.1,0,24.1c0,1.9,3,1.9,3,0c0-8,0-16.1,0-24.1C1420.5,315,1417.5,315,1417.5,316.9
				L1417.5,316.9z" style="fill:#E8E8E8;"/>
		</g>
	</g>
	<g>
		<g>
			<path d="M1214,267.9c2.9,17.7,6.6,36.2,20.5,48.8c1.4,1.3,3.6-0.8,2.1-2.1c-13.5-12.2-16.9-30.3-19.7-47.4
				C1216.6,265.2,1213.7,266.1,1214,267.9L1214,267.9z" style="fill:#E8E8E8;"/>
		</g>
	</g>
	<g>
		<g>
			<path d="M1215.9,267.3c30.7,1.2,61.3,1,92-0.6c1.9-0.1,1.9-3.1,0-3c-30.6,1.6-61.3,1.8-92,0.6
				C1214,264.2,1214,267.2,1215.9,267.3L1215.9,267.3z" style="fill:#E8E8E8;"/>
		</g>
	</g>
	<g>
		<g>
			<path d="M1307.5,266.2c3.4,18.3-3.4,37.2-17.5,49.2c-1.5,1.3,0.7,3.4,2.1,2.1c14.9-12.8,21.9-32.9,18.2-52.2
				C1310,263.5,1307.1,264.3,1307.5,266.2L1307.5,266.2z" style="fill:#E8E8E8;"/>
		</g>
	</g>
	<g>
		<g>
			<path d="M1214,259.6c-1.5-1.8-2.6-3.8-3.1-6.1c-0.2-0.7-1-6.2,0-6.9c2.4-1.5,7.1,6.7,7.8,7.9
				c3.4,6.1,6.3,12.6,9.3,18.9c6.6,13.7,13.1,27.5,19.5,41.3c0.8,1.8,3.4,0.2,2.6-1.5c-9.3-20.1-18-40.9-28.8-60.1
				c-1.6-2.9-7.5-12.3-11.9-9.3c-2.3,1.6-2,6.5-1.7,8.7c0.5,3.6,2,6.6,4.3,9.4C1213,263.3,1215.2,261.1,1214,259.6L1214,259.6z" style="fill:#E8E8E8;"/>
		</g>
	</g>
	<g>
		<g>
			<path d="M1209.2,256.7c10.1,21.5,22.8,41.6,37.8,60c1.2,1.5,3.3-0.6,2.1-2.1c-14.9-18.2-27.4-38.1-37.3-59.4
				C1211,253.5,1208.4,255,1209.2,256.7L1209.2,256.7z" style="fill:#E8E8E8;"/>
		</g>
	</g>
	<g>
		<g>
			<path d="M1208.4,247.4c0.2-0.1,0.3-0.2,0.5-0.3c1.3-1,0.6-3.2-1.2-2.7c-2.1,1.2-3.5,0.6-4.1-1.7c-1.6-1-2-2.1-1-3.2
				c0-0.4,0.2-0.8,0.2-1.3c-0.1-1.3-0.6-1.7-1.6-2.6c-1.1-1-1.6-0.3-2.3-1.9c-0.8-1.8,0-1,0-2.5c0-1-0.8-2.5-0.8-3.1
				c-0.5-0.5-0.1-1,1.1-1.5c1-2,1.7-1.8,2,0.5c0.3,0.7,0.5,1.4,0.9,2c0.9,1.8,2.1,2.1,3.4,3.3c1.5,1.6,1.4,2.6,1.6,4.6
				c0.1,0.5,0,1,0.2,1.4c0.6,1,3.3,1.9,2.1,3.6c-1.2,1.5,1.4,3,2.6,1.5c1.9-2.5,1-4.3-0.9-6.3c-0.3-0.3-1.4-0.3-1.5-0.6
				c0.1,0.2,0.6-2.8,0.5-3.1c-0.2-1.4-0.8-2.1-1.8-3c-0.7-0.7-1.6-0.9-2.4-1.6c-1.3-1.2-1.6-2.4-2.3-3.8c-0.7-1.4-1.3-2.8-2.7-3.6
				c-2.4-1.5-5-0.4-6.2,2c-0.6,1.1-0.9,2.7-0.6,3.9c0.1,0.6,0.6,1.2,0.8,1.7c0.7,2.1,0.3,1.2,0.1,2.6c-0.4,2.7-0.4,3.7,2,5.3
				c0.7,0.5,2.1,0.6,2.4,1.7c-0.2-0.7-1.1,2.9-1.1,2.5c-0.2,1.2,0.2,2.4,0.8,3.4c2,3.3,6,3.3,9.4,2.4c-0.4-0.9-0.8-1.8-1.2-2.7
				c-0.2,0.1-0.3,0.2-0.5,0.3C1205.3,245.9,1206.8,248.5,1208.4,247.4L1208.4,247.4z" style="fill:#E8E8E8;"/>
		</g>
	</g>
	<g>
		<g>
			<path d="M1219.6,248.8c-0.4-1-1.9-4.5-1.3-5.4c1.5-0.7,3-1.3,4.5-2c0.7,0.8,1.3,1.6,1.8,2.6c1.6,2.6,2.7,5.6,3.9,8.4
				c2.9,6.8,5.5,13.7,8,20.6c4.5,13,8.2,26.3,11.1,39.7c0.4,1.9,3.3,1.1,2.9-0.8c-4.4-20.2-10.5-39.9-18.5-59
				c-2.1-5-4.8-15.3-11.5-16.2c-7-0.9-5.2,9.2-3.7,12.9C1217.4,251.3,1220.3,250.6,1219.6,248.8L1219.6,248.8z" style="fill:#E8E8E8;"/>
		</g>
	</g>
	<g>
		<g>
			<path d="M1216,236.5c-3.4-2.3-4.2-4.4-2.6-6.3c0.4-0.4,0.7-0.9,0.9-1.4c0.1-0.3,0.2-0.6,0.2-1
				c-0.2-2.3-4.3-2.7-1-6.1c0.5-0.6,0.6-1.6,0-2.1c-2.2-2.4-2.3-3.6-0.3-3.5c1-0.5,1.4-0.1,1.2,1.2c0.4,0.6,0.3,1.5,0.7,2.2
				c1,1.9,3.8,2.8,4.1,5.1c0.3,1.8-1.2,3.6-0.9,5.4c0.3,1.9,3.2,3.6,1.1,5.8c-1.3,1.4,0.8,3.5,2.1,2.1c1.3-1.4,2.6-3,2.2-5.1
				c-0.3-1.7-2.1-2.3-2.3-4.1c-0.3-2.1,1.3-3.7,0.5-6c-0.9-2.7-3.6-3.4-4.6-6.2c-1-2.6-2.4-7-6.1-4.5c-3.1,2.1-2.3,7.6,0.2,9.7
				c0-0.7,0-1.4,0-2.1c-1.5,1.6-2.4,3.6-1.8,5.8c0.1,0.5,1.6,2.4,1.6,2.7c0,0.8-1.4,2.3-1.6,3.3c-1,4.3,2.3,9.9,7.2,8
				C1218.5,238.7,1217.8,235.8,1216,236.5L1216,236.5z" style="fill:#E8E8E8;"/>
		</g>
	</g>
	<g>
		<g>
			<path d="M1262.5,314.1c-1.6-2.8,6.7-8,8.3-10.3c1.2-1.7,1.9-3.4,2.7-5.3c1.6-3.7,4.4-3.1,7.8-2.9
				c3.3,0.2,6.4-0.8,8.6-3.3c1.1-1.2,1.8-2.6,2.7-4c3-4.5,7.3-3.5,11.5-1.5c1.7,0.8,3.3-1.7,1.5-2.6c-4.6-2.2-10-4-13.9,0.2
				c-2.5,2.7-3.3,6.7-7.3,7.9c-3.1,0.9-6.2-1.1-9.3,0c-2,0.7-2.9,2-3.8,3.7c-2.1,3.8-3,6.8-6.6,9.5c-3.3,2.5-7.5,5.2-4.8,9.8
				C1260.9,317.3,1263.5,315.8,1262.5,314.1L1262.5,314.1z" style="fill:#E8E8E8;"/>
		</g>
	</g>
	<g>
		<g>
			<path d="M1277,313.9c4.7-0.8,8.4-3.3,11.7-6.7c4.2-4.4,9-15.6,16.7-11.8c1.7,0.9,3.2-1.7,1.5-2.6
				c-5.2-2.7-10.2-0.2-13.8,4c-5,5.8-8.5,12.8-16.8,14.3C1274.3,311.3,1275.1,314.2,1277,313.9L1277,313.9z" style="fill:#E8E8E8;"/>
		</g>
	</g>
	<g>
		<g>
			<path d="M1277.7,294.4c2-3.1,3.3-6.4,3.7-10.2c0.3-3.3-0.6-5.7,2-8.6c1-1.1,2.3-1.8,3.3-3c4.1-5.1,1.8-12.9,6.5-17.5
				c-0.6,0.1-1.2,0.2-1.8,0.2c1.9,1.1,2.2,3.3,3.7,4.6c1.4,1.3,3.4,1.5,5.1,2.3c3.8,1.8,2.3,6.5,2.3,10.1c0,2.8,1.8,7.3-0.5,9.3
				c-1.5,1.3,0.7,3.4,2.1,2.1c2-1.8,2.2-3.9,1.9-6.4c-0.4-4.1,0.3-8.5-0.4-12.5c-0.4-2.6-1.6-4.7-4-5.9c-2.4-1.2-4.4-1.9-6.3-4
				c-0.8-0.9-1.3-1.6-2.5-2.2c-0.6-0.3-1.3-0.2-1.8,0.2c-5.2,5.1-2.5,13.3-7.4,18.4c-2,2.1-4.3,3.2-5,6.3c-0.5,2.1-0.2,4.3-0.4,6.3
				c-0.3,3.3-1.4,6.1-3.2,8.9C1274.1,294.5,1276.7,296,1277.7,294.4L1277.7,294.4z" style="fill:#E8E8E8;"/>
		</g>
	</g>
	<g>
		<g>
			<path d="M1242.5,342.2c1.6,4.6,3.1,9.3,4.5,14c0.2,0.6,0.8,1.1,1.4,1.1c6,0,12.1,0,18.1,0.2c1.9,0.1,1.9-2.9,0-3
				c-6-0.2-12.1-0.3-18.1-0.2c0.5,0.4,1,0.7,1.4,1.1c-1.3-4.7-2.8-9.4-4.5-14C1244.7,339.6,1241.8,340.4,1242.5,342.2L1242.5,342.2z
				" style="fill:#E8E8E8;"/>
		</g>
	</g>
	<g>
		<g>
			<path d="M1269.7,341.5c-1.6,4.8-3.2,9.6-4.8,14.4c-0.6,1.8,2.3,2.6,2.9,0.8c1.6-4.8,3.2-9.6,4.8-14.4
				C1273.2,340.4,1270.3,339.6,1269.7,341.5L1269.7,341.5z" style="fill:#E8E8E8;"/>
		</g>
	</g>
	<g>
		<g>
			<path d="M1348.9,316.1c0.1-2.5-1.5-6.4,0.6-8.3c2-1.7,6.7-1,9.1-1c6.9,0,13.8,0,20.7,0.1c6.6,0.1,13.1,0.2,19.7,0.4
				c2.9,0.1,7.3-0.6,10,0.4c3.7,1.3,2.5,5.2,3.3,8.2c0.5,1.9,3.4,1.1,2.9-0.8c-0.8-2.7,0.6-6.1-1.4-8.5c-1.5-1.8-3.8-1.9-5.9-2.1
				c-10.1-0.8-20.4-0.5-30.6-0.6c-4.9-0.1-9.9-0.1-14.8-0.1c-3.7,0-7.7-0.4-11.4,0.3c-2,0.4-4.2,1.2-5.3,3.1c-1.7,2.8,0.2,5.9,0,8.9
				C1345.8,318,1348.8,318,1348.9,316.1L1348.9,316.1z" style="fill:#E8E8E8;"/>
		</g>
	</g>
	<g>
		<g>
			<path d="M1337.3,303.2c-0.3-1.2-0.9-3.6-0.4-4.7c1.1-2.4,4.1-2.3,6.2-2.5c2.6-0.2,5.2-0.3,7.8-0.3
				c5.9,0,11.7,0.4,17.6,0.4c5.5,0,10.8-0.6,16.2-1.1c2.5-0.2,5-0.5,7.5-0.3c3.4,0.2,3.7,2,4.4,5.1c0.4,1.5,0.4,3.3,0.6,4.9
				c0.2,1.9,3.3,1.9,3,0c-0.7-5.4,0.2-11.8-6.2-12.8c-4.3-0.7-8.8,0.2-13,0.6c-4.8,0.5-9.6,0.7-14.4,0.7c-8.8-0.1-18-1.2-26.7,0.2
				c-5.9,1-6.7,5.4-5.4,10.7C1334.8,305.9,1337.7,305.1,1337.3,303.2L1337.3,303.2z" style="fill:#E8E8E8;"/>
		</g>
	</g>
	<g>
		<g>
			<path d="M1335.6,306.1c5.4,0.8,10.7,1,16.2,0.5c1.9-0.2,1.9-3.2,0-3c-5.1,0.5-10.3,0.4-15.4-0.4
				C1334.5,303,1333.7,305.9,1335.6,306.1L1335.6,306.1z" style="fill:#E8E8E8;"/>
		</g>
	</g>
	<g>
		<g>
			<path d="M1353.2,342.8c1.6,4.3,3,8.7,4.3,13.1c0.2,0.7,0.8,1.1,1.4,1.1c5.7,0.2,13,1.7,18.5-0.2
				c1.8-0.6,1-3.5-0.8-2.9c-5,1.8-12.4,0.3-17.7,0.1c0.5,0.4,1,0.7,1.4,1.1c-1.3-4.4-2.7-8.8-4.3-13.1
				C1355.4,340.2,1352.5,340.9,1353.2,342.8L1353.2,342.8z" style="fill:#E8E8E8;"/>
		</g>
	</g>
	<g>
		<g>
			<path d="M1379.3,342.3c-1.3,4.2-2.6,8.3-3.9,12.5c-0.6,1.8,2.3,2.6,2.9,0.8c1.3-4.2,2.6-8.3,3.9-12.5
				C1382.8,341.3,1379.9,340.5,1379.3,342.3L1379.3,342.3z" style="fill:#E8E8E8;"/>
		</g>
	</g>
	<g>
		<g>
			<path d="M1205.7,146.3c0,8,0,16.1,0,24.1c0,1.9,3,1.9,3,0c0-8,0-16.1,0-24.1C1208.7,144.3,1205.7,144.3,1205.7,146.3
				L1205.7,146.3z" style="fill:#E8E8E8;"/>
		</g>
	</g>
	<g>
		<g>
			<path d="M1207.2,147.8c70.5,0,141,0,211.5,0c1.9,0,1.9-3,0-3c-70.5,0-141,0-211.5,0
				C1205.3,144.8,1205.3,147.8,1207.2,147.8L1207.2,147.8z" style="fill:#E8E8E8;"/>
		</g>
	</g>
	<g>
		<g>
			<path d="M1207.6,171.9c70.5,0,141,0,211.5,0c1.9,0,1.9-3,0-3c-70.5,0-141,0-211.5,0
				C1205.7,168.9,1205.7,171.9,1207.6,171.9L1207.6,171.9z" style="fill:#E8E8E8;"/>
		</g>
	</g>
	<g>
		<g>
			<path d="M1417.6,146.3c0,8,0,16.1,0,24.1c0,1.9,3,1.9,3,0c0-8,0-16.1,0-24.1C1420.6,144.3,1417.6,144.3,1417.6,146.3
				L1417.6,146.3z" style="fill:#E8E8E8;"/>
		</g>
	</g>
	<g>
		<g>
			<path d="M1242.5,171.5c1.6,4.6,3.1,9.3,4.5,14c0.2,0.6,0.8,1.1,1.4,1.1c6,0,12.1,0,18.1,0.2c1.9,0.1,1.9-2.9,0-3
				c-6-0.2-12.1-0.3-18.1-0.2c0.5,0.4,1,0.7,1.4,1.1c-1.3-4.7-2.8-9.4-4.5-14C1244.8,168.9,1241.9,169.7,1242.5,171.5L1242.5,171.5z
				" style="fill:#E8E8E8;"/>
		</g>
	</g>
	<g>
		<g>
			<path d="M1269.8,170.8c-1.6,4.8-3.2,9.6-4.8,14.4c-0.6,1.8,2.3,2.6,2.9,0.8c1.6-4.8,3.2-9.6,4.8-14.4
				C1273.3,169.7,1270.4,168.9,1269.8,170.8L1269.8,170.8z" style="fill:#E8E8E8;"/>
		</g>
	</g>
	<g>
		<g>
			<path d="M1353.2,172.1c1.6,4.3,3,8.7,4.3,13.1c0.2,0.7,0.8,1.1,1.4,1.1c5.7,0.2,13,1.7,18.5-0.2
				c1.8-0.6,1-3.5-0.8-2.9c-5,1.8-12.4,0.3-17.7,0.1c0.5,0.4,1,0.7,1.4,1.1c-1.3-4.4-2.7-8.8-4.3-13.1
				C1355.5,169.5,1352.6,170.2,1353.2,172.1L1353.2,172.1z" style="fill:#E8E8E8;"/>
		</g>
	</g>
	<g>
		<g>
			<path d="M1379.3,171.6c-1.3,4.2-2.6,8.3-3.9,12.5c-0.6,1.8,2.3,2.6,2.9,0.8c1.3-4.2,2.6-8.3,3.9-12.5
				C1382.8,170.6,1379.9,169.8,1379.3,171.6L1379.3,171.6z" style="fill:#E8E8E8;"/>
		</g>
	</g>
	<g>
		<g>
			<path d="M1213.7,62c-1.5,27.6-1.8,55.3-0.8,83c0.1,1.9,3.1,1.9,3,0c-1-27.7-0.7-55.3,0.8-83
				C1216.8,60.1,1213.8,60.1,1213.7,62L1213.7,62z" style="fill:#E8E8E8;"/>
		</g>
	</g>
	<g>
		<g>
			<path d="M1216.5,60.5c2.1-3.9,4-7.9,5.6-12c0.6-1.6,1.1-4.6,2.3-5.6c1.3-1,5-1.4,6.6-2.1c1.8-0.7,1-3.6-0.8-2.9
				c-2.5,1-4.9,1.6-7.6,2c-0.5,0.1-0.9,0.6-1,1c-2.1,6.2-4.6,12.2-7.7,18C1213,60.7,1215.6,62.2,1216.5,60.5L1216.5,60.5z" style="fill:#E8E8E8;"/>
		</g>
	</g>
	<g>
		<g>
			<path d="M1241.8,71.1c-1.9,24.4-2.5,49-1.8,73.5c0.1,1.9,3.1,1.9,3,0c-0.7-24.5-0.1-49,1.8-73.5
				C1245,69.2,1242,69.2,1241.8,71.1L1241.8,71.1z" style="fill:#E8E8E8;"/>
		</g>
	</g>
	<g>
		<g>
			<path d="M1263.8,67.7c-0.9,25.1-1.4,50.2-1.4,75.4c0,1.9,3,1.9,3,0c0-25.1,0.5-50.3,1.4-75.4
				C1266.8,65.8,1263.8,65.8,1263.8,67.7L1263.8,67.7z" style="fill:#E8E8E8;"/>
		</g>
	</g>
	<g>
		<g>
			<path d="M1231.4,39.3c0.7-1.4,1.2-2.9,1.7-4.4c-0.5,0.4-1,0.7-1.4,1.1c3.3-0.1,7.5-1,10.7-0.5c1.2-0.4,2.1,0,2.6,1.3
				c0.1,0.9,0.3,1.7,0.4,2.6c0.3,1.7,0.6,3.5,0.9,5.2c0.3,1.9,3.2,1.1,2.9-0.8c-0.5-2.9-0.2-9.5-3.4-11c-1.6-0.8-3.9-0.3-5.5-0.2
				c-2.9,0.1-5.8,0.3-8.7,0.4c-0.7,0-1.3,0.4-1.4,1.1c-0.4,1.3-0.8,2.5-1.4,3.7C1228,39.5,1230.5,41,1231.4,39.3L1231.4,39.3z" style="fill:#E8E8E8;"/>
		</g>
	</g>
	<g>
		<g>
			<path d="M1246.6,45.4c4,1.9,10.9,3.8,13.3,7.7c2.7,4.3,3.7,10.8,4.6,15.8c0.3,1.9,3.2,1.1,2.9-0.8
				c-0.9-5.5-2.1-12.6-5.3-17.4c-2.7-4-9.8-5.9-14-7.9C1246.4,42,1244.8,44.6,1246.6,45.4L1246.6,45.4z" style="fill:#E8E8E8;"/>
		</g>
	</g>
	<g>
		<g>
			<path d="M1213.8,96.7c9.3,0.7,18.7,1.2,28,1.4c1.9,0.1,1.9-2.9,0-3c-9.4-0.3-18.7-0.7-28-1.4
				C1211.8,93.5,1211.8,96.5,1213.8,96.7L1213.8,96.7z" style="fill:#E8E8E8;"/>
		</g>
	</g>
	<g>
		<g>
			<path d="M1213.4,127c4.8,2,9.6,1.4,14.7,1.1c3.9-0.2,8.5,1.3,12-0.6c1.7-0.9,0.2-3.5-1.5-2.6
				c-1.7,0.9-5.3,0.1-7.2,0.1c-1.6,0-3.3,0.2-4.9,0.3c-4.2,0.3-8.2,0.6-12.2-1.1C1212.4,123.4,1211.6,126.3,1213.4,127L1213.4,127z" style="fill:#E8E8E8;"/>
		</g>
	</g>
	<g>
		<g>
			<path d="M1243.3,97.9c6.7-0.5,13.4-0.9,20.1-1.4c1.9-0.1,1.9-3.1,0-3c-6.7,0.5-13.4,0.9-20.1,1.4
				C1241.4,95.1,1241.4,98.1,1243.3,97.9L1243.3,97.9z" style="fill:#E8E8E8;"/>
		</g>
	</g>
	<g>
		<g>
			<path d="M1241.4,128.1c7.3-0.5,14.5-1.6,21.6-3.4c1.9-0.5,1.1-3.4-0.8-2.9c-6.8,1.8-13.7,2.9-20.8,3.3
				C1239.5,125.2,1239.5,128.2,1241.4,128.1L1241.4,128.1z" style="fill:#E8E8E8;"/>
		</g>
	</g>
	<g>
		<g>
			<path d="M1220.2,59.5c7.5,0,14.9,0.3,22.3,0.6c1.9,0.1,1.9-2.9,0-3c-7.4-0.4-14.9-0.6-22.3-0.6
				C1218.3,56.5,1218.3,59.5,1220.2,59.5L1220.2,59.5z" style="fill:#E8E8E8;"/>
		</g>
	</g>
	<g>
		<g>
			<path d="M1252,59.7c3.5,0,7.1,0,10.6,0c1.9,0,1.9-3,0-3c-3.5,0-7.1,0-10.6,0C1250.1,56.7,1250.1,59.7,1252,59.7
				L1252,59.7z" style="fill:#E8E8E8;"/>
		</g>
	</g>
	<g>
		<g>
			<path d="M1325.7,144.2c-0.6-1.5-0.1-3.5,1.5-4.1c1.8-0.7,3.6,0.7,4,2.5c0.4,1.9,3.3,1.1,2.9-0.8
				c-0.7-3.3-4.3-5.7-7.7-4.6c-3.1,1-4.8,4.8-3.6,7.8C1323.5,146.8,1326.4,146,1325.7,144.2L1325.7,144.2z" style="fill:#E8E8E8;"/>
		</g>
	</g>
	<g>
		<g>
			<path d="M1332.7,137.3c-0.5-1,0.6-2.2,1.6-2.2c1.4,0,2.4,1.6,2.5,2.9c0.1,1.9,3.1,1.9,3,0c-0.2-3.1-2.8-6.4-6.2-5.8
				c-3,0.5-4.9,3.9-3.5,6.7C1331,140.5,1333.5,139,1332.7,137.3L1332.7,137.3z" style="fill:#E8E8E8;"/>
		</g>
	</g>
	<g>
		<g>
			<path d="M1338.8,142.2c-0.8-2.9,3.4-4.4,4.5-1.5c0.7,1.8,3.6,1,2.9-0.8c-1-2.7-3.8-4.5-6.7-3.6
				c-2.8,0.8-4.3,4-3.6,6.7C1336.5,144.9,1339.3,144.1,1338.8,142.2L1338.8,142.2z" style="fill:#E8E8E8;"/>
		</g>
	</g>
	<g>
		<g>
			<path d="M1340.7,133.4c-0.4-0.2-0.4-0.8-0.2-1.2c0.3-0.7,1.2-0.8,1.9-0.7c1.7,0.3,2.8,1.9,3.7,3.3
				c1,1.6,3.6,0.1,2.6-1.5c-1.8-2.9-5-6-8.8-4.4c-2.9,1.3-3.5,5.3-0.8,7.1C1340.8,137.1,1342.3,134.5,1340.7,133.4L1340.7,133.4z" style="fill:#E8E8E8;"/>
		</g>
	</g>
	<g>
		<g>
			<path d="M1347.4,139.9c-0.3-1.2,1.7-1.4,2.4-1c1.2,0.6,1.8,2.1,2.3,3.3c0.7,1.8,3.6,1,2.9-0.8c-1-2.6-2.8-5.7-6-5.7
				c-2.7,0-5.2,2.3-4.5,5.1C1345,142.5,1347.8,141.7,1347.4,139.9L1347.4,139.9z" style="fill:#E8E8E8;"/>
		</g>
	</g>
	<g>
		<g>
			<path d="M1354.6,143.5c0.5-2.6,3.6-2.5,4.1,0c0.3,1.9,3.2,1.1,2.9-0.8c-0.4-2.3-2.5-4.2-4.9-4.3
				c-2.4,0-4.5,1.9-4.9,4.2C1351.4,144.6,1354.3,145.4,1354.6,143.5L1354.6,143.5z" style="fill:#E8E8E8;"/>
		</g>
	</g>
	<g>
		<g>
			<path d="M1349.1,133.1c-0.1-1.7,2.2-1.8,3.3-1.1c1.4,0.9,2.2,2.7,2.9,4.2c0.8,1.7,3.4,0.2,2.6-1.5
				c-1.3-2.7-3.2-5.9-6.5-6.2c-2.6-0.2-5.5,1.7-5.3,4.5C1346.2,135,1349.2,135,1349.1,133.1L1349.1,133.1z" style="fill:#E8E8E8;"/>
		</g>
	</g>
	<g>
		<g>
			<path d="M1354.9,139.3c0-2.6,3.2-3.4,4.4-1.1c0.9,1.7,3.5,0.2,2.6-1.5c-1.2-2.1-3.7-3.3-6.1-2.7
				c-2.4,0.6-3.9,2.9-3.9,5.4C1351.9,141.2,1354.9,141.3,1354.9,139.3L1354.9,139.3z" style="fill:#E8E8E8;"/>
		</g>
	</g>
	<g>
		<g>
			<path d="M1308,117.3c2.3,10.8,7.3,20.6,14.6,29c1.3,1.5,3.4-0.7,2.1-2.1c-7-8-11.6-17.3-13.8-27.7
				C1310.5,114.6,1307.6,115.4,1308,117.3L1308,117.3z" style="fill:#E8E8E8;"/>
		</g>
	</g>
	<g>
		<g>
			<path d="M1315.2,117.3c22.8,1.6,45.6,1.3,68.4-0.8c1.9-0.2,1.9-3.2,0-3c-22.7,2.1-45.6,2.4-68.4,0.8
				C1313.3,114.2,1313.3,117.2,1315.2,117.3L1315.2,117.3z" style="fill:#E8E8E8;"/>
		</g>
	</g>
	<g>
		<g>
			<path d="M1382.2,117.3c0.2,10-2.9,19.4-9.3,27.1c-1.2,1.5,0.9,3.6,2.1,2.1c6.9-8.3,10.5-18.4,10.2-29.2
				C1385.1,115.4,1382.1,115.4,1382.2,117.3L1382.2,117.3z" style="fill:#E8E8E8;"/>
		</g>
	</g>
	<g>
		<g>
			<path d="M1359.3,133.4c-0.7-1.2-0.5-3,0.8-3.8c1.3-0.7,3,0,3.7,1.2c0.9,1.7,3.5,0.2,2.6-1.5
				c-1.5-2.7-5.1-3.9-7.8-2.3c-2.7,1.6-3.5,5.3-1.9,7.9C1357.7,136.6,1360.3,135.1,1359.3,133.4L1359.3,133.4z" style="fill:#E8E8E8;"/>
		</g>
	</g>
	<g>
		<g>
			<path d="M1366.3,139.3c-0.8-0.4-0.6-1.7,0.1-2.1c1.3-0.8,2.7,0.7,3.2,1.7c0.8,1.7,3.4,0.2,2.6-1.5
				c-1.3-2.7-5.3-4.6-7.9-2.4c-2.1,1.8-2.2,5.6,0.4,6.9C1366.5,142.8,1368,140.2,1366.3,139.3L1366.3,139.3z" style="fill:#E8E8E8;"/>
		</g>
	</g>
	<g>
		<g>
			<path d="M1372.4,131.3c-1-0.5-1.5-2.2-0.5-3c0.9-0.8,2.6-0.1,2.9,0.9c0.6,1.8,3.5,1.1,2.9-0.8
				c-0.9-3.1-5-4.6-7.6-2.5c-2.6,2.1-2,6.5,0.8,8C1372.6,134.8,1374.1,132.2,1372.4,131.3L1372.4,131.3z" style="fill:#E8E8E8;"/>
		</g>
	</g>
	<g>
		<g>
			<path d="M1364.4,127.4c0-3.8,4.4-5.3,6.8-2.4c1.3,1.5,3.4-0.7,2.1-2.1c-4.2-4.9-12-1.8-11.9,4.6
				C1361.4,129.3,1364.4,129.3,1364.4,127.4L1364.4,127.4z" style="fill:#E8E8E8;"/>
		</g>
	</g>
	<g>
		<g>
			<path d="M1311.2,113.4c-1.1-0.7,0.2-1.8,1-1.8c1.5-0.1,2.5,1.1,3.2,2.2c1,1.6,3.6,0.1,2.6-1.5
				c-1.7-2.6-4.9-4.8-8-3.2c-2.7,1.4-2.9,5.2-0.3,6.9C1311.3,117,1312.8,114.4,1311.2,113.4L1311.2,113.4z" style="fill:#E8E8E8;"/>
		</g>
	</g>
	<g>
		<g>
			<path d="M1315.1,118.5c-0.4-0.2-0.6-0.7-0.3-1.1c0.6-0.8,1.7,0.1,2.1,0.6c0.6,0.8,0.6,2,0.3,2.9
				c-0.1,0.3-0.9,2.4-1,2.4c-1.7-0.8-3.2,1.7-1.5,2.6c2.5,1.2,4.4-1.1,5.2-3.3c0.9-2.6,0.7-5.8-1.7-7.5c-1.8-1.3-4.6-1.4-5.9,0.6
				c-1.1,1.8-0.8,4.5,1.2,5.4C1315.4,121.9,1316.9,119.3,1315.1,118.5L1315.1,118.5z" style="fill:#E8E8E8;"/>
		</g>
	</g>
	<g>
		<g>
			<path d="M1319.1,113.6c-0.5-1.3,0.9-3.6,2.4-2.7c1.2,0.7,1.1,2.6,0.2,3.4c-1.5,1.2,0.6,3.3,2.1,2.1
				c2.7-2.2,1.8-7.1-1.4-8.3c-3.7-1.5-7.7,2.7-6.3,6.4C1316.9,116.1,1319.8,115.4,1319.1,113.6L1319.1,113.6z" style="fill:#E8E8E8;"/>
		</g>
	</g>
	<g>
		<g>
			<path d="M1321.6,120.6c-0.4-1.5,1.3-2.4,2.5-1.6c1.4,1,1,2.9-0.1,3.9c-1.4,1.4,0.8,3.5,2.1,2.1
				c2.6-2.7,2.5-7.3-1.2-9c-3.5-1.6-7.3,1.6-6.3,5.3C1319.2,123.2,1322.1,122.4,1321.6,120.6L1321.6,120.6z" style="fill:#E8E8E8;"/>
		</g>
	</g>
	<g>
		<g>
			<path d="M1320.2,126.9c-0.2-0.3,0.2-0.7,0.5-0.7c0.5-0.1,0.9,0.3,1.1,0.6c0.9,1.2,0.1,2.8-0.5,4
				c-0.9,1.7,1.7,3.2,2.6,1.5c1.6-2.9,2.1-7.4-1.7-8.9c-3-1.2-6.1,2.1-4.6,5C1318.5,130.1,1321.1,128.6,1320.2,126.9L1320.2,126.9z" style="fill:#E8E8E8;"/>
		</g>
	</g>
	<g>
		<g>
			<path d="M1320.1,136.8c3,0.9,5.6-1,7.3-3.3c0.8-1,1.6-2.4,1.6-3.7c0-1.3-1-2.6-2.3-2.8c-1.9-0.3-2.7,2.6-0.8,2.9
				c0.5,0.1-1.4,2.5-1.6,2.8c-0.9,0.9-2,1.6-3.2,1.2C1319.1,133.4,1318.3,136.3,1320.1,136.8L1320.1,136.8z" style="fill:#E8E8E8;"/>
		</g>
	</g>
	<g>
		<g>
			<path d="M1328.1,125.4c0-1.1,1.1-2.4,2.4-2c0.9,0.4,1.4,1.7,1,2.6c-0.9,1.7,1.7,3.2,2.6,1.5c1.3-2.6,0.1-6.1-2.8-7
				c-3.1-0.9-6.2,1.7-6.2,4.9C1325.1,127.4,1328.1,127.4,1328.1,125.4L1328.1,125.4z" style="fill:#E8E8E8;"/>
		</g>
	</g>
	<g>
		<g>
			<path d="M1334.6,120.5c-0.3-1.4,1.6-1.4,2.3-0.9c1.3,1,1.2,2.7,0.8,4.1c-0.5,1.9,2.4,2.7,2.9,0.8
				c0.9-3.2,0-7.1-3.5-8.1c-3.1-0.9-6,1.8-5.4,4.9C1332.1,123.1,1335,122.3,1334.6,120.5L1334.6,120.5z" style="fill:#E8E8E8;"/>
		</g>
	</g>
	<g>
		<g>
			<path d="M1330.6,129.2c2.4,2.8,6.9,2.3,8.9-0.6c1.1-1.6-1.5-3.1-2.6-1.5c-1,1.4-3.2,1.2-4.2,0
				C1331.4,125.7,1329.3,127.8,1330.6,129.2L1330.6,129.2z" style="fill:#E8E8E8;"/>
		</g>
	</g>
	<g>
		<g>
			<path d="M1329.3,115.7c0.6-1,1.9-1.2,2.9-0.7c1.4,0.7,1.9,2.4,2,3.8c0.1,1.9,3.1,1.9,3,0c-0.2-2.7-1.4-5.7-4.2-6.7
				c-2.3-0.9-5.1-0.1-6.3,2.1C1325.7,115.8,1328.3,117.3,1329.3,115.7L1329.3,115.7z" style="fill:#E8E8E8;"/>
		</g>
	</g>
	<g>
		<g>
			<path d="M428,425.5c45.3,0,90.7,0,136,0c1.9,0,1.9-3,0-3c-45.3,0-90.7,0-136,0C426.1,422.5,426.1,425.5,428,425.5
				L428,425.5z" style="fill:#E8E8E8;"/>
		</g>
	</g>
	<g>
		<g>
			<path d="M546.5,424c0,12,0,24,0,36c0,1.9,3,1.9,3,0c0-12,0-24,0-36C549.5,422.1,546.5,422.1,546.5,424L546.5,424z" style="fill:#E8E8E8;"/>
		</g>
	</g>
	<g>
		<g>
			<path d="M522.7,465.5c31.1,0,62.2,0,93.3,0c1.9,0,1.9-3,0-3c-31.1,0-62.2,0-93.3,0
				C520.7,462.5,520.7,465.5,522.7,465.5L522.7,465.5z" style="fill:#E8E8E8;"/>
		</g>
	</g>
	<g>
		<g>
			<path d="M1217.3,485.5c46.7,0,93.3,0,140,0c1.9,0,1.9-3,0-3c-46.7,0-93.3,0-140,0
				C1215.4,482.5,1215.4,485.5,1217.3,485.5L1217.3,485.5z" style="fill:#E8E8E8;"/>
		</g>
	</g>
	<g>
		<g>
			<path d="M1176,450.8c31.6,0,63.1,0,94.7,0c1.9,0,1.9-3,0-3c-31.6,0-63.1,0-94.7,0
				C1174.1,447.8,1174.1,450.8,1176,450.8L1176,450.8z" style="fill:#E8E8E8;"/>
		</g>
	</g>
	<g>
		<g>
			<path d="M1257.2,452c0,10.2,0,20.4,0,30.7c0,1.9,3,1.9,3,0c0-10.2,0-20.4,0-30.7
				C1260.2,450.1,1257.2,450.1,1257.2,452L1257.2,452z" style="fill:#E8E8E8;"/>
		</g>
	</g>
</g>
<g id="chair">
	<path d="M802.8,717.5c0.6,5.9,1.2,11.7,1.8,17.6c73.1-0.5,146.3-1,219.4-1.4c-0.8-5.6-1.6-11.1-2.4-16.7
		c-21.9-8.9-56.7-20-100.6-21.2C868,694.3,826.3,707.8,802.8,717.5z" style="fill:#FFFFFF;"/>
	<g>
		<g>
			<path d="M804.3,736.2c73.1,0,146.1,0,219.2,0c3.9,0,3.9-6,0-6c-73.1,0-146.1,0-219.2,0
				C800.4,730.2,800.4,736.2,804.3,736.2L804.3,736.2z" style="fill:#161616;"/>
		</g>
	</g>
	<g>
		<g>
			<path d="M807.1,718.9c53.6-25.4,115.5-31,172.7-14.8c13.5,3.8,26.7,8.8,39.4,14.8c3.5,1.7,6.5-3.5,3-5.2
				c-57.1-27.2-123.1-32.3-183.6-13.5c-11.8,3.7-23.4,8.2-34.6,13.5C800.6,715.4,803.7,720.6,807.1,718.9L807.1,718.9z" style="fill:#161616;"/>
		</g>
	</g>
	<g>
		<g>
			<path d="M799.9,717.4c0,4.2,0,8.4,0,12.7c0,3.9,6,3.9,6,0c0-4.2,0-8.4,0-12.7C805.9,713.5,799.9,713.5,799.9,717.4
				L799.9,717.4z" style="fill:#161616;"/>
		</g>
	</g>
	<g>
		<g>
			<path d="M1020.4,717.4c0,5.6,0,11.3,0,16.9c0,3.9,6,3.9,6,0c0-5.6,0-11.3,0-16.9
				C1026.4,713.5,1020.4,713.5,1020.4,717.4L1020.4,717.4z" style="fill:#161616;"/>
		</g>
	</g>
	<g>
		<g>
			<path d="M913.5,735.3c0,71.1,0,142.2,0,213.3c0,3.9,6,3.9,6,0c0-71.1,0-142.2,0-213.3
				C919.5,731.5,913.5,731.5,913.5,735.3L913.5,735.3z" style="fill:#161616;"/>
		</g>
	</g>
	<g>
		<g>
			<path d="M912.4,948.3c-16.4,7.6-32.7,15.1-49.1,22.7c-3.5,1.6-0.5,6.8,3,5.2c16.4-7.6,32.7-15.1,49.1-22.7
				C918.9,951.8,915.9,946.7,912.4,948.3L912.4,948.3z" style="fill:#161616;"/>
		</g>
	</g>
	<g>
		<g>
			<path d="M915,952.3c18.5,8.1,37,16.2,55.5,24.3c3.5,1.5,6.6-3.6,3-5.2c-18.5-8.1-37-16.2-55.5-24.3
				C914.5,945.6,911.5,950.8,915,952.3L915,952.3z" style="fill:#161616;"/>
		</g>
	</g>
	<g>
		<g>
			<path d="M865.2,978.7c35.2-0.3,70.3-1.1,105.5-2.5c3.8-0.2,3.9-6.2,0-6c-35.1,1.4-70.3,2.2-105.5,2.5
				C861.3,972.7,861.3,978.7,865.2,978.7L865.2,978.7z" style="fill:#161616;"/>
		</g>
	</g>
	<g>
		<g>
			<path d="M872.3,738.3c13.9,15.5,26.8,31.8,38.5,48.9c2.2,3.2,7.4,0.2,5.2-3c-12-17.6-25.2-34.3-39.5-50.2
				C874,731.2,869.8,735.4,872.3,738.3L872.3,738.3z" style="fill:#161616;"/>
		</g>
	</g>
	<g>
		<g>
			<path d="M967.6,732.8c-20.2,15-38.3,32.5-53.4,52.7c-2.3,3.1,2.9,6.1,5.2,3c14.4-19.3,31.9-36.2,51.2-50.5
				C973.7,735.7,970.8,730.5,967.6,732.8L967.6,732.8z" style="fill:#161616;"/>
		</g>
	</g>
</g>
<g id="girl">
	<g id="leg_right">
		<path d="M690.2,881.6c2.4,21.3,4.7,42.6,7.1,63.9c-35.2,29.1-51.2,46.2-48,51.3c3.8,6,33.8-4.2,90.2-30.9
			c-2.9-27.4-5.8-54.8-8.8-82.2C717.2,883,703.7,882.3,690.2,881.6z" style="fill:#161616;stroke:#161616;stroke-width:3;stroke-miterlimit:10;"/>
		<path d="M860.5,586.8c5.1,13.3,11.6,36.6,5.6,63.9c-3.1,14.2-9.3,28.1-28.6,54c-15.9,21.3-40.8,50.8-78,82.4
			c-5.4,12.4-11.2,29.6-13.5,50.4c-3,27.5,1.3,50.3,5.6,65.3c-4.8,3-18.4,10.6-37.7,10.5c-22-0.1-36.9-10.3-41.2-13.4
			c-3.4-20.6-5.8-45.8-4.6-74.5c1.2-29.3,5.9-54.7,11.1-75.3c10-10.7,26.1-27.1,47.7-45.4c31.1-26.3,44.9-32.5,58.1-50.4
			c10-13.7,20.9-35.9,19.9-71.7C823.3,583.9,841.9,585.4,860.5,586.8z" style="fill:#EC615B;"/>
		<path d="M847.4,587.2c-12,6.7-5.5,32-7.7,56.3c-2.7,29.4-17.4,49.2-38,77c-25.8,34.8-55.6,55.3-75.1,66.4
			c-4.8,42.2-9.6,84.4-14.4,126.6c4.4-0.1,9.6-0.6,15.4-1.9c10.2-2.3,18.1-6.3,23.6-9.6c-1.8-5.2-4-12.6-5.3-21.7
			c-1.5-10.1-1.3-17.7-1-27.4c0.4-11.5,0.7-22.2,3.9-36.1c1.6-7.3,4.5-17.4,9.6-28.9c7-6.3,14.1-12.9,21.2-19.7
			c15.3-14.7,26.7-25.6,39.9-40.9c22-25.3,31.9-42.8,34.7-47.6c4.7-8.5,7.3-13.1,9.6-20.2c7.2-21.8,4.3-41.1,2.9-49.6
			c-1-6.2-2.8-14.1-6.3-23.1C856.7,585.7,851.7,584.8,847.4,587.2z" style="opacity:0.12;fill:#3D3D3D;"/>
		<path d="M757.9,788.4c-12.2,17.6-17.8,33.3-20.7,44.3c-1.7,6.4-2.5,11.7-5.8,38.5c-2,16.6-3.6,30.6-4.8,40.9
			c8-3,16-6.1,24.1-9.1c-5.1-18.6-6.3-34.7-6.3-46.2c0-5,0.2-17.9,3.4-34.2C750.4,808.8,754.3,797.3,757.9,788.4z" style="opacity:0.16;fill:#3D3D3D;"/>
	</g>
	<g id="leg_left">
		<path d="M782,887.5c2.4,21.3,4.7,42.6,7.1,63.9c-35.2,29.1-51.2,46.2-48,51.3c3.8,6,33.8-4.2,90.2-30.9
			c-2.9-27.4-5.8-54.8-8.8-82.2C809,888.9,795.5,888.2,782,887.5z" style="fill:#161616;stroke:#161616;stroke-width:3;stroke-miterlimit:10;"/>
		<path d="M915.4,602.6c3.7,13.7,7.5,33.6,6.6,57.7c-0.1,1.4-1.1,24.9-6.6,42.6c-15.4,49.9-74.2,79.2-90.8,86.9
			c1.4,11.9,3,23.8,4.7,35.9c3.7,26.3,7.7,51.9,12.2,76.9c-2.3,2.4-15.9,16.4-39.3,17.6c-23.3,1.2-38.6-11.2-41.2-13.4
			c-8.5-18.8-19.1-49.8-17.8-88.6c0.8-22.5,5.4-41.5,10.3-56c22.8-31.4,41.1-55.7,53.4-71.9c23.4-30.8,29.3-37.5,34.6-52.7
			c8.4-23.7,4.7-37.1,15.9-44.3C865.4,588.2,881.1,586.2,915.4,602.6z" style="fill:#EC615B;"/>
		<path d="M888,612.8c-12.5,16.6-7.6,33-13.1,54.1c-7.7,29.8-25.6,49.9-51,78.4c-12.2,13.6-23.4,24-31.7,31.1
			c6.8,47.3,13.7,94.6,20.5,141.8c3.4-0.5,8.4-1.6,13.8-4.4c7.2-3.7,11.8-8.7,14.2-11.8c-1-6.5-2-13.1-2.9-19.6
			c-4.6-30.9-9-61.9-13.3-92.9c5.8-2.8,14-7,23.6-12.6c10.8-6.4,20.4-12.1,31.1-21.5c4.8-4.2,12.4-11,20.2-21.9
			c3.6-5,16.2-23.1,20.2-47.1c0.9-5.3,1.4-11.7,1.7-15c0.2-1.9,1.2-14.1,1-24.6c-0.1-8.6-1.2-23.7-6.8-43.8c-1.6-1.4-4-3.1-7.2-3.5
			C899,598.3,891,608.8,888,612.8z" style="opacity:0.18;fill:#3D3D3D;"/>
		<path d="M824.2,790.7c-1.2,14.2-2.2,28.7-3,43.6c-1.5,28.6-2.1,56.2-1.9,82.5c3.2-1.2,7.1-3,11.3-5.6
			c4.4-2.8,7.9-5.8,10.5-8.3C835.5,865.4,829.9,828,824.2,790.7z" style="opacity:0.16;fill:#3D3D3D;"/>
	</g>
	<g id="hand_right">
		<path d="M801.2,395.8c-6.1,2.4-14.9,6.9-22.4,15.4c-2.4,2.8-9.1,10.9-15,39.3c-6,28.8-9.4,55.6-9.4,55.6
			c-1.2,9.6-2.3,19.1-9.4,23.2c-5,2.8-11.5,2.3-16.1,0.3c-4.8-2-7.1-5.7-11.9-13c-3.5-5.4-5.8-9-6.3-14c-0.4-4.1,0.7-6.6,2.8-12.6
			c4.3-12.6,6.8-20.2,6.6-29c-0.1-3.5-0.3-12.8-5.6-15.4c-1.6-0.8-4.1-1.1-5.6,0c-1.6,1.2-1.2,3.4-1.4,8.2
			c-0.2,6.6-0.4,9.9-2.1,11.6c-2.8,2.8-8.5,1.5-11.9,0.7c-2.6-0.6-12.2-2.9-16.8-10.9c-1.5-2.7-0.9-3.1-3.5-19.8
			c-1-6.6-2-11.8-4.5-12.3c-2.1-0.4-3.9,2.5-5.9,1.7c-2-0.8-1.4-4.2-3.1-4.8c-1.8-0.6-3.2,2.7-6.3,2.7c-2.5,0-3.2-2-4.9-1.7
			c-2.4,0.5-3.4,4.9-4.2,8.5c-0.6,2.7-1.2,6.8-1,11.9c-1.6,0.3-3.7,1-4.5,2.7c-1,1.9,0.2,3.7,1.4,7.9c1.7,5.6,0.7,5.9,2.1,9.9
			c0.4,1.1,1.5,4.3,5.6,9.6c3.3,4.4,7.6,9.9,15,14.7c9.7,6.2,19.4,7.5,24.8,7.9c1.1,2.2,2.7,5.6,4.2,9.9c3.4,9.8,3.3,16.2,4.2,21.8
			c2.9,19,16,32.1,18.5,34.5c4.3,4.2,11.2,10.7,22.4,13c2.3,0.5,16.4,3.1,28.6-5.1c3.8-2.5,7.7-6.3,14-18.4
			c8.9-17.1,12.5-31.8,13.6-36.2c3.4-13.7,7.6-31.4,9.4-56.3C803.8,441.4,804.1,420.5,801.2,395.8z" style="fill:#FFFFFF;"/>
		<g>
			<g>
				<path d="M793.4,396.9c-15.4,8.3-24.4,23.9-29,40.4c-5.8,20.7-7.6,42.8-10.8,64c-1.4,9.1-2.6,24.2-12.9,28.1
					c-9.7,3.7-20.1-8.9-23.8-16.5c-4.8-9.8-3.7-19.8-0.5-29.9c2.7-8.5,6-17.1,5-26.3c-0.5-4-3.8-16.1-9.9-14.8c-3,0.6-4.4,5.2-5,7.7
					c-0.9,3.5,0,18.9-6.5,17.1c-1.9-0.5-2.7,2.4-0.8,2.9c7.6,2.2,9-6.5,9.4-12c0.2-2.9,0.3-5.9,1.2-8.6c1.5-4.4,4.7-2.5,6.4,0.6
					c2.6,4.7,2.8,10.5,2.1,15.7c-1.4,10.2-6.6,19.4-7.6,29.6c-0.8,7.9,1.3,15.9,5.4,22.7c3.9,6.4,10.2,12.7,17.5,15.2
					c7.5,2.6,14.3-3.7,17.7-9.9c4.8-8.7,5.2-19.6,6.6-29.2c1.7-11.3,3.3-22.6,5.1-33.9c3.6-22.9,9.9-48.3,32-60.2
					C796.7,398.6,795.1,396,793.4,396.9L793.4,396.9z" style="fill:#161616;"/>
			</g>
		</g>
		<g>
			<g>
				<path d="M798.3,479c-2.4,19.6-6.8,39.1-13.7,57.7c-6.1,16.5-17.3,34.3-36.7,35.8c-18.5,1.4-33.8-11.7-42.1-27.2
					c-4.5-8.3-7.2-17.4-9.4-26.5c-2-8.5-2.8-17.7-7.3-25.3c-1-1.7-3.6-0.2-2.6,1.5c4.3,7.3,5,16.4,7,24.6c1.8,7.6,4,15.1,7.2,22.2
					c5.7,12.8,15.1,24.6,28.3,30.2c12.2,5.2,26,4.6,37-3.2c11.5-8.1,17.8-20.9,22.4-33.8c6.4-18.1,10.6-37,12.9-56.1
					C801.5,477.1,798.5,477.1,798.3,479L798.3,479z" style="fill:#161616;"/>
			</g>
		</g>
		<g>
			<g>
				<path d="M701.6,466.8c-7,0.5-17.1-4.4-21.8-9.5c-6.3-6.8-3.8-14.6-4.3-22.9c-0.5-7.2-6.3-20.6-13.3-10.1
					c-1.1,1.6,1.5,3.1,2.6,1.5c3.6-5.4,5.9,1.3,6.5,2.9c0.3,1,0.6,2,0.8,3c0.7,3.7,0.2,7.3,0.1,11c-0.2,5.1,0.5,9.8,3.4,14.1
					c2.5,3.7,6.2,6.4,10.1,8.4c4.7,2.4,10.5,5,15.9,4.6C703.5,469.7,703.5,466.7,701.6,466.8L701.6,466.8z" style="fill:#161616;"/>
			</g>
		</g>
		<g>
			<g>
				<path d="M672.6,459.8c-3.2-5-6.2-10.2-7.2-16.1c-1-5.7,0-11.5-1.2-17.1c-0.6-2.8-1.8-7.1-4.9-7.9
					c-3-0.7-5.4,2.3-6.4,4.7c-0.8,1.8,1.8,3.3,2.6,1.5c0.4-2,1.9-2.5,4.5-1.5c0.5,1,0.9,2.1,1.1,3.2c0.5,1.9,0.6,3.9,0.7,5.9
					c0.1,3.4,0,6.9,0.4,10.3c0.9,6.8,4.1,12.8,7.8,18.5C671,462.9,673.6,461.4,672.6,459.8L672.6,459.8z" style="fill:#161616;"/>
			</g>
		</g>
		<g>
			<g>
				<path d="M663.5,464.7c-3.8-5.2-5.2-12.6-6.3-18.9c-1.1-6.3-0.5-13-1.9-19.3c-0.6-2.8-2.1-7.2-5.7-7.2
					c-4.5-0.1-5.8,5.3-6.4,8.7c-0.3,1.9,2.6,2.7,2.9,0.8c0.1-1,0.3-2,0.5-2.9c3-3.5,4.8-3.5,5.4,0c0.8,2.3,0.8,4.8,0.9,7.2
					c0.2,3.6,0.4,7.3,1,10.9c1.1,7.3,2.6,16.2,7,22.2C662,467.8,664.6,466.3,663.5,464.7L663.5,464.7z" style="fill:#161616;"/>
			</g>
		</g>
		<g>
			<g>
				<path d="M690.1,491.5c-23.6,0.5-43.4-15.4-48.4-38.4c-0.4-1.9-3.3-1.1-2.9,0.8c5.3,24.3,26.5,41.1,51.3,40.6
					C692,494.5,692,491.5,690.1,491.5L690.1,491.5z" style="fill:#161616;"/>
			</g>
		</g>
		<g>
			<g>
				<path d="M658.9,467.4c-3.3-5-5.6-10.4-8-15.9c-1.5-3.4-3.2-9.1-6.8-10.9c-2.8-1.4-5,0.2-5.9,2.9
					c-1.4,4.1-0.3,8.6,1.7,12.3c0.9,1.7,3.5,0.2,2.6-1.5c-1.1-1.9-3.9-13.3,1.6-9.7c1.7,1.1,3.1,5.9,3.9,7.6
					c2.6,5.7,4.9,11.4,8.4,16.6C657.4,470.5,660,469,658.9,467.4L658.9,467.4z" style="fill:#161616;"/>
			</g>
		</g>
		<g>
			<g>
				<path d="M643.2,427.3c-0.4,5-0.7,9.9-1.1,14.9c-0.1,1.9,2.9,1.9,3,0c0.4-5,0.7-9.9,1.1-14.9
					C646.4,425.4,643.4,425.4,643.2,427.3L643.2,427.3z" style="fill:#161616;"/>
			</g>
		</g>
		<path d="M640.4,445c1.4-0.5,3.8,9,11.6,19.1c3.3,4.3,12.9,16.4,29.4,20.9c8.4,2.3,15.7,1.9,20,1.4
			c-0.8,4.5-6.3,38.5,15.3,58.3c2.5,2.3,18.8,16.7,33.5,11.6c6.6-2.3,10.3-7.6,13-11.8c15-23.8,17.3-48.4,24.6-82.6
			c4.5-21,8.3-39,11.2-38.7c3.6,0.3,5,30.5,1.8,57.6c-1.6,13.8-3.6,30.1-12.1,49.9c-9.1,21.2-12.5,32.2-23.7,38.2
			c-14.4,7.8-33.6,4.9-46-4.3c-7.6-5.7-10.8-12.4-16.8-25.5c-5-10.8-10.5-25.6-13.7-44.2c-2.6-0.4-6-1-10-2.3
			c-4.8-1.5-12.6-4-20.3-10.2c-2.5-2-11.3-9.6-15.7-22.5C640.2,453.1,639.2,445.4,640.4,445z" style="opacity:0.11;fill:#3D3D3D;"/>
	</g>
	<g id="hand_left">
		<path d="M917,396.5c6,2.4,14.6,6.9,21.8,15.4c2.4,2.8,8.9,10.9,14.7,39.3c5.8,28.8,9.2,55.6,9.2,55.6
			c1.2,9.6,2.2,19.1,9.2,23.2c4.9,2.8,11.3,2.3,15.7,0.3c4.6-2,7-5.7,11.6-13c3.5-5.4,5.7-9,6.1-14c0.4-4.1-0.7-6.6-2.7-12.6
			c-4.2-12.6-6.7-20.2-6.5-29c0.1-3.5,0.3-12.8,5.5-15.4c1.6-0.8,4-1.1,5.5,0c1.6,1.2,1.2,3.4,1.4,8.2c0.2,6.6,0.4,9.9,2,11.6
			c2.7,2.8,8.3,1.5,11.6,0.7c2.5-0.6,11.9-2.9,16.4-10.9c1.5-2.7,0.9-3.1,3.4-19.8c1-6.6,1.9-11.8,4.4-12.3c2.1-0.4,3.8,2.5,5.8,1.7
			c1.9-0.8,1.3-4.2,3.1-4.8c1.8-0.6,3.1,2.7,6.1,2.7c2.4,0,3.1-2,4.8-1.7c2.3,0.5,3.3,4.9,4.1,8.5c0.6,2.7,1.2,6.8,1,11.9
			c1.6,0.3,3.6,1,4.4,2.7c0.9,1.9-0.1,3.7-1.4,7.9c-1.6,5.6-0.7,5.9-2,9.9c-0.4,1.1-1.5,4.3-5.5,9.6c-3.3,4.4-7.4,9.9-14.7,14.7
			c-9.5,6.2-19,7.5-24.2,7.9c-1.1,2.2-2.7,5.6-4.1,9.9c-3.3,9.8-3.3,16.2-4.1,21.8c-2.8,19-15.6,32.1-18.1,34.5
			c-4.2,4.2-10.9,10.7-21.8,13c-2.2,0.5-16,3.1-28-5.1c-3.7-2.5-7.5-6.3-13.7-18.4c-8.6-17.1-12.3-31.8-13.3-36.2
			c-3.3-13.7-7.4-31.4-9.2-56.3C914.5,442.2,914.2,421.2,917,396.5z" style="fill:#FFFFFF;"/>
		<g>
			<g>
				<path d="M923.2,400.2c19.3,10.7,26.5,32.5,30,53c1.9,11.1,3.4,22.4,5.1,33.6c1.5,10.5,2.1,22,5.6,32.1
					c2.2,6.4,7.2,14.2,14.5,15.2c7,1,14.7-6.2,18.7-11.2c4.9-6,7.9-13.5,8.5-21.2c0.8-10.1-3.5-19.4-6.1-29
					c-1.5-5.5-2.4-11.2-1.2-16.8c0.5-2.5,1.3-5.9,3.3-7.7c4.3-4,5.3,2.8,5.7,5.8c0.7,5.5,0,19.1,9.5,16.4c1.9-0.5,1.1-3.4-0.8-2.9
					c-6.2,1.8-5.5-11.9-5.9-14.8c-0.4-2.9-1.3-7.1-3.8-9.1c-4.7-3.7-9.1,5.6-10.2,8.8c-6,18.4,10,35.4,5.8,54
					c-2.1,9.2-7.9,17.5-15.9,22.4c-12.9,7.8-19.4-8.8-21.2-18.8c-3.7-20.9-5.4-42.1-9.6-62.9c-3.9-19.4-12.2-39.3-30.4-49.3
					C923,396.7,921.5,399.3,923.2,400.2L923.2,400.2z" style="fill:#161616;"/>
			</g>
		</g>
		<g>
			<g>
				<path d="M916.9,479.8c2,16.7,5.4,33.1,10.4,49.2c4.3,13.8,9.6,28.4,20.9,38.2c9.9,8.6,22.8,11.4,35.3,7.3
					c12.9-4.2,22.6-14.4,29-26.1c4.1-7.6,6.9-15.9,9-24.3c2.3-9.2,2.9-19.8,7.7-28.2c1-1.7-1.6-3.2-2.6-1.5
					c-4.4,7.6-5.1,16.8-7.1,25.3c-2.1,9.1-4.8,18.2-9.2,26.5c-8,15.2-22.8,28.6-41.1,27.2c-19.1-1.5-29.9-19.6-35.8-35.8
					c-6.7-18.6-11.1-38.1-13.4-57.7C919.7,477.9,916.7,477.8,916.9,479.8L916.9,479.8z" style="fill:#161616;"/>
			</g>
		</g>
		<g>
			<g>
				<path d="M1014.4,470.5c5.1,0.4,10.3-2.1,14.8-4.3c4.2-2,8-4.8,10.7-8.8c2.7-4,3.5-8.4,3.4-13.1
					c-0.1-3.6-0.6-7.1-0.2-10.6c0.2-1.5,0.5-2.9,1-4.3c0.6-1.8,2.9-8.2,6.3-2.9c1,1.6,3.6,0.1,2.6-1.5c-6.8-10.6-12.6,3.1-13,10.1
					c-0.5,8.2,2,16-4.2,22.9c-4.6,5.1-14.4,10.1-21.3,9.5C1012.5,467.4,1012.5,470.4,1014.4,470.5L1014.4,470.5z" style="fill:#161616;"/>
			</g>
		</g>
		<g>
			<g>
				<path d="M1045.3,462c3.5-5.4,6.5-11.2,7.5-17.7c0.5-3.1,0.5-6.2,0.5-9.4c0-1.9,0.1-3.7,0.4-5.6
					c0.1-1,0.3-1.9,0.5-2.8c0.2-3.2,1.9-3.7,5.1-1.3c0.7,1.8,3.6,1,2.9-0.8c-0.9-2.3-2.7-5.1-5.5-5.2c-3.5-0.1-4.9,4.6-5.5,7.3
					c-1.3,5.4-0.5,10.9-1.2,16.4c-0.8,6.5-3.8,12.2-7.3,17.6C1041.7,462.1,1044.3,463.6,1045.3,462L1045.3,462z" style="fill:#161616;"/>
			</g>
		</g>
		<g>
			<g>
				<path d="M1054.2,467c4.4-6.1,5.8-15,6.9-22.2c0.5-3.6,0.8-7.2,0.9-10.9c0.1-2.4,0.1-4.9,0.9-7.2
					c0.5-3.4,2.3-3.4,5.2,0c0.2,1,0.4,1.9,0.5,2.9c0.3,1.9,3.2,1.1,2.9-0.8c-0.5-3.3-1.7-8.6-6-8.7c-3.7-0.1-5.2,4.3-5.8,7.2
					c-1.3,6-0.7,12.3-1.7,18.4c-1.1,6.5-2.4,14.3-6.3,19.8C1050.5,467,1053.1,468.5,1054.2,467L1054.2,467z" style="fill:#161616;"/>
			</g>
		</g>
		<g>
			<g>
				<path d="M1025.6,495.3c24.7,0.5,45.1-16.7,50.2-40.6c0.4-1.9-2.5-2.7-2.9-0.8c-4.8,22.6-23.9,38.9-47.3,38.4
					C1023.7,492.3,1023.7,495.3,1025.6,495.3L1025.6,495.3z" style="fill:#161616;"/>
			</g>
		</g>
		<g>
			<g>
				<path d="M1058.7,469.6c3.5-5.3,5.7-11.2,8.3-17c0.8-1.7,2-6.3,3.7-7.3c5.5-3.5,2.4,8.1,1.5,9.7
					c-0.9,1.7,1.7,3.2,2.6,1.5c1.9-3.4,4.5-18.3-3.6-15.4c-3.7,1.3-5.3,6.9-6.7,10c-2.6,5.8-4.8,11.6-8.3,17
					C1055,469.7,1057.6,471.2,1058.7,469.6L1058.7,469.6z" style="fill:#161616;"/>
			</g>
		</g>
		<g>
			<g>
				<path d="M1068.4,428c0.4,5,0.7,9.9,1.1,14.9c0.1,1.9,3.1,1.9,3,0c-0.4-5-0.7-9.9-1.1-14.9
					C1071.3,426.1,1068.3,426.1,1068.4,428L1068.4,428z" style="fill:#161616;"/>
			</g>
		</g>
		<path d="M925.6,416.1c2.2,13.1,6,35.8,10.6,64.4c7.5,46,9.7,61.5,21.8,67.3c10.9,5.2,26.2,1,35.4-6.5
			c19.4-15.6,9.2-42.9,28.3-53.7c8.5-4.8,13.4-1.2,25.4-8.9c8.9-5.7,14.5-13.1,17.1-16.5c7-9.3,8.4-18.1,10-17.7
			c1.3,0.3,1.1,6.2,0.5,10.3c-0.3,2.2-1.7,10-8,18.6c-8.2,11.2-19,16-23.7,17.7c-6,2.2-11.4,2.9-15.1,3.1c-0.8,2.1-1.9,5.4-3.1,9.5
			c-5.2,17.5-3.8,21.3-7.5,31.7c-1.9,5.4-6.1,14.9-14.6,23.9c-3.5,3.7-8.2,8.6-16.2,12c-2,0.9-9.4,4-17.5,3.3
			c-18-1.5-29.2-21-33.2-27.9c-2.8-4.9-3.6-7.4-12.4-39c-14.8-52.9-3.7-13.7-9.7-35.7c-8.7-31.6-11.4-39.1-6.9-46.1
			C909.3,422.5,914.1,417.9,925.6,416.1z" style="opacity:0.13;fill:#3D3D3D;"/>
	</g>
	<g id="torso">
		<path d="M793.8,401.5c-9.3,13.5-9.6,30.6-10,54.3c-0.4,23.6,3.4,40.1,6.7,56.6c4.4,22,9.7,53.7,13.3,94.1
			c17.9,4.7,43,8.9,72.7,6.7c15.4-1.1,29-3.7,40.5-6.7c0.2-33.9,2.7-61.1,5-79.5c3-24.2,5.2-31.7,6.7-52.7
			c2.7-40.3,4.1-60.5-5.5-74.5C899.2,365.2,818.3,365.8,793.8,401.5z" style="fill:#FFFFFF;stroke:#161616;stroke-width:3;stroke-miterlimit:10;"/>
		<path d="M874.2,376.6c9.5,43,16.8,105.4,2.4,177.2c-4.5,22.5-10.5,42.8-17.1,60.8c9.2-0.8,19.1-1.9,29.5-3.5
			c9.7-1.5,18.7-3.3,27.2-5.3c0.1-8.5,0.5-21.5,1.8-37.2c1.8-22.1,3.7-30.1,8.9-67.3c5.1-37,6.6-53.1,4.1-73.8
			c-2.2-18.9-5.8-25.8-9.4-30.7C907.4,378,881.6,376.7,874.2,376.6z" style="opacity:9.000000e-002;fill:#3D3D3D;"/>
		<path d="M925,402.6c-1.6,0-1.6,13.1-5.9,42.5c-2.4,16.8-5.4,31.9-11.2,62c-3.8,19.4-5.7,29.1-6.5,32.5
			c-4.5,17.9-13.6,43.5-34.3,73.2c15.9-2.2,31.9-4.3,47.8-6.5c1.5-19.8,3-36.8,4.1-50.2c2.4-27,3.6-40.6,5.3-56.7
			c3.3-30.1,4.2-31,4.7-43.7C930.2,428.4,927.2,402.6,925,402.6z" style="opacity:9.000000e-002;fill:#3D3D3D;"/>
	</g>
	<g id="head">
		<path d="M803.7,268.1c-6.2,12.8-5.9,24-5.3,45.5c0.5,20.7,0.9,36.3,11.2,43.7c9.7,7,19.4,0.4,29.2,10
			c1.8,1.7,9.3,9.1,8.6,18c-0.3,4.1-2.2,6.3-0.9,9.4c2.1,4.9,9.3,6,10.9,6.2c7.3,1.1,12.9-2.5,14.5-3.5c3-2,4.8-4.3,5.6-5.3
			c7.5-10,10.2-25.1,14.2-34c8.4-18.7,24.2-12.8,33.4-31.6c7.3-15.1,3.1-31.1,1.5-37.2c-4.3-16.2-13.9-26-22.1-34.5
			c-12.1-12.5-22-22.5-36.9-25.1C841.7,225.2,814.6,245.5,803.7,268.1z" style="fill:#FFFFFF;"/>
		<path d="M848.2,339c0.7-0.3,1.4,0.8,3.4,2.1c3.6,2.3,8.6,3.3,12.9,2.2c4-1,6.9-3.8,8.7-5.6c3-3,3.6-5,4.9-4.8
			c1.9,0.3,3.5,5.6,1.8,9.7c-1,2.4-2.8,3.8-4.7,5.2c-0.9,0.7-4.9,3.4-10.8,4c-3.4,0.3-5.9-0.2-7.9-0.6c-3.1-0.6-4.7-0.9-6-2.1
			C846.9,346.2,846.7,339.7,848.2,339z"/>
		<g>
			<g>
				<path d="M805.4,286.7c3.9,34.8,17.3,72.7,52.6,86.5c1.8,0.7,2.6-2.2,0.8-2.9c-33.9-13.2-46.6-50.3-50.4-83.6
					C808.1,284.8,805.1,284.8,805.4,286.7L805.4,286.7z" style="fill:#161616;"/>
			</g>
		</g>
		<g>
			<g>
				<path d="M913.7,286.9c-4.3,34.8-19.3,70.9-54.7,83.6c-1.8,0.6-1,3.5,0.8,2.9c36.8-13.2,52.5-50.2,56.9-86.5
					C916.9,285,913.9,285,913.7,286.9L913.7,286.9z" style="fill:#161616;"/>
			</g>
		</g>
		<g>
			<g>
				<path d="M854.8,292.7c-0.8,10.9-0.7,21.9,0.6,32.8c0.2,1.9,0,4.8,2.5,5.1c2.5,0.3,5.8-3.6,7.4-5.1
					c1.4-1.3-0.7-3.4-2.1-2.1c-0.6,0.5-4.5,4.2-4.8,4c-0.1,0-0.1-3.3-0.2-3.8c-0.4-3.4-0.6-6.9-0.8-10.3c-0.3-6.9-0.1-13.8,0.4-20.6
					C858,290.7,855,290.8,854.8,292.7L854.8,292.7z" style="fill:#161616;"/>
			</g>
		</g>
		<g>
			<g>
				<path d="M825.1,298.7c6.1-3.6,13.3-3.2,19.2,0.8c1.6,1.1,3.1-1.5,1.5-2.6c-6.7-4.6-15.2-4.8-22.2-0.8
					C822,297.1,823.5,299.7,825.1,298.7L825.1,298.7z" style="fill:#161616;"/>
			</g>
		</g>
		<g>
			<g>
				<path d="M879.4,298.7c6.1-3.6,13.3-3.2,19.2,0.8c1.6,1.1,3.1-1.5,1.5-2.6c-6.7-4.6-15.2-4.8-22.2-0.8
					C876.2,297.1,877.7,299.7,879.4,298.7L879.4,298.7z" style="fill:#161616;"/>
			</g>
		</g>
		<g>
			<g>
				<path d="M849.3,346.8c-2.8-6.3-1.1-8.7,5.1-7.2c0.4,0.3,0.8,0.5,1.2,0.8c1.3,0.4,1.5,1,2.9,1.4
					c1.9,0.5,3.9,0.2,5.7-0.6c3-1.2,5-3.6,7.8-5.2c2.5-1.5,3.9-1.8,6.3,0.1c3,2.5,2.3,5.3,0.1,8.2c-1.2,1.5,1.4,3,2.6,1.5
					c2.9-3.8,3.6-10.7-1.3-13.4c-5.8-3.1-10.4,2.7-14.8,5.1c-5.6,3.1-7.3-1.1-12.2-1.8c-2.2-0.3-4.3,0.6-5.9,2.2
					c-3.4,3.4-3.3,9.3,1.2,11.6C849.5,350.3,851,347.7,849.3,346.8L849.3,346.8z" style="fill:#161616;"/>
			</g>
		</g>
		<g>
			<g>
				<path d="M846.4,347.7c8.9,11,26.9,6,35.1-3c1.3-1.4-0.8-3.6-2.1-2.1c-7.2,7.9-23,12.8-30.8,3
					C847.3,344,845.2,346.2,846.4,347.7L846.4,347.7z" style="fill:#161616;"/>
			</g>
		</g>
		<g>
			<g>
				<path d="M829.5,310.2c0.1-0.1,0.2-0.2,0.2-0.2c0.6-0.6,0.6-1.5,0-2.1c-0.6-0.6-1.5-0.6-2.1,0
					c-0.1,0.1-0.2,0.2-0.2,0.2c-0.6,0.6-0.6,1.5,0,2.1C828,310.8,829,310.8,829.5,310.2L829.5,310.2z" style="fill:#161616;"/>
			</g>
		</g>
		<g>
			<g>
				<path d="M838.1,306.3c0,0.1,0,0.2,0,0.2c0,0.8,0.7,1.5,1.5,1.5c0.8,0,1.5-0.7,1.5-1.5c0-0.1,0-0.2,0-0.2
					c0-0.8-0.7-1.5-1.5-1.5C838.8,304.9,838.1,305.5,838.1,306.3L838.1,306.3z" style="fill:#161616;"/>
			</g>
		</g>
		<g>
			<g>
				<path d="M836.9,314.2c0,0.1,0,0.2,0,0.2c0,0.8,0.7,1.5,1.5,1.5c0.8,0,1.5-0.7,1.5-1.5c0-0.1,0-0.2,0-0.2
					c0-0.8-0.7-1.5-1.5-1.5C837.6,312.7,836.9,313.3,836.9,314.2L836.9,314.2z" style="fill:#161616;"/>
			</g>
		</g>
		<g>
			<g>
				<path d="M883.2,303.2c-0.1,0.1-0.2,0.2-0.2,0.2c-0.6,0.6-0.6,1.5,0,2.1c0.6,0.6,1.5,0.6,2.1,0
					c0.1-0.1,0.2-0.2,0.2-0.2c0.6-0.6,0.6-1.5,0-2.1C884.8,302.6,883.8,302.6,883.2,303.2L883.2,303.2z" style="fill:#161616;"/>
			</g>
		</g>
		<g>
			<g>
				<path d="M893.2,302.8c0,0.2,0,0.3,0,0.5c0,0.8,0.7,1.5,1.5,1.5c0.8,0,1.5-0.7,1.5-1.5c0-0.2,0-0.3,0-0.5
					c0-0.8-0.7-1.5-1.5-1.5C893.9,301.3,893.2,302,893.2,302.8L893.2,302.8z" style="fill:#161616;"/>
			</g>
		</g>
		<g>
			<g>
				<path d="M890.8,311.8c0,0.1,0,0.2,0,0.2c0,0.8,0.7,1.5,1.5,1.5c0.8,0,1.5-0.7,1.5-1.5c0-0.1,0-0.2,0-0.2
					c0-0.8-0.7-1.5-1.5-1.5C891.5,310.3,890.8,310.9,890.8,311.8L890.8,311.8z" style="fill:#161616;"/>
			</g>
		</g>
		<g>
			<g>
				<path d="M825.4,280.8c3.8-5.8,10.9-7.5,17-4.3c1.7,0.9,3.2-1.7,1.5-2.6c-7.7-4-16.3-1.8-21.1,5.4
					C821.7,280.9,824.3,282.4,825.4,280.8L825.4,280.8z" style="fill:#161616;"/>
			</g>
		</g>
		<g>
			<g>
				<path d="M880,275.6c6.2-5.1,13.9-1.4,19,3.3c1.4,1.3,3.5-0.8,2.1-2.1c-6.4-5.9-15.7-9.6-23.2-3.3
					C876.4,274.7,878.5,276.8,880,275.6L880,275.6z" style="fill:#161616;"/>
			</g>
		</g>
		<g>
			<g>
				<path d="M843.7,365.9c1.8,9.2,2.1,18.4,1.1,27.7c-0.2,1.9,2.8,1.9,3,0c1-9.6,0.6-19.1-1.3-28.5
					C846.2,363.2,843.3,364,843.7,365.9L843.7,365.9z" style="fill:#161616;"/>
			</g>
		</g>
		<g>
			<g>
				<path d="M877.3,362.2c-1.7,10-2.1,20.1-1,30.2c0.2,1.9,3.2,1.9,3,0c-1.1-9.8-0.8-19.6,0.9-29.4
					C880.5,361.1,877.6,360.3,877.3,362.2L877.3,362.2z" style="fill:#161616;"/>
			</g>
		</g>
		<g>
			<g>
				<path d="M845.4,393.7c-0.8,2.4,2.4,4.5,4,5.7c3.1,2.3,6.9,3.7,10.7,3.9c7.7,0.5,16.1-3.5,18.9-10.8
					c0.7-1.8-2.2-2.6-2.9-0.8c-2.2,5.6-8.8,8.7-14.5,8.7c-2.8,0-5.5-0.6-8-1.9c-0.6-0.3-5.6-3.2-5.4-4
					C848.9,392.6,846,391.8,845.4,393.7L845.4,393.7z" style="fill:#161616;"/>
			</g>
		</g>
		<g>
			<g>
				<path d="M845.2,369.3c5,3.4,10.7,6.7,16.9,5.8c6.2-0.9,11.8-5.6,16.4-9.5c1.5-1.3-0.7-3.4-2.1-2.1
					c-4,3.4-9.3,7.9-14.7,8.6c-5.6,0.8-10.5-2.2-15-5.3C845.1,365.6,843.6,368.2,845.2,369.3L845.2,369.3z" style="fill:#161616;"/>
			</g>
		</g>
		<g>
			<g>
				<path d="M846.4,371.7c3.2,5.5,9.2,5.8,14.9,4.6c6.1-1.2,13.5-3.6,16.8-9.3c1-1.7-1.6-3.2-2.6-1.5
					c-3.8,6.7-21.9,12.8-26.6,4.7C848,368.5,845.4,370,846.4,371.7L846.4,371.7z" style="fill:#161616;"/>
			</g>
		</g>
		<g>
			<g>
				<path d="M847.4,372.4c8,10.1,25.1,7,30.9-3.9c0.9-1.7-1.7-3.2-2.6-1.5c-5,9.4-19.4,11.9-26.2,3.3
					C848.3,368.8,846.2,370.9,847.4,372.4L847.4,372.4z" style="fill:#161616;"/>
			</g>
		</g>
		<g>
			<g>
				<path d="M812.7,322.6c-8.9,4.7-19.6-17.4-4.3-19.2c1.9-0.2,1.9-3.2,0-3c-7.2,0.8-12.5,7.1-10.6,14.5
					c1.8,6.6,9.4,13.9,16.4,10.3C815.9,324.3,814.4,321.7,812.7,322.6L812.7,322.6z" style="fill:#161616;"/>
			</g>
		</g>
		<g>
			<g>
				<path d="M913.6,301.8c3.1-1.5,6.2,3.8,6.8,5.9c0.8,2.7,0.4,5.6-0.4,8.2c-2.1,7-6.8,8.2-13.4,7.6
					c-1.9-0.2-1.9,2.8,0,3c4.1,0.4,8.9,0.7,12.2-2.4c3-2.7,4.6-7.7,4.9-11.6c0.5-5.7-4.2-17-11.6-13.3
					C910.4,300.1,911.9,302.7,913.6,301.8L913.6,301.8z" style="fill:#161616;"/>
			</g>
		</g>
		<path d="M843.4,215.4c-11.3,3.1-24.4,6.8-34.7,17.4c-11.1,11.4-13.6,25.5-15,33.1c-1.1,5.9-0.9,10.6-0.9,10.6
			c0,6.3,1.1,8.8,1.4,15.4c0,0,0.2,4.8-0.5,11.4c-0.4,3.4-5.2,19.6-13,37c-5.8,13-9.1,13.7-11,22c-1,4.4-4.3,18.7,4.3,31.9
			c10.4,15.9,29.3,16.9,30.7,16.9c19.3,0.7,30.9-13.5,32.7-15.7c5-6.3,7-12.8,7.9-16.8c-0.2-2.4-0.4-5-0.8-7.6
			c-0.3-1.9-0.6-3.8-0.9-5.6c-1-0.7-2.3-1.7-3.8-2.9c-6.7-5.5-10.8-10.8-13-13.8c-6.6-8.9-10.5-17.9-12.6-23.8c-0.8,0.4-2,1-3.6,1.1
			c-5.5,0.4-10.6-4.7-12.3-9.9c-0.4-1.3-1.3-4.1-0.2-7.3c1-2.7,3-4.3,4.1-5.2c2.1-1.7,4.2-2.4,5.5-2.7c-0.5-3.4-1.1-6.8-1.6-10.2
			c0.3-1.7,0.8-4.3,2.3-7.1c4.3-8.2,11.2-8.9,28.5-18.7c10-5.7,15.3-9.8,19.8-15.5c1.9-2.4,3.2-4.5,4.1-5.9c1.2,2.4,3,5.9,5.9,9.6
			c3.1,4,6.4,6.9,11.6,10.9c10.5,8,21.8,14.8,23.2,15.7c7.7,4.6,11.7,6.5,13.2,11.2c1.1,3.6,0.2,7.1-0.7,9.4c1.2,0,4.8,0,6.9,2.4
			c0.7,0.8,1,1.7,1.4,3.1c0.2,0.7,1.1,3.3,1.1,6.3c0,1.8-0.1,7.9-4.9,11.7c-5,4-11.2,2.7-12,2.5c-2,5.1-5.2,11.8-10.2,18.8
			c-5.6,7.7-11.7,13.2-16.3,16.7c-0.6,4.7-1.2,9.8-1.4,15.2c-0.2,3.5-0.2,6.8-0.2,10c0.7,2.2,2,5.2,4.3,8.2
			c8.8,11.4,24.3,11.7,28.2,11.8c11.7,0.3,20.4-4.3,26.2-7.3c4.1-2.2,9.7-5.1,15-10.9c8.8-9.5,11.1-20.1,12.1-24.6
			c3.3-15.6-1.1-28.3-3.4-34.8c-5-13.9-9.3-13.8-17.8-29.1c-9.6-17.6-5.7-21-18.4-52.1c-7.1-17.4-11.6-24.3-18.7-30.1
			c-3.2-2.6-10.8-8.5-21.4-9.6c-3.4-0.3-5.9,0-19.8,2.7C851.6,213.6,845.2,214.9,843.4,215.4z" style="fill:#5222D0;"/>
		<g>
			<g>
				<path d="M861.5,244.5c-0.1-0.2-0.2-0.3-0.2-0.5c-0.1,0.6-0.2,1.2-0.2,1.8c0.2-0.1,0.3-0.3,0.5-0.4
					c-0.6,0.1-1.2,0.2-1.8,0.2c2,0.9,4.2,5.3,5.7,7.1c2.1,2.5,4.2,4.9,6.5,7.2c4.1,4.1,8.7,7.8,13.5,11.1
					c10.3,7.1,28.5,12.2,29.1,27.2c0.1,1.9,3.1,1.9,3,0c-0.5-14.2-14.5-20-25-26.2c-6.7-3.9-12.9-8.7-18.4-14.2
					c-3-3-5.8-6.1-8.3-9.5c-1.3-1.7-2.5-4.5-4.5-5.3c-0.7-0.3-1.3-0.2-1.8,0.2c-0.2,0.1-0.3,0.3-0.5,0.4c-0.5,0.5-0.5,1.2-0.2,1.8
					c0.1,0.2,0.2,0.3,0.2,0.5C859.7,247.7,862.2,246.2,861.5,244.5L861.5,244.5z" style="fill:#5222D0;"/>
			</g>
		</g>
		<g>
			<g>
				<path d="M835.5,217.5c-17.6,4.2-32.7,16.9-39.6,33.7c-9.4,22.8,0.5,48.3-8.5,71.3c-7.4,19.2-25.3,38.7-19,60.8
					c4.4,15.5,18.7,27.7,34.8,29.1c20.4,1.8,38.3-13.4,42.2-33c0.4-1.9-2.5-2.7-2.9-0.8c-3.5,17.6-18.7,31.4-37.1,30.9
					c-16.3-0.4-31.7-13.5-34.7-29.6c-3.8-20.8,13.2-39.1,20-57.3c7.5-20,0.9-41.1,5.3-61.5c4.3-20,20.6-35.9,40.3-40.6
					C838.2,219.9,837.4,217,835.5,217.5L835.5,217.5z" style="fill:#5222D0;"/>
			</g>
		</g>
		<g>
			<g>
				<path d="M859.3,215.1c7.9-3.7,16.8-5.8,25.5-4.8c11.8,1.3,21.2,9.1,28.1,18.3c13.3,17.9,12.9,41.1,23.1,60.5
					c8.9,17.1,22.1,32.5,26.8,51.5c5.2,21.4-3.7,44-21.9,56.2c-10.3,6.9-23,10.6-35.3,7.5c-5.6-1.4-11-3.7-15.8-6.9
					c-3.6-2.4-9.7-6.7-8.7-11.8c0.4-1.9-2.5-2.7-2.9-0.8c-1.5,7.7,6.8,13.4,12.5,16.6c9.3,5.3,20,8,30.7,6.3
					c22.6-3.6,41-22.7,45-44.9c4.2-23.3-8.4-43.1-20.1-62.1c-6.6-10.8-12.6-21.7-15.7-34.1c-3.3-13-5.6-25.7-13.2-37
					c-6.8-10.1-16.4-19.5-28.8-22c-10.5-2.1-21.3,0.2-30.8,4.7C856,213.4,857.5,216,859.3,215.1L859.3,215.1z" style="fill:#5222D0;"/>
			</g>
		</g>
		<g>
			<g>
				<path d="M859.5,233.9c1.8,19.1-19.4,26.5-33,33.7c-12.5,6.7-24.3,16.5-26.6,31.3c-0.3,1.9,2.6,2.7,2.9,0.8
					c2.9-18.7,20.5-27.1,35.7-34.7c12.1-6.1,25.5-15.7,24-31.1C862.3,232,859.3,232,859.5,233.9L859.5,233.9z" style="fill:#5222D0;"/>
			</g>
		</g>
		<path d="M934.8,347.2c-1.1,1.9-15.1,26.5-28.6,22.8c-10.2-2.8-13.3-19.7-13.6-21.4c-4.4,4.1-8.8,8.2-13.3,12.3
			c-0.8,3.8-1.8,9.4-2,16.3c-0.3,7-0.4,10.6,1,14c3.2,7.5,11.2,10.5,18.4,13.3c4.2,1.6,13,4.8,24.5,3.4c12.8-1.6,21.2-8,24.5-10.5
			c12.7-9.9,17.4-22.8,19.1-28.9c4.7-16.9,0-31-2-37.1c-3-9.1-8.6-17.9-19.7-35.4c-3-4.6-5.5-8.4-7.1-10.9
			C939.2,294,948.6,322.3,934.8,347.2z" style="opacity:0.19;fill:#3D3D3D;"/>
		<path d="M790.1,316.5c-1.8,5.1-4.1,13.6-3.4,24.2c0.6,8.8,1.3,17.9,8.2,23.5c8.2,6.7,23.8,7.4,29.9-1.4
			c4.4-6.3,1.9-14.7,1.4-16.3c6.4,6.5,12.7,12.9,19.1,19.4c0.6,3.3,1.3,8.9-0.3,15.7c-2.1,8.9-7,14.5-9.2,17
			c-6.1,6.9-12.8,9.9-14.3,10.5c-3,1.3-11.3,4.8-21.8,2.7c-9.5-1.9-15.4-7.2-18.7-10.2c-3.2-3-10.8-10.1-12.9-21.8
			c-1.6-8.8,0.6-15.9,2.4-21.4c2.3-7.4,4.7-9.9,9.9-19.7C782.9,333.5,786.5,326.1,790.1,316.5z" style="opacity:0.23;fill:#3D3D3D;"/>
		<path d="M809.7,298c2.9,8.8,7.5,19.8,15.1,31.4c12.2,18.6,26.6,30.4,36.5,37.1c3.5-0.7,6.9-1.5,10.4-2.2
			c1,4,1.7,9-0.9,11.6c-4,4.1-12-0.7-16.3,2.8c-2.7,2.2-4.3,7.6,0.3,22.3c-2.6-1.9-5.2-3.8-7.9-5.7c-0.5-10.2-1-20.3-1.6-30.5
			c-5.9-4.5-13.8-11.7-20.7-22.3c-4.7-7.1-7.7-13.9-9.7-19.5c-0.6,0.4-3.7,2.6-7.2,1.6c-2.6-0.7-3.9-2.8-5.3-5
			c-1.8-2.8-4-6.2-2.8-10.1c1.1-3.5,4.6-6.2,8.8-6.9C808.6,301.1,809.1,299.5,809.7,298z" style="opacity:6.000000e-002;fill:#3D3D3D;"/>
	</g>
</g>
<g id="fruits">
	<path d="M611.4,345.9c-4.7,1-7.7,3.9-8.7,5c-4.3,4.4-5,9.7-5.3,11.8c-0.7,5.6,1,9.9,2.9,14.7
		c1.8,4.4,5.1,11.1,11.3,18.2c5.3,1.7,9.8,1.8,12.6,1.6c3.7-0.2,9.9-0.6,15.3-5c3.4-2.8,5-6,6.3-8.7c3.4-6.8,3.4-13,3.4-18.7
		c0-7.4,0-11.2-2.6-14.2c-3.1-3.6-9-5.8-14.2-3.9c-2.8,1-4.6,2.8-5.5,3.9C626.2,349.9,619.7,344.2,611.4,345.9z" style="fill:#EC615B;"/>
	<path d="M1059,179.3c-0.1,0.2,0.3,0.6,0.1,0.9c-0.2,0.4-1.2-0.2-2,0.1c-0.7,0.3-0.7,1-1.2,1.7
		c-1.1,1.6-3.4,0.4-5.9,1.6c-1.6,0.7-3.4,2.4-3.7,4.3c-0.1,0.7,0.5,2.1,1.6,5c0.8,2.1,1.2,2.8,1.1,4c-0.1,1.7-0.8,1.9-0.6,2.8
		c0.5,1.9,3.8,1.6,4.7,3.8c0.4,1.1-0.3,1.4,0.2,3c0.1,0.3,0.7,2,2.2,2.9c1.4,0.8,2.4,0.2,3,1c0.6,0.8-0.1,1.6,0.4,3
		c0.5,1.3,1.7,2,2.1,2.2c1.3,0.7,2.5,0.7,2.9,0.7c1.3-0.1,2-0.5,2.1-0.3c0.2,0.3-1.9,1.4-2.2,3.3c0,0.2-0.2,1.1,0.2,2
		c0.9,2,3.6,1.7,4,3.1c0.3,1.2-1.4,1.9-1,3.1c0.3,0.8,1.1,0.7,3,2.1c1.2,0.9,1.1,1.1,2.1,1.8c1.3,0.9,2.4,1.6,3.6,1.3
		c1.7-0.5,2.6-3.2,2.8-3.8c0.2-0.7,0.2-0.9,0.4-1.3c0.8-1.3,1.9-1.1,2.5-2.1c0.4-0.8,0.1-1.7-0.1-2.6c-0.5-1.7-1.3-1.7-1.7-3.1
		c-0.3-1.1-0.1-2.7,0.8-3.3c0.8-0.5,1.5,0.2,2.5-0.3c0.9-0.5,1.3-1.9,1.2-2.9c-0.1-1.8-1.4-1.9-1.4-3.6c0-0.4,0.4-1.5,1.3-3.8
		c0.4-1.1,0.6-1.4,0.6-1.9c0-1-0.5-1.5-1-2.7c0,0-0.4-1-0.9-2.8c-0.7-2.8,0.4-3.5,0-6c-0.4-2.5-1.5-2.1-2.1-4.9
		c-0.6-2.7,0.3-3.7-0.8-5.2c-0.7-1-2-1.7-3.2-1.9c-1.7-0.2-2.1,0.8-3.2,0.4c-1.7-0.5-1.3-2.8-3.1-3.8c-1.4-0.8-3.3-0.5-4.6,0.3
		c-1.6,1.1-1.3,2.8-2.6,3.2C1061.5,181.3,1059.4,178.9,1059,179.3z" style="fill:#5222D0;"/>
	<g>
		<g>
			<path d="M618.3,344.8c-14.6-2.8-23.9,10-22,23.6c1.2,8.4,5.7,16.7,10.3,23.7c4.2,6.3,9.3,7.4,16.5,6
				c1.4-0.3,0.8-2.4-0.6-2.2c-8.2,1.6-11.9-1.4-15.7-8c-3.1-5.4-6.2-10.9-7.7-17c-3-12.4,4.1-26.8,18.6-24
				C619.1,347.3,619.7,345.1,618.3,344.8L618.3,344.8z" style="fill:#161616;"/>
		</g>
	</g>
	<g>
		<g>
			<path d="M615.7,347.2c5.1,0.7,9.7,2.9,13.4,6.4c1.1,1,2.7-0.6,1.6-1.6c-4.2-3.9-9.3-6.3-15-7
				C614.3,344.7,614.3,347,615.7,347.2L615.7,347.2z" style="fill:#161616;"/>
		</g>
	</g>
	<g>
		<g>
			<path d="M622.7,344.9c-1.1-1.5-2.3-3.1-2.7-4.8c-0.8-3,1.3-5.6,4.5-5.3c-0.4-0.4-0.8-0.8-1.1-1.1
				c-0.2,5.6,0.8,11,3.1,16.1c0.6,1.3,2.5,0.2,1.9-1.1c-2.1-4.8-3-9.8-2.8-15c0-0.7-0.5-1.1-1.1-1.1c-2.8-0.3-5.6,1.1-6.6,3.9
				c-1.3,3.4,1,7,2.9,9.6C621.6,347.2,623.6,346.1,622.7,344.9L622.7,344.9z" style="fill:#161616;"/>
		</g>
	</g>
	<g>
		<g>
			<path d="M628,348.6c7.4-1.9,16.4-2.9,19,6.3c1.8,6.6,0.6,13.9-0.8,20.5c-1.2,5.8-2.1,12.6-7.1,16.4
				c-4.4,3.3-10.3,4-15.6,4.5c-1.4,0.1-1.4,2.4,0,2.3c6.3-0.5,13.4-1.4,18.2-5.9c5.7-5.3,6.6-15.1,7.7-22.3c1-6.6,1.9-16.1-3-21.6
				c-4.9-5.5-12.8-4-19-2.4C626,346.8,626.6,349,628,348.6L628,348.6z" style="fill:#161616;"/>
		</g>
	</g>
	<g>
		<g>
			<path d="M626.2,337.4c-2.4-4.9,4.2-8.5,6.7-11.7c1.7-2.2,2.9-4.7,3.8-7.3c-0.7,0-1.4,0-2.2,0c2.6,8-2,15.8-10.3,17.3
				c-1.4,0.3-0.8,2.4,0.6,2.2c9.5-1.7,14.9-10.9,11.9-20c-0.4-1.1-1.8-1.1-2.2,0c-1.8,5.4-5.5,8-8.9,12.2c-2.1,2.6-2.8,5.5-1.4,8.5
				C624.9,339.8,626.9,338.7,626.2,337.4L626.2,337.4z" style="fill:#161616;"/>
		</g>
	</g>
	<g>
		<g>
			<path d="M638.7,356.1c-1,3-1.5,6.2-1.3,9.4c0.1,1.9,0.2,4.9,1.7,6.2c1.1,1,2.7,0.8,3.8-0.1c1.9-1.5,1.4-3.9,0.9-6
				c-0.4-1.4-2.5-0.8-2.2,0.6c0.6,1.2,0.1,2.2-1.4,3c-0.1-0.3-0.2-0.7-0.2-1c-0.7-1-0.4-3.1-0.4-4.3c0-2.5,0.5-4.9,1.2-7.3
				C641.3,355.3,639.2,354.8,638.7,356.1L638.7,356.1z" style="fill:#161616;"/>
		</g>
	</g>
	<g>
		<g>
			<path d="M722.7,153.9c-5.3,3-7.6,8.2-9.6,13.7c-3.2,8.8-6.8,15.3-13.9,21.5c-9.6,8.5-25.8,21-19.2,36
				c5.7,12.9,22.5,12.4,32,4.5c6-5,9.5-12.2,11.4-19.7c2.4-9.6,1.5-19.8,5.5-29c2.9-6.8,7.9-15,3.8-22.5c-2.7-4.9-9.1-6.7-13.5-3.1
				c-1.1,0.9,0.5,2.5,1.6,1.6c3.2-2.5,7.6-1.1,9.7,2c1.8,2.6,1.8,6.2,1.2,9.2c-0.8,4.2-3,7.9-4.7,11.8c-2.9,6.9-3.2,14-4.2,21.3
				c-1.2,9.4-4,19.2-11.2,25.9c-6.4,5.9-15.9,8.4-23.7,3.6c-9-5.5-7.9-16.3-2.9-24.2c4.5-7,11.6-11.7,17.6-17.3
				c4.5-4.2,8.2-8.9,10.5-14.7c2.7-6.7,4-14.8,10.8-18.6C725.1,155.1,724,153.2,722.7,153.9L722.7,153.9z" style="fill:#161616;"/>
		</g>
	</g>
	<g>
		<g>
			<path d="M696.5,221c-10.4-1.2-1.9-19.7,6-14.3c7.2,4.9,1.1,19.1-7.4,14c-1.2-0.8-2.4,1.2-1.1,1.9
				c4.7,2.8,10.7,0.7,13-4.2c2.1-4.7,0.8-11.9-4.3-14.1c-11.4-4.9-19.6,17.5-6.2,19C698,223.4,698,221.1,696.5,221L696.5,221z" style="fill:#161616;"/>
		</g>
	</g>
	<g>
		<g>
			<path d="M679.1,223.4c2.8,10.4,9.3,19.1,20.5,20.5c10.5,1.3,20.4-4,26.2-12.6c3.2-4.8,5.2-10.5,5.9-16.2
				c0.8-6.6-0.3-13.3,0-19.9c0.7-11.8,10.2-25.1,1.1-35.9c-0.9-1.1-2.5,0.5-1.6,1.6c7.7,9.3-0.3,21.5-1.6,31.5
				c-1.4,10.9,1.6,21.4-2.8,32c-4,9.6-12.4,17-23.1,17.4c-12.2,0.5-19.6-8.1-22.6-19.1C680.9,221.4,678.7,222,679.1,223.4
				L679.1,223.4z" style="fill:#161616;"/>
		</g>
	</g>
	<g>
		<g>
			<path d="M915.1,33.4c0.9,6.6,0.5,13.2-1.3,19.7c-0.4,1.4,1.8,2,2.2,0.6c1.8-6.9,2.2-13.8,1.3-20.9
				C917.1,31.4,914.9,32,915.1,33.4L915.1,33.4z" style="fill:#161616;"/>
		</g>
	</g>
	<g>
		<g>
			<path d="M916.6,33.7c6-4.3,6,6.8,6,9.4c-0.1,3.9-0.4,7.8-1.3,11.6c-0.3,1.4,1.9,2,2.2,0.6c0.9-4,1.2-8.1,1.4-12.2
				c0.1-2.7,0.4-5.7-0.7-8.2c-1.4-3.5-5.4-5.5-8.7-3.1C914.3,32.6,915.4,34.6,916.6,33.7L916.6,33.7z" style="fill:#161616;"/>
		</g>
	</g>
	<g>
		<g>
			<path d="M912.9,51.9c-4.7,1.3-7.7,4.7-10.3,8.7c-4.2,6.4-7.8,12.2-14.1,16.8c-9.7,7-32.9,14.5-39.8-0.2
				c-0.6-1.3-2.6-0.2-1.9,1.1c5.8,12.5,23.8,10.3,34.1,5.9c6.6-2.8,12.6-7.2,17.2-12.8c4.8-5.8,7.5-15.2,15.4-17.4
				C914.9,53.6,914.3,51.5,912.9,51.9L912.9,51.9z" style="fill:#161616;"/>
		</g>
	</g>
	<g>
		<g>
			<path d="M846.4,77.3c-9.3,17.6,9.6,28.1,25.2,28.1c1.4,0,1.5-2.2,0-2.3c-13.6,0-31.7-8.7-23.3-24.8
				C849,77.2,847.1,76.1,846.4,77.3L846.4,77.3z" style="fill:#161616;"/>
		</g>
	</g>
	<g>
		<g>
			<path d="M915.4,56.9c-7.6,11.5-11.8,24.4-22.1,34.2c-10.7,10.2-25.4,15.8-40.1,12.6c-0.6-0.1-1.2,0.2-1.4,0.8
				c-4.5,17,25.8,18.6,35.8,16.6c16.5-3.3,29.4-15.9,34.2-31.8c0.4-1.4-1.8-2-2.2-0.6c-3.9,12.9-13.4,23.7-26.2,28.4
				c-6.9,2.5-14.5,3.3-21.8,2.1c-6.8-1.1-20.2-4.7-17.7-14.2c-0.5,0.3-0.9,0.5-1.4,0.8c13.8,3,27.8-1.2,38.7-10
				c5.4-4.4,9.9-9.7,13.7-15.6c4.6-7.1,7.6-15.1,12.3-22.2C918.1,56.8,916.1,55.7,915.4,56.9L915.4,56.9z" style="fill:#161616;"/>
		</g>
	</g>
	<g>
		<g>
			<path d="M922.9,55.5c17.5,10.2,16.4,39,8.1,54.7c-10.3,19.4-34.8,26.1-53.6,14.6c-1.2-0.8-2.4,1.2-1.1,1.9
				c19.8,12,45.8,5,56.7-15.5c8.9-16.7,9.7-46.9-8.9-57.7C922.8,52.8,921.6,54.8,922.9,55.5L922.9,55.5z" style="fill:#161616;"/>
		</g>
	</g>
	<g>
		<g>
			<path d="M880.6,126.3c-1.7-0.8-3.7-1.8-5.1-3.1c-0.1-0.1-0.3-0.3-0.3-0.3c-0.1-0.2,0.1,0,0,0.2
				c0.3-0.6,0.8-1,1.5-1.4c1.3-0.7,0.1-2.6-1.1-1.9c-1.4,0.8-3.3,2.5-2.3,4.2c0.4,0.8,1.3,1.3,2,1.8c1.3,0.9,2.8,1.7,4.2,2.4
				C880.8,128.8,881.9,126.9,880.6,126.3L880.6,126.3z" style="fill:#161616;"/>
		</g>
	</g>
	<g>
		<g>
			<path d="M922.5,63.4c0,10.2-1.4,20.2-4.1,30c-0.4,1.4,1.8,2,2.2,0.6c2.8-10,4.2-20.2,4.2-30.6
				C924.7,61.9,922.5,61.9,922.5,63.4L922.5,63.4z" style="fill:#161616;"/>
		</g>
	</g>
	<g>
		<g>
			<path d="M916.4,71.4c-4.1,15.2-13.2,28.4-26.2,37.3c-1.2,0.8-0.1,2.8,1.1,1.9c13.4-9.3,23-22.9,27.2-38.7
				C919,70.6,916.8,70,916.4,71.4L916.4,71.4z" style="fill:#161616;"/>
		</g>
	</g>
	<g>
		<g>
			<path d="M929.1,71.1c1.7,16.9-3.6,33.7-15,46.4c-1,1.1,0.6,2.7,1.6,1.6c11.7-13.2,17.4-30.5,15.6-48
				C931.2,69.7,929,69.7,929.1,71.1L929.1,71.1z" style="fill:#161616;"/>
		</g>
	</g>
	<g>
		<g>
			<path d="M1049.5,192.7c-2-1.2-2.8-3.9-1.7-6c1.2-2.2,4.4-2.5,6.3-1.2c2,1.4,2,4.3,0.6,6.2c-1.7,2.2-5.1,1.8-6.7-0.3
				c-0.9-1.1-2.8,0-1.9,1.1c2.3,3,6.9,4,9.8,1.3c2.7-2.6,2.9-7.4,0-9.8c-2.8-2.3-7.4-1.9-9.5,1c-2.2,3.1-1.1,7.7,2.1,9.6
				C1049.6,195.3,1050.7,193.4,1049.5,192.7L1049.5,192.7z" style="fill:#161616;"/>
		</g>
	</g>
	<g>
		<g>
			<path d="M1058.2,192c-1.2-1.8,0-4.2,2.1-4.3c1.9-0.1,3.6,1.4,3.7,3.3c0.1,1.6-0.8,3.4-2.5,3.7
				c-1.7,0.3-3.7-1-3.8-2.8c-0.1-1.4-2.4-1.4-2.3,0c0.3,3.1,3.1,5.5,6.3,5c3.2-0.4,5-3.7,4.5-6.7c-0.5-3.2-3.9-5.5-7.1-4.6
				c-3.2,0.8-4.7,4.8-2.9,7.5C1057,194.4,1059,193.3,1058.2,192L1058.2,192z" style="fill:#161616;"/>
		</g>
	</g>
	<g>
		<g>
			<path d="M1057.6,185.1c-2.2-1.4-0.7-4.5,1.7-4.4c3,0.1,3.6,3.6,2.2,5.7c-0.8,1.2,1.1,2.3,1.9,1.1
				c2.5-3.8,0.1-9.5-4.8-9c-4.4,0.4-5.8,6.2-2.1,8.6C1057.7,187.9,1058.9,185.9,1057.6,185.1L1057.6,185.1z" style="fill:#161616;"/>
		</g>
	</g>
	<g>
		<g>
			<path d="M1066.3,189.7c-1.5-2.1,0.3-4.3,2.6-4.2c1.8,0,3.4,1.3,3.9,3.1c1.4,4.6-6.1,6.7-6.6,1.7
				c-0.1-1.4-2.4-1.4-2.3,0c0.3,3.2,3.3,5.9,6.7,5.1c3.2-0.8,5.2-4.3,4.3-7.4c-0.9-3.1-4.3-5.3-7.5-4.6c-3.3,0.7-5.3,4.5-3.2,7.5
				C1065.2,192,1067.1,190.8,1066.3,189.7L1066.3,189.7z" style="fill:#161616;"/>
		</g>
	</g>
	<g>
		<g>
			<path d="M1050.9,201.3c-2-1.1-1.6-3.8,0.4-4.7c2-0.9,4,0.2,4.7,2.2c0.6,1.6,0,3.4-1.7,3.9c-1.5,0.4-3.2-0.3-3.6-1.8
				c-0.4-1.4-2.5-0.8-2.2,0.6c0.8,2.9,4.1,4.2,6.8,3.3c3.1-1.1,3.8-4.7,2.4-7.4c-1.6-3.1-5.5-4.1-8.4-2.1c-2.9,2-2.7,6.4,0.3,8.2
				C1051.1,204,1052.2,202.1,1050.9,201.3L1050.9,201.3z" style="fill:#161616;"/>
		</g>
	</g>
	<g>
		<g>
			<path d="M1063.5,203.1c-1.9-0.4-3.4-2.6-2.4-4.5c0.8-1.6,3.4-2.2,4.8-1c1.3,1.2,1.4,3.7,0,4.8
				c-1.5,1.2-3.8,0.6-4.8-1c-0.8-1.2-2.7-0.1-1.9,1.1c1.7,2.8,5.8,3.7,8.3,1.4c2.4-2.1,2.2-6.3-0.2-8.2c-2.5-2-6.5-1.1-8,1.6
				c-1.7,3.1,0.4,7.1,3.8,7.8C1064.3,205.5,1064.9,203.4,1063.5,203.1L1063.5,203.1z" style="fill:#161616;"/>
		</g>
	</g>
	<g>
		<g>
			<path d="M1073.6,193.8c1.2-0.5,1.6,1.7,1.6,2.4c-0.1,1.1-0.6,2.2-1.4,2.9c-1.6,1.5-4,1.3-5.7,0.1
				c-1.2-0.9-2.3,1.1-1.1,1.9c3.4,2.4,8.2,1.3,9.9-2.6c0.7-1.7,0.8-3.8-0.2-5.3c-1-1.5-2.6-2.1-4.2-1.3
				C1071.1,192.5,1072.3,194.4,1073.6,193.8L1073.6,193.8z" style="fill:#161616;"/>
		</g>
	</g>
	<g>
		<g>
			<path d="M1064.9,183.5c-1.3-2.9,1.2-6,4.3-5.2c3.1,0.9,3.4,4.7,1.1,6.6c-1.1,0.9,0.5,2.5,1.6,1.6
				c3.9-3.1,2.4-9.5-2.5-10.5c-5-1-8.4,4.2-6.4,8.6C1063.6,185.9,1065.5,184.8,1064.9,183.5L1064.9,183.5z" style="fill:#161616;"/>
		</g>
	</g>
	<g>
		<g>
			<path d="M1074.4,185c-1.5-1.5-0.4-3.8,1.6-3.9c2-0.2,3.5,1.5,3.9,3.3c0.4,1.7,0,3.8-1.2,5.1
				c-1.3,1.3-3.8,1.3-4.4-0.7c-0.4-1.4-2.6-0.8-2.2,0.6c0.9,2.9,4.4,4.2,7,2.6c3.1-1.8,3.9-6.1,2.6-9.3c-1.2-2.9-4.6-4.7-7.7-3.3
				c-2.8,1.3-3.4,5.1-1.2,7.3C1073.8,187.6,1075.4,186.1,1074.4,185L1074.4,185z" style="fill:#161616;"/>
		</g>
	</g>
	<g>
		<g>
			<path d="M1078.6,194.5c-0.7-2.1,1.8-3.7,3.1-1.6c0.7,1.1,0.6,2.7,0.3,3.9c-0.3,1.1-1,2.6-2.3,2.8
				c-1.3,0.3-3-1-2.5-2.4c0.5-1.4-1.7-2-2.2-0.6c-0.9,2.6,1.5,5.1,4,5.3c3,0.1,4.8-2.7,5.2-5.3c0.4-2.7-0.5-6.3-3.6-6.8
				c-3.1-0.4-5.3,2.5-4.3,5.4C1076.9,196.5,1079.1,195.9,1078.6,194.5L1078.6,194.5z" style="fill:#161616;"/>
		</g>
	</g>
	<g>
		<g>
			<path d="M1056,203.1c-0.2-1-1.2-1.3-2.1-1c-1,0.4-1.5,1.4-1.7,2.4c-0.4,2.1,0.6,4.5,2.3,5.7c4.2,3,9.7-2,7.9-6.6
				c-0.5-1.3-2.7-0.7-2.2,0.6c0.8,2-0.7,4.9-3.1,4.7c-1-0.1-1.9-0.8-2.3-1.7c-0.3-0.5-0.4-1-0.5-1.6c0-0.5,0.4-1.2-0.1-1.5
				c-0.2-0.2-0.3-0.4-0.5-0.7c0,0.1,0,0.1,0,0.2C1054,205.2,1056.2,204.6,1056,203.1L1056,203.1z" style="fill:#161616;"/>
		</g>
	</g>
	<g>
		<g>
			<path d="M1066.8,201.3c-1.3,4.7,2.2,9.9,7.4,8.8c4.7-1,5.9-7,2.1-9.8c-1.1-0.9-2.3,1.1-1.1,1.9
				c2.6,2,0.7,5.7-2.2,5.8c-3.3,0.1-4.8-3.3-4.1-6.1C1069.4,200.5,1067.2,199.9,1066.8,201.3L1066.8,201.3z" style="fill:#161616;"/>
		</g>
	</g>
	<g>
		<g>
			<path d="M1061.1,205c-1.7,2.2-0.8,5.5,1.8,6.6c3.1,1.3,6.3-1.5,6.7-4.5c0.2-1.4-2-2-2.2-0.6
				c-0.2,1.5-1.5,3.5-3.4,3.1c-1.1-0.3-2.2-2-1.4-3C1063.6,205.5,1062,203.9,1061.1,205L1061.1,205z" style="fill:#161616;"/>
		</g>
	</g>
	<g>
		<g>
			<path d="M1068.8,216.2c-1.5-1-1.7-3.4-0.4-4.7c1.3-1.3,3.9-0.9,4.9,0.6c1.1,1.6,0.4,4-1.2,5c-1.8,1-3.9,0.2-5.1-1.3
				c-0.9-1.1-2.5,0.5-1.6,1.6c2,2.6,6,3.3,8.6,1.2c2.4-2,2.9-6,0.7-8.4c-2.1-2.2-6-2.3-8,0c-2.1,2.4-1.4,6.2,1.1,7.9
				C1068.9,219,1070,217,1068.8,216.2L1068.8,216.2z" style="fill:#161616;"/>
		</g>
	</g>
	<g>
		<g>
			<path d="M1079.6,205.2c-1.2-0.5-1.5-2.3-0.6-3.2c1-1,2.8-0.8,3.6,0.2c0.9,1,1,2.8,0,3.8c-0.8,0.8-2.1,1.1-2.8,0.2
				c-0.9-1.1-2.5,0.5-1.6,1.6c1.6,2,4.6,1.3,6.2-0.4c1.8-2,1.4-5.5-0.6-7.2c-2-1.7-5.5-1.3-6.9,1c-1.4,2.3-0.2,5.2,2.2,6.2
				C1080.4,207.9,1081,205.7,1079.6,205.2L1079.6,205.2z" style="fill:#161616;"/>
		</g>
	</g>
	<g>
		<g>
			<path d="M1062.4,210.1c-0.7-1.6-2.6-1.5-3.6-0.3c-1.1,1.3-1,3.5-0.3,5c1.8,3.5,6.7,3.3,8.6,0
				c0.7-1.3-1.2-2.4-1.9-1.1c-0.7,1.3-2.6,2-3.9,1c-0.6-0.4-0.9-1.1-1.1-1.8c-0.1-0.3-0.1-0.7,0-1c0-0.2,0.1-0.4,0.2-0.7
				c0.4-0.2,0.3-0.4-0.2-0.6C1060.7,212,1062.9,211.4,1062.4,210.1L1062.4,210.1z" style="fill:#161616;"/>
		</g>
	</g>
	<g>
		<g>
			<path d="M1078.2,208.5c2.4,2.4-0.3,6-3.3,4.8c-1.3-0.5-1.9,1.6-0.6,2.2c2.2,0.9,5,0.1,6.3-2c1.3-2.1,0.9-4.8-0.8-6.6
				C1078.8,205.8,1077.2,207.4,1078.2,208.5L1078.2,208.5z" style="fill:#161616;"/>
		</g>
	</g>
	<g>
		<g>
			<path d="M1064.1,217.3c-2.3,2.5-1.3,7.1,2,8.1c3.6,1.1,7.2-3.1,5.8-6.5c-0.6-1.3-2.7-0.7-2.2,0.6
				c0.7,1.8-0.9,4.5-3,3.8c-1.7-0.6-2.2-3.1-1-4.3C1066.7,217.8,1065.1,216.2,1064.1,217.3L1064.1,217.3z" style="fill:#161616;"/>
		</g>
	</g>
	<g>
		<g>
			<path d="M1071.4,218.9c-0.8,2,0.4,4.1,2.3,4.9c2.1,1,4.4-0.1,5.7-1.9c2.1-2.7,2.3-9.5-2.6-9.2
				c-1.4,0.1-1.4,2.3,0,2.3c2.2-0.1,2.1,3.2,1.4,4.5c-0.5,1-1.3,2.1-2.5,2.4c-1.4,0.3-2.8-1-2.3-2.4
				C1074.1,218.1,1071.9,217.5,1071.4,218.9L1071.4,218.9z" style="fill:#161616;"/>
		</g>
	</g>
	<g>
		<g>
			<path d="M1083.1,209.3C1083.2,209.3,1083.2,209.3,1083.1,209.3c-0.5,0-1.1-0.1-1.7-0.2c0.7,1.4,1.8,3.1,1.4,4.7
				c-0.3,1.1-1.6,2.2-2.7,1.4c-1.2-0.8-2.3,1.1-1.1,1.9c1.8,1.3,4.2,0.3,5.4-1.4c1.7-2.5,0.2-5.5-1-7.9c-0.3-0.6-1.3-0.8-1.8-0.2
				c-1,1.2-0.8,2.6,0.4,3.5C1083.2,212.1,1084.3,210.2,1083.1,209.3L1083.1,209.3z" style="fill:#161616;"/>
		</g>
	</g>
	<g>
		<g>
			<path d="M1067.9,224.2c-2.9,2-1.6,6.6,1.9,6.9c4.2,0.5,6.1-3.9,5.6-7.4c-0.2-1.4-2.4-0.8-2.2,0.6
				c0.3,1.8-0.3,4.2-2.5,4.6c-0.8,0.1-1.7-0.1-2-0.9c-0.3-0.6-0.2-1.5,0.3-1.9C1070.2,225.3,1069.1,223.4,1067.9,224.2L1067.9,224.2
				z" style="fill:#161616;"/>
		</g>
	</g>
	<g>
		<g>
			<path d="M1074.2,224.1c-0.6,3.8,3.8,6.4,6.8,3.9c3.3-2.8,1.7-7.5-1.8-9.2c-1.3-0.7-2.4,1.3-1.1,1.9
				c1.6,0.8,3.1,2.6,2.2,4.5c-0.4,0.8-1.1,1.5-2,1.5c-1,0-2.1-0.9-1.9-2C1076.6,223.3,1074.4,222.7,1074.2,224.1L1074.2,224.1z" style="fill:#161616;"/>
		</g>
	</g>
	<g>
		<g>
			<path d="M1071.4,229.5c-1.2,2.6,1.5,5.3,4.2,4.7c3.1-0.6,3.8-4.2,3.4-6.9c-0.2-1.4-2.4-0.8-2.2,0.6
				c0.2,1.3,0,3-1.1,3.8c-0.5,0.4-1,0.4-1.6,0.1c-0.4-0.2-1-0.7-0.8-1.2C1073.9,229.3,1072,228.2,1071.4,229.5L1071.4,229.5z" style="fill:#161616;"/>
		</g>
	</g>
	<g>
		<g>
			<path d="M1062.7,180c-2-5.7-4.8-17.7,4.7-18.4c-0.4-0.3-0.7-0.6-1.1-0.8c1,2.7-1.8,7.1-2.1,9.9
				c-0.3,2.5-0.1,4.9,0.3,7.3c0.3,1.4,2.4,0.8,2.2-0.6c-0.9-4.4-0.1-8,1.4-12.1c0.7-1.8,1.1-3.2,0.4-5.1c-0.2-0.4-0.6-0.9-1.1-0.8
				c-3.9,0.3-6.9,2.8-8.3,6.4c-1.9,4.9-0.1,10.1,1.5,14.8C1061,181.9,1063.2,181.3,1062.7,180L1062.7,180z" style="fill:#161616;"/>
		</g>
	</g>
	<g>
		<g>
			<path d="M1096.7,342.1c-10.9-8.6-11.3-24-3.8-35c8.2-11.9,25-20.5,37.7-10c11.6,9.6,10.7,26.6,3.8,38.7
				c-8.6,15.4-28.6,12.9-41.2,3.8c-1.2-0.8-2.3,1.1-1.1,1.9c10,7.2,26.7,11.4,37.5,3.5c9.4-6.9,13.5-22,11.8-33.1
				c-1.8-11.3-11.1-21.7-23.1-22.3c-11.9-0.5-24,9.3-29.3,19.4c-6.1,11.4-4.4,26.2,6.1,34.4C1096.3,344.6,1097.9,343,1096.7,342.1
				L1096.7,342.1z" style="fill:#161616;"/>
		</g>
	</g>
	<g>
		<g>
			<path d="M1125.9,292.6c-0.3-2.7-0.6-6.4,0.6-8.9c1.5-3,6.9-1.8,9.7-1.4c-0.2-0.6-0.3-1.3-0.5-1.9
				c-3.2,3.5-5.6,7.5-7.2,11.9c-0.5,1.4,1.7,1.9,2.2,0.6c1.5-4.1,3.7-7.7,6.7-10.9c0.5-0.6,0.4-1.8-0.5-1.9
				c-2.2-0.3-4.4-0.5-6.7-0.5c-1.6,0-3.5-0.1-4.6,1.1c-1.2,1.2-1.4,3.4-1.7,5c-0.4,2.3-0.4,4.6-0.2,6.9
				C1123.8,294,1126.1,294,1125.9,292.6L1125.9,292.6z" style="fill:#161616;"/>
		</g>
	</g>
	<g>
		<g>
			<path d="M1103.5,329.4c0.1,0,0.1,0,0.2,0c0.3,0.1,0.5,0.2,0.8,0.3c0.3,0.3,0.3,0.6,0.1,1c-0.1,0.1-0.3,0.3-0.4,0.4
				c0,0,0,0,0,0c-0.2,0.1-0.4,0.1-0.6,0.2c-0.1,0-0.1,0-0.2,0c0.6,0.2,1.2-0.2,1.4-0.8c0.2-0.6-0.2-1.2-0.8-1.4
				c-0.8-0.3-1.6,0.5-1.6,1.3c0,0.8,0.8,1.6,1.6,1.3c0.6-0.2,1-0.8,0.8-1.4C1104.7,329.7,1104.1,329.2,1103.5,329.4L1103.5,329.4z" style="fill:#161616;"/>
		</g>
	</g>
	<g>
		<g>
			<path d="M1110.9,319.4c0-0.1,0-0.2,0-0.3c0-1.4-2.3-1.5-2.3,0c0,0.1,0,0.2,0,0.3
				C1108.6,320.8,1110.9,320.8,1110.9,319.4c0-0.1,0-0.2,0-0.3c0-1.4-2.3-1.5-2.3,0c0,0.1,0,0.2,0,0.3
				C1108.6,320.8,1110.9,320.8,1110.9,319.4L1110.9,319.4z" style="fill:#161616;"/>
		</g>
	</g>
	<g>
		<g>
			<path d="M1112.4,331.1c-0.2,0-0.4,0-0.5,0c-1.4,0-1.5,2.3,0,2.3c0.2,0,0.4,0,0.5,0
				C1113.9,333.3,1113.9,331.1,1112.4,331.1L1112.4,331.1z" style="fill:#161616;"/>
		</g>
	</g>
	<g>
		<g>
			<path d="M1121.6,320.4c0-0.2,0-0.4,0-0.5c0-1.4-2.3-1.5-2.3,0c0,0.2,0,0.4,0,0.5
				C1119.3,321.9,1121.6,321.9,1121.6,320.4L1121.6,320.4z" style="fill:#161616;"/>
		</g>
	</g>
	<g>
		<g>
			<path d="M1126.4,332.7c0-0.2,0-0.4,0-0.5c0-1.4-2.3-1.5-2.3,0c0,0.2,0,0.4,0,0.5
				C1124.1,334.2,1126.4,334.2,1126.4,332.7L1126.4,332.7z" style="fill:#161616;"/>
		</g>
	</g>
	<g>
		<g>
			<path d="M1121,307.6c0-0.2,0-0.4,0-0.5c0-1.4-2.3-1.5-2.3,0c0,0.2,0,0.4,0,0.5C1118.8,309,1121,309,1121,307.6
				L1121,307.6z" style="fill:#161616;"/>
		</g>
	</g>
	<g>
		<g>
			<path d="M1130.1,321.6c1.4,0,1.5-2.3,0-2.3C1128.6,319.3,1128.6,321.6,1130.1,321.6L1130.1,321.6z" style="fill:#161616;"/>
		</g>
	</g>
	<g>
		<g>
			<path d="M1131.7,288.5c6.3-0.1,12.1-2.8,16.4-7.5c-0.6-0.1-1.2-0.2-1.8-0.2c1.5,3.4,0.2,7.7-3.1,9.5
				c-3.8,2.1-8.3-0.1-11.4-2.4c-1.2-0.9-2.3,1.1-1.1,1.9c4.2,3.2,10.4,5.3,15,1.5c3.5-2.8,4.4-7.6,2.6-11.7
				c-0.3-0.6-1.3-0.7-1.8-0.2c-3.9,4.3-9,6.7-14.8,6.8C1130.2,286.3,1130.2,288.5,1131.7,288.5L1131.7,288.5z" style="fill:#161616;"/>
		</g>
	</g>
	<g>
		<g>
			<path d="M644.6,303.5c2.3-5.4,4.5-10.8,6.8-16.2c0.6-1.3-1.6-1.9-2.2-0.6c-2.3,5.4-4.5,10.8-6.8,16.2
				C641.9,304.2,644,304.8,644.6,303.5L644.6,303.5z" style="fill:#161616;"/>
		</g>
	</g>
	<g>
		<g>
			<path d="M663.2,264.7c2.2-3,4.4-5.9,6.7-8.9c0.9-1.2-1.1-2.3-1.9-1.1c-2.2,3-4.4,5.9-6.7,8.9
				C660.4,264.7,662.4,265.9,663.2,264.7L663.2,264.7z" style="fill:#161616;"/>
		</g>
	</g>
	<g>
		<g>
			<path d="M757.5,151.8c2.1-2.3,4.4-4.3,7.1-5.8c1.3-0.7,0.1-2.7-1.1-1.9c-2.9,1.6-5.4,3.7-7.6,6.2
				C755,151.3,756.6,152.9,757.5,151.8L757.5,151.8z" style="fill:#161616;"/>
		</g>
	</g>
	<g>
		<g>
			<path d="M805.8,119.5c3.4-1.2,6.9-2.5,10.3-3.7c1.4-0.5,0.8-2.7-0.6-2.2c-3.4,1.2-6.9,2.5-10.3,3.7
				C803.8,117.8,804.4,120,805.8,119.5L805.8,119.5z" style="fill:#161616;"/>
		</g>
	</g>
	<g>
		<g>
			<path d="M967.1,98.8c5.9,2.3,11.4,5.3,16.7,8.9c1.2,0.8,2.3-1.1,1.1-1.9c-5.4-3.7-11.1-6.7-17.2-9.1
				C966.3,96.1,965.7,98.2,967.1,98.8L967.1,98.8z" style="fill:#161616;"/>
		</g>
	</g>
	<g>
		<g>
			<path d="M1017.6,139.1c4.7,4.2,9.3,8.4,14,12.6c1.1,1,2.7-0.6,1.6-1.6c-4.7-4.2-9.3-8.4-14-12.6
				C1018.1,136.5,1016.5,138.1,1017.6,139.1L1017.6,139.1z" style="fill:#161616;"/>
		</g>
	</g>
	<g>
		<g>
			<path d="M1091.1,238.1c2.8,4,5.4,8.1,7.9,12.3c0.7,1.2,2.7,0.1,1.9-1.1c-2.5-4.2-5.1-8.3-7.9-12.3
				C1092.2,235.8,1090.3,236.9,1091.1,238.1L1091.1,238.1z" style="fill:#161616;"/>
		</g>
	</g>
	<g>
		<g>
			<path d="M1106.7,278.4c0.7,3,1.4,5.9,2.2,8.9c0.3,1.4,2.5,0.8,2.2-0.6c-0.7-3-1.4-5.9-2.2-8.9
				C1108.5,276.4,1106.4,277,1106.7,278.4L1106.7,278.4z" style="fill:#161616;"/>
		</g>
	</g>
	<path d="M703.1,206c0.3,0.8,1,2.7,0.5,5c-0.5,2.8-2.3,4.5-3,5.1c-3.5,3.2-8.1,2.6-8.9,2.5c0.2,0.2,3.4,4.4,8.2,3.8
		c0.5-0.1,4-0.5,5.9-3.5c1-1.6,1-3.2,1-4.2C706.8,210.2,704.1,207,703.1,206z" style="opacity:0.14;fill:#3D3D3D;"/>
	<path d="M733.6,165.1c-0.9,0.1-1.3,2.4-2.2,5.8c-2,8-3.2,8-5.2,15.1c-1.7,6.2-0.7,5.9-2.5,15.1
		c-1.8,9.1-2.7,13.7-5.5,18.5c-1.7,3-5.2,8.9-12.2,11.9c-10.4,4.5-20.7-0.7-22.4-1.7c0.4,1.6,1.2,4.1,3.1,6.5
		c3.6,4.6,8.4,6.1,10.7,6.7c0.5,0.2,12.2,3.2,19.6-3.2c1.2-1,2.5-2.9,5.3-6.7c2.3-3.2,3.9-5.5,5.2-8.1c1-2.1,2.1-5.1,2.7-12.9
		c1-13.5-1.8-13.1,0-19.9c2.3-9.1,5.1-15.4,5.1-15.4c0.3-0.6,1.1-2.6,1-5.3C736.2,168.4,734.7,165.1,733.6,165.1z" style="opacity:0.22;fill:#3D3D3D;"/>
	<path d="M635.5,347.1c1.1,3.3,2.5,9.2,1.6,16.5c-1.1,9.3-5.2,15.5-7.1,18.3c-5.7,8.4-12.9,12.8-16.9,14.9
		c6.9,1.2,12.4,0.5,15.9-0.2c4.8-1,9.8-2,13.4-6.1c2-2.2,2.7-4.7,4.1-9.6c1.7-6,3.5-12.6,2.4-21c-0.7-5.3-1.3-10.5-5.3-12.6
		C640.7,345.7,637.3,346.5,635.5,347.1z" style="opacity:0.23;fill:#3D3D3D;"/>
	<path d="M845.5,84.3c1.5,4.3,3.7,6.8,5,8c9.9,9.2,25.6,4.6,26.5,4.3c10.8-3.4,17.1-12.3,20-16.3
		c4-5.5,6.3-11.4,14-18.9c1.7-1.6,3.1-2.9,4.1-3.7c-2.7,8.8-8.2,22.3-19.8,33.5c-8.4,8.2-15,10.4-17.4,11.1
		c-7.8,2.2-14.1,1.1-16,0.7c-4.4-0.9-11.3-2.4-14.7-8.5C845,90.5,845.2,86.3,845.5,84.3z" style="opacity:0.2;fill:#3D3D3D;"/>
	<path d="M852.6,108.3c1.9,1.7,5.1,4,9.5,5.5c2.9,0.9,7,1.8,14.2,0.8c5-0.7,16.5-2.2,26.9-9.8
		c19.1-14.1,20.1-38.4,20.2-41.6c0.6,8.8-0.6,15.9-1.8,20.4c-1.4,5.8-3.6,14.4-10.8,22.4c-4.4,4.9-9,7.7-11.7,9.1
		c-7.2,3.8-13.5,4.5-17.9,4.9c-8.3,0.8-17.4,1.7-23.7-4.1C854.7,113.4,853.3,110.4,852.6,108.3z" style="opacity:0.18;fill:#3D3D3D;"/>
	<path d="M933.2,79.7c0,4.4-0.3,15.5-7.1,27c-2.7,4.5-7.7,13-18,17.7c-15.3,7.1-30.5,0.4-33.3-0.8
		c2.5,1.9,6.9,4.7,12.8,6.3c9.7,2.5,17.7,0.1,22.2-1.4c4.1-1.3,10.5-3.3,16.2-9.1c5.4-5.5,7.3-11.4,8.9-16.1
		c1.7-5.2,4-15.2,1.4-27.3c-1.6-7.1-4.3-12.4-6.4-15.8C931.4,64.4,933.2,71.2,933.2,79.7z" style="opacity:0.2;fill:#3D3D3D;"/>
	<path d="M1127.9,294.9c1.1,2.9,2.5,8,2.1,14.2c-0.7,10.4-5.9,17.4-7.6,19.5c-9.2,11.8-22.7,13.8-25.7,14.2
		c2.4,1.7,8.3,5.5,16.5,5.7c2.3,0.1,11.9,0.3,19-6.6c4.2-4.1,5.5-8.7,6.9-13.3c1.4-4.7,3.2-11.1,0.9-18.6
		C1137.3,301.1,1130.3,296.4,1127.9,294.9z" style="opacity:0.15;fill:#3D3D3D;"/>
</g>
<g id="table">
	<g>
		<g>
			<path d="M1186.1,694.5c0,88,0,176,0,264c0,24.9,0,49.8,0,74.7c0,3.9,6,3.9,6,0c0-88,0-176,0-264c0-24.9,0-49.8,0-74.7
				C1192.1,690.6,1186.1,690.6,1186.1,694.5L1186.1,694.5z"/>
		</g>
	</g>
	<g>
		<g>
			<path d="M519.4,694.5c0,87.5,0,175,0,262.5c0,24.5,0,49,0,73.6c0,3.9,6,3.9,6,0c0-87.5,0-175,0-262.5c0-24.5,0-49,0-73.6
				C525.4,690.6,519.4,690.6,519.4,694.5L519.4,694.5z"/>
		</g>
	</g>
	<g>
		<g>
			<path d="M590.6,699c0,56.8,0,113.5,0,170.3c0,3.9,6,3.9,6,0c0-56.8,0-113.5,0-170.3C596.6,695.1,590.6,695.1,590.6,699L590.6,699
				z"/>
		</g>
	</g>
	<g>
		<g>
			<path d="M1139.7,690.1c0,56.8,0,113.5,0,170.3c0,3.9,6,3.9,6,0c0-56.8,0-113.5,0-170.3C1145.7,686.2,1139.7,686.2,1139.7,690.1
				L1139.7,690.1z"/>
		</g>
	</g>
	<path d="M508.2,697c232.6-0.3,465.2-0.6,697.9-0.9c-6.9-27.4-13.7-54.9-20.6-82.3c-201.6,0.6-403.2,1.2-604.8,1.8
		C556.5,642.7,532.4,669.9,508.2,697z" style="stroke:#161616;stroke-width:3;stroke-miterlimit:10;"/>
	<g>
		<g>
			<path d="M505.1,684.5c0,4.2,0,8.4,0,12.6c0,1.9,3,1.9,3,0c0-4.2,0-8.4,0-12.6C508.1,682.6,505.1,682.6,505.1,684.5
				L505.1,684.5z" style="fill:#161616;"/>
		</g>
	</g>
	<g>
		<g>
			<path d="M505.9,686.6c0.3,2.8,0.7,5.7,1,8.5c0.2,1.9,3.2,1.9,3,0c-0.3-3-0.5-6-0.4-9.1c-0.9,0.3-1.9,0.5-2.8,0.8
				c1,2.4,0.2,5.1,1.2,7.5c0.6,1.5,3,1.4,2.9-0.4c0-2.5,0.1-5,0.3-7.6c-1,0.1-2,0.3-2.9,0.4c0.7,1.9,1.3,3.9,1.8,5.9
				c0.4,1.4,2.5,1.4,2.9,0c0.3-1.3,0.4-3.3,1.2-4.3c-0.3,0.2-0.6,0.5-0.9,0.7c0.1,0,0.3-0.1,0.4-0.1c-0.4-0.1-0.8-0.1-1.2-0.2
				c0.1,0.1,0.2,0.2,0.3,0.2c-0.2-0.4-0.5-0.9-0.7-1.3c0.5-0.6,0.5-0.9-0.1-1c-0.4-0.1-0.7-0.3-1.1-0.5c-0.3-0.1-1.1-0.7-1.2-0.3
				c-0.3,0.3-0.7,0.7-1,1c2.4-0.5,4.8-0.1,7.1,0.4c1.9,0.4,2.7-2.5,0.8-2.9c-2.4-0.5-4.8-0.6-7.3-0.3c0.1,1,0.3,2,0.4,2.9
				c2.5-0.5,5-0.6,7.6-0.4c-0.5-0.6-1-1.3-1.4-1.9c-0.2,1.2-0.9,1.7-2,1.9c-0.8,0.1-2.5,0.3-3.2,0c-0.6-0.2-0.6-0.7-1-1.2
				c-0.2-0.2-0.5-0.4-0.8-0.5c-1.1-0.2,0.2-0.1-0.3,0.8c-0.6,0.2-1.1,0.5-1.7,0.7c0.3,0.1,0.6,0.2,0.8,0.3c1.8,0.6,2.6-2.3,0.8-2.9
				c-0.3-0.1-0.6-0.2-0.8-0.3c-0.6-0.2-1.4,0.1-1.7,0.7c-0.7,1.2-0.4,2.7,0.9,3.4c0.3,0.1,0.7,0.1,0.9,0.2c-0.5-0.3,0,0.3,0.1,0.5
				c0.4,0.7,1.1,1.1,1.9,1.3c3.5,0.7,8.2,0.1,9-4c0.2-1-0.4-1.8-1.4-1.9c-2.8-0.3-5.6-0.1-8.4,0.5c-1.6,0.3-1.3,3.2,0.4,2.9
				c2.2-0.3,4.3-0.3,6.5,0.2c0.3-1,0.5-1.9,0.8-2.9c-2.9-0.6-5.8-1-8.7-0.4c-0.5,0.1-0.9,0.6-1,1c-0.5,2.3,1.5,3.2,3.3,4
				c1.5,0.6,3.6,1.5,4.7-0.3c0.8-1.4-0.3-3.1-1.9-2.8c-2.3,0.3-2.4,4.2-2.8,5.8c1,0,1.9,0,2.9,0c-0.5-2-1.1-4-1.8-5.9
				c-0.6-1.6-2.8-1.3-2.9,0.4c-0.2,2.5-0.3,5-0.3,7.6c1-0.1,2-0.3,2.9-0.4c-1.1-2.7-0.3-5.6-1.5-8.3c-0.6-1.4-2.8-0.6-2.8,0.8
				c0,3,0.1,6,0.4,9.1c1,0,2,0,3,0c-0.3-2.8-0.7-5.7-1-8.5C508.7,684.7,505.7,684.7,505.9,686.6L505.9,686.6z" style="fill:#161616;"/>
		</g>
	</g>
	<g>
		<g>
			<path d="M1204.9,683c0,4.3,0,8.7,0,13c0,1.9,3,1.9,3,0c0-4.3,0-8.7,0-13C1207.9,681,1204.9,681,1204.9,683
				L1204.9,683z" style="fill:#161616;"/>
		</g>
	</g>
	<g>
		<g>
			<path d="M1203.5,683.5c0,1,0,2.1,0,3.1c0,0.8,0.7,1.5,1.5,1.5c0.8,0,1.5-0.7,1.5-1.5c0.1-1,0-2-0.1-3
				c-0.1-0.8-0.6-1.5-1.5-1.5c-0.8,0-1.5,0.7-1.5,1.5c0,0.7,0,1.4,0,2.1c0,1.9,3,1.9,3,0c0-0.7,0-1.4,0-2.1c-1,0-2,0-3,0
				c0.1,1,0.1,2,0.1,3c1,0,2,0,3,0c0-1,0-2.1,0-3.1C1206.4,681.6,1203.4,681.6,1203.5,683.5L1203.5,683.5z" style="fill:#161616;"/>
		</g>
	</g>
	<path d="M508.2,683c232.6-0.3,465.2-0.6,697.9-0.9c-6.9-27.4-13.7-54.9-20.6-82.3c-201.6,0.6-403.2,1.2-604.8,1.8
		C556.5,628.8,532.4,655.9,508.2,683z" style="fill:#FFFFFF;stroke:#161616;stroke-width:3;stroke-miterlimit:10;"/>
	<path d="M1068.2,610.7c-1.2,0.3-1.3,6.3,2.1,25.7c0.9,1.5,2.4,3.7,5.1,5.3c3.2,2,6.9,2,14,1.8
		c8.2-0.1,10.5-1.3,11.5-1.8c2.5-1.4,4.1-3.3,5.1-4.6c0.6-8.5,1.2-17,1.8-25.5c-1.1,1.4-2.8,3-5.1,3.2c-4.1,0.3-5.4-4.6-10.1-5.1
		c-2.4-0.2-2.3,1-10.3,3.9c-5.4,2-6.9,1.9-8,1.6C1070.3,614.3,1069.2,610.5,1068.2,610.7z" style="fill:#EC615B;"/>
	<path d="M1066.9,581.6c0.3,9.4,0.7,18.8,1,28.3c1.7,2.5,4.3,5.5,7.8,5.9c5.2,0.5,7.1-5.7,13.3-5.7
		c4.7,0,6,3.5,12.1,3.6c3,0.1,5.4-0.7,6.9-1.4c-1.2-8.6-0.2-15,1-19.3c1.2-4.2,3.1-8.4,1.2-10.7c-1.4-1.6-4.1-1.6-6.2-1.4
		c0.1-2,0.5-4.3,1.4-6.9c2-6,5.2-8.5,4.3-12.2c-0.3-1.4-1.3-3.1-2.2-3.1c-1.6,0-2.4,4.6-5,12.6c-1.3,4-2.6,7.3-3.4,9.5
		c-5.8,0.4-10.4,0-13.4-0.5c-4.8-0.7-8.6-2-13.6-0.7C1069.7,580.1,1068,581,1066.9,581.6z" style="fill:#FFFFFF;"/>
	<g>
		<g>
			<path d="M769.3,629.2c15.4,17.4,43.6,18.5,65.1,18.9c13.6,0.2,27.2-0.8,40.6-3c12.6-2.1,25.2-5.1,36.4-11.4
				c1.7-0.9,0.2-3.5-1.5-2.6c-21.6,12-49.4,14.1-73.6,13.9c-21.2-0.2-49.7-0.8-64.9-18C770.1,625.6,768,627.8,769.3,629.2
				L769.3,629.2z" style="fill:#161616;"/>
		</g>
	</g>
	<g>
		<g>
			<path d="M754.7,618.1c1.8,2.6,4.1,2.2,7,3c4.8,1.2,6.1,6.2,10.5,7.6c1.3,0.4,2.8,0.4,4.2,0.5c3.6,0.4,5.2,1.9,8,3.8
				c3.3,2.3,6.9,3.4,11,3.4c1.4,0,1.5-2.2,0-2.3c-5.1,0-8-2.1-12.1-4.8c-2.6-1.7-4.6-2.1-7.6-2.4c-4.8-0.5-5.9-4.5-9.5-6.6
				c-2.5-1.5-7.9-0.8-9.6-3.3C755.8,615.8,753.9,616.9,754.7,618.1L754.7,618.1z" style="fill:#161616;"/>
		</g>
	</g>
	<g>
		<g>
			<path d="M757.2,617.7c-0.3-1.5,6.8-0.8,8-1.5c1.8-1,1.5-2.4,2.5-3.7c3.5-4.4,7.1,0,11.1-0.6c3-0.5,5.8-3.8,8.9-3
				c2.9,0.8,3.7,4.4,5.8,6.1c2,1.7,3.5,1,5.7,1.5c4.8,1.2,2,5.1,2.6,8.3c0.5,2.3,0.4,2.8-0.7,4.7c-0.7,1.2-3.4,5.3-4.9,4.2
				c-1.2-0.8-2.3,1.1-1.1,1.9c2.6,1.9,4.7-0.1,6.2-2.3c1-1.4,3-3.1,3.5-4.8c0.6-2.2-0.8-4.7-0.6-7.1c0.3-2.6,1.5-5.4-1.7-6.9
				c-2.7-1.2-5.4,0.3-7.9-1.8c-1.6-1.4-2.3-3.5-3.9-4.9c-2.5-2.1-5.1-1.6-7.9-0.3c-3.4,1.6-5.2,2.3-8.9,1.1
				c-1.9-0.6-3.8-1.4-5.8-0.5c-1.2,0.5-1.5,1.4-2.2,2.3c-1.3,1.9,1.4,2.7-3.3,4c-1,0.3-2.3-0.2-3.2-0.2c-2.8-0.1-5,0.9-4.4,4
				C755.3,619.7,757.5,619.1,757.2,617.7L757.2,617.7z" style="fill:#161616;"/>
		</g>
	</g>
	<g>
		<g>
			<path d="M857.3,634.1c3.3-4.5,4.7-10.1,8.2-14.3c3.6-4.3,14.2-10.1,19-4.3c5.7,6.9-4.6,10.6-9,14
				c-2,1.5-3.7,3.2-5.7,4.7c-0.8,0.6-1.6,1.1-2.5,1.6c-1.2,0.7-2.4,1.2-3.8,1.3c-2.7,0.9-4.2-0.8-4.5-5.3c1.1-0.9-0.5-2.5-1.6-1.6
				c-2.1,1.6-2.5,4.6-1,6.8c2,2.9,5.9,3,8.9,2c4.5-1.4,7.8-5,11.5-7.8c3.7-2.8,9.2-4.6,11.2-9.1c3.5-7.8-5.9-11.9-12.1-10.9
				c-4.6,0.8-9,3.3-12,6.9c-3.7,4.3-5.2,10.1-8.6,14.7C854.5,634.1,856.4,635.2,857.3,634.1L857.3,634.1z" style="fill:#161616;"/>
		</g>
	</g>
	<g>
		<g>
			<path d="M872.7,621.4c-1-0.6,1.2-2.1,1.7-2.4c0.8-0.5,2.5-1.1,2.9,0.2c0.8,2.6-2.9,2.9-4.5,2.6
				c-1.4-0.3-2,1.9-0.6,2.2c2.2,0.5,4.9,0.4,6.4-1.6c1.2-1.6,1.4-4.1-0.2-5.4c-3.6-3.1-11.3,3.7-6.8,6.3
				C872.9,624.1,874,622.1,872.7,621.4L872.7,621.4z" style="fill:#161616;"/>
		</g>
	</g>
	<g>
		<g>
			<path d="M860.3,638.8c6.1,3.1,12.1,0.6,17.2-3.3c4.7-3.6,10-7.8,11.1-14c0.2-1.4-1.9-2-2.2-0.6
				c-0.8,4.7-4.1,7.7-7.5,10.6c-4.8,4.1-10.9,8.6-17.4,5.3C860.1,636.3,859,638.2,860.3,638.8L860.3,638.8z" style="fill:#161616;"/>
		</g>
	</g>
	<g>
		<g>
			<path d="M868.9,639.2c5.5-3.7,10.5-7.9,15.1-12.6c1-1-0.6-2.6-1.6-1.6c-4.5,4.6-9.4,8.7-14.7,12.2
				C866.5,638.1,867.7,640,868.9,639.2L868.9,639.2z" style="fill:#161616;"/>
		</g>
	</g>
	<g>
		<g>
			<path d="M879.9,632.4c1.1-1.2,2.2-2.3,3.4-3.5c1-1-0.6-2.6-1.6-1.6c-1.1,1.2-2.2,2.3-3.4,3.5
				C877.3,631.8,878.9,633.4,879.9,632.4L879.9,632.4z" style="fill:#161616;"/>
		</g>
	</g>
	<g>
		<g>
			<path d="M817.4,636.3c-1.9-0.3-2-2.6-0.8-3.8c1.3-1.2,3.5-1.4,5-0.7c1.7,0.8,2.4,2.6,0.7,3.8c-0.9,0.7-3.8,2-4.8,1.1
				c-1.1-0.9-2.7,0.7-1.6,1.6c2.2,1.9,6.3,0.5,8.3-1.3c2.5-2.3,1.5-5.7-1.3-7.2c-2.8-1.4-6.7-0.8-8.5,1.8c-1.7,2.4-0.6,6.2,2.5,6.7
				C818.2,638.7,818.8,636.6,817.4,636.3L817.4,636.3z" style="fill:#161616;"/>
		</g>
	</g>
	<g>
		<g>
			<path d="M816.5,630.7c0.3-2.5,2.7-4.6,5.2-4.5c1.3,0,2.7,0.6,3.3,1.8c0.8,1.4,0.1,3.1-1.4,3.5
				c-1.4,0.3-0.8,2.5,0.6,2.2c5-1.1,3.9-7.5,0-9.2c-4.6-2-9.3,1.7-9.9,6.3C814,632.2,816.3,632.2,816.5,630.7L816.5,630.7z" style="fill:#161616;"/>
		</g>
	</g>
	<g>
		<g>
			<path d="M818.8,623.8c-0.8-0.6,1.7-2.5,2-2.7c1-0.6,2.3-0.8,3.4-0.4c2.6,0.9,3.2,4.3,0.6,5.5
				c-1.3,0.6-0.2,2.6,1.1,1.9c4.8-2.3,2.9-8.9-1.9-9.8c-2.3-0.4-4.7,0.6-6.2,2.3c-1.4,1.5-2,3.7-0.2,5.1
				C818.8,626.6,819.9,624.6,818.8,623.8L818.8,623.8z" style="fill:#161616;"/>
		</g>
	</g>
	<g>
		<g>
			<path d="M794.7,614c6.2,0.2,10-7.6,16.5-3.6c1,0.6,1.7,1.5,3,1.9c0.6,0.2,1.3,0.1,1.9,0.2c2.4,0.3,4.6,0.9,6,3.2
				c0.7,1.2,2.7,0.1,1.9-1.1c-1.1-1.8-2.2-3.6-4.3-4.3c-1.2-0.4-2.5,0.1-3.6-0.1c-2.5-0.3-2.9-1.6-4.8-2.8c-6.6-4-10.2,4.5-16.6,4.2
				C793.3,611.7,793.3,614,794.7,614L794.7,614z" style="fill:#161616;"/>
		</g>
	</g>
	<g>
		<g>
			<path d="M800.2,635.7c4.1-0.6,12,4.3,13.5-2.4c0.3-1.4-1.9-2-2.2-0.6c-0.8,3.4-4.9,1.8-7.1,1.2
				c-1.7-0.5-3.1-0.6-4.8-0.3C798.2,633.7,798.8,635.9,800.2,635.7L800.2,635.7z" style="fill:#161616;"/>
		</g>
	</g>
	<g>
		<g>
			<path d="M822,613.7c0,1.6,0,3.3,0,4.9c0,1.4,2.3,1.5,2.3,0c0-1.6,0-3.3,0-4.9C824.3,612.2,822,612.2,822,613.7
				L822,613.7z" style="fill:#161616;"/>
		</g>
	</g>
	<g>
		<g>
			<path d="M824.3,614.7c15.3-0.2,30.7-0.1,46,0.4c1.4,0,1.4-2.2,0-2.3c-15.3-0.5-30.7-0.6-46-0.4
				C822.8,612.5,822.8,614.7,824.3,614.7L824.3,614.7z" style="fill:#161616;"/>
		</g>
	</g>
	<g>
		<g>
			<path d="M887,618.1c5,1.3,24.9,5.9,23.2,13c-0.3,1.4,1.8,2,2.2,0.6c1-4.2-1.6-7-5.2-8.8c-6.1-3-13-5.3-19.6-7
				C886.2,615.6,885.6,617.7,887,618.1L887,618.1z" style="fill:#161616;"/>
		</g>
	</g>
	<g>
		<g>
			<path d="M837.1,638.8c-1-1.3,0.6-3.2,2-2c1.3,1.2-0.6,3.2-1.8,1.8c-1-1.1-2.6,0.5-1.6,1.6c1.3,1.4,3.7,1.5,5.1,0.1
				c1.3-1.3,1.4-3.6,0.1-5c-1.3-1.3-3.5-1.5-5-0.3c-1.4,1.2-1.7,3.4-0.7,4.9C836,641.1,838,639.9,837.1,638.8L837.1,638.8z" style="fill:#161616;"/>
		</g>
	</g>
	<g>
		<g>
			<path d="M845.6,633c-0.3-0.3-0.1-0.8,0.1-1.1c0.3-0.5,0.8-0.4,1.2,0c0.4,0.3,0.5,0.8,0.1,1.2
				c-0.3,0.2-0.9,0.4-1.2,0.2c-0.5-0.4-1.1-0.5-1.6,0c-0.4,0.4-0.5,1.2,0,1.6c1.3,1,3,1,4.3-0.1c1.3-1.2,1.2-3.2,0-4.4
				c-1.2-1.2-3.2-1.3-4.4,0c-1.1,1.2-1.1,3.1-0.1,4.3C845,635.7,846.5,634.1,845.6,633L845.6,633z" style="fill:#161616;"/>
		</g>
	</g>
	<g>
		<g>
			<path d="M837,624.6c0.1,0.1,0.2,0.2,0.2,0.2c0-0.1,0-0.1,0-0.2c0.1-0.1,0.1-0.3,0.1-0.4c0.2-0.3,0.4-0.6,0.8-0.8
				c0.6-0.3,1.3-0.1,1.7,0.5c0.6,1-0.7,1.9-1.5,1.1c-0.9-1.1-2.5,0.5-1.6,1.6c1.1,1.3,3.1,1.3,4.4,0.3c1.5-1.2,1.3-3.5,0-4.8
				c-1.4-1.4-3.6-1.3-5,0.1c-1.1,1.1-2,4.2,0.3,4.6C837.8,627.1,838.4,624.9,837,624.6L837,624.6z" style="fill:#161616;"/>
		</g>
	</g>
	<g>
		<g>
			<path d="M931.3,613.6c-4.1,10.2-8.3,20.3-12.7,30.3c-0.6,1.3,1.4,2.5,1.9,1.1c4.5-10.2,8.8-20.5,12.9-30.8
				C934,612.9,931.9,612.3,931.3,613.6L931.3,613.6z" style="fill:#161616;"/>
		</g>
	</g>
	<g>
		<g>
			<path d="M933,615.2c0.4,0.6,0.7,1.2,1.1,1.9c-0.4,0.9-0.8,1.8-1.2,2.7c-0.5,1.2-1.1,2.4-1.6,3.6
				c-1.2,2.7-2.4,5.4-3.6,8.1c-2,4.6-4,9.3-5.9,13.9c-0.6,1.3,1.6,1.9,2.2,0.6c3.8-9.2,8.8-18.3,12-27.8c0.9-2.7-0.6-7.7-4.2-5
				C930.7,614.1,931.8,616,933,615.2L933,615.2z" style="fill:#161616;"/>
		</g>
	</g>
	<g>
		<g>
			<path d="M918.2,644.2c-6.6,0.9-11.7,6.6-12.1,13.2c-0.1,1.4,2.2,1.4,2.3,0c0.4-5.7,4.9-10.3,10.5-11
				C920.2,646.2,919.6,644.1,918.2,644.2L918.2,644.2z" style="fill:#161616;"/>
		</g>
	</g>
	<g>
		<g>
			<path d="M914.5,652c-1.6,2.7-2.7,5.6-3.2,8.6c-0.2,1.4,1.9,2,2.2,0.6c0.5-2.9,1.5-5.6,3-8.1
				C917.2,651.8,915.2,650.7,914.5,652L914.5,652z" style="fill:#161616;"/>
		</g>
	</g>
	<g>
		<g>
			<path d="M917.6,653.1c-1.1,2.3-1.8,4.6-2.1,7.1c-0.2,1.4,2,2,2.2,0.6c0.3-2.3,0.9-4.5,1.9-6.6
				C920.1,652.9,918.2,651.8,917.6,653.1L917.6,653.1z" style="fill:#161616;"/>
		</g>
	</g>
	<g>
		<g>
			<path d="M920.6,654.1c-0.4,2.1-0.9,4.3-1.3,6.4c-0.3,1.4,1.9,2,2.2,0.6c0.4-2.1,0.9-4.3,1.3-6.4
				C923,653.3,920.9,652.7,920.6,654.1L920.6,654.1z" style="fill:#161616;"/>
		</g>
	</g>
	<g>
		<g>
			<path d="M922.4,647.8c2.7,3,3.5,7.1,2.2,10.9c-0.5,1.4,1.7,2,2.2,0.6c1.6-4.6,0.5-9.5-2.8-13.1
				C923,645.1,921.5,646.7,922.4,647.8L922.4,647.8z" style="fill:#161616;"/>
		</g>
	</g>
	<g>
		<g>
			<path d="M735.4,652.1c12.5-1.4,24.4,2.7,36.7,4.4c3.1,0.4,7.4,1.6,10.2-0.3c4.2-3,7.7-8.6,11.1-12.5
				c1-1.1-0.6-2.7-1.6-1.6c-3.1,3.6-6.3,8.8-10.1,11.6c-4.3,3.2-13.2,0-18-0.9c-9.4-1.9-18.6-4-28.3-2.9
				C734,650,734,652.3,735.4,652.1L735.4,652.1z" style="fill:#161616;"/>
		</g>
	</g>
	<g>
		<g>
			<path d="M735.6,651.6c6.2-3.9,12.2-8,18.2-12.2c5.8-4.2,13-9.8,20.2-5.3c1.2,0.8,2.4-1.2,1.1-1.9
				c-5.6-3.5-11.8-1.8-17.1,1.5c-8.1,5-15.6,11-23.6,16.1C733.2,650.5,734.4,652.4,735.6,651.6L735.6,651.6z" style="fill:#161616;"/>
		</g>
	</g>
	<g>
		<g>
			<path d="M1065.7,582.5c0,18.3,1.1,36.6,3.2,54.8c0.2,1.4,2.4,1.4,2.3,0c-2.1-18.2-3.1-36.5-3.2-54.8
				C1068,581,1065.7,581,1065.7,582.5L1065.7,582.5z" style="fill:#161616;"/>
		</g>
	</g>
	<g>
		<g>
			<path d="M1069.5,638c4.5,5.4,11.2,7,17.9,6.8c6.6-0.1,13.8-0.7,18.6-5.7c1-1-0.6-2.6-1.6-1.6c-4.4,4.5-11.1,4.9-17,5
				c-6.2,0.1-12.2-1.2-16.3-6.2C1070.2,635.3,1068.6,636.9,1069.5,638L1069.5,638z" style="fill:#161616;"/>
		</g>
	</g>
	<g>
		<g>
			<path d="M1108.1,587.4c-0.8,17-2.1,33.9-3.8,50.8c-0.1,1.4,2.1,1.4,2.3,0c1.7-16.9,2.9-33.8,3.8-50.8
				C1110.4,585.9,1108.2,585.9,1108.1,587.4L1108.1,587.4z" style="fill:#161616;"/>
		</g>
	</g>
	<g>
		<g>
			<path d="M1070,584.7c11.2,5.6,23.8,6.8,35.8,3.1c1.4-0.4,0.8-2.6-0.6-2.2c-11.4,3.4-23.4,2.4-34-2.9
				C1069.8,582.1,1068.7,584.1,1070,584.7L1070,584.7z" style="fill:#161616;"/>
		</g>
	</g>
	<g>
		<g>
			<path d="M1097.7,588c3.8-8,5.4-16.7,8.6-24.9c2.3-5.8,2.1-1.2,1.3,1.1c-0.9,2.4-1.8,4.9-2.7,7.3
				c-1.8,4.9-3.6,9.7-5.3,14.6c-0.5,1.4,1.7,1.9,2.2,0.6c2.7-7.3,5.4-14.6,8-21.9c0.8-2.1,2.8-7.3-0.8-8.3c-3.5-1-5,6.3-5.7,8.5
				c-2.5,7.3-4.1,14.9-7.5,21.9C1095.1,588.2,1097,589.3,1097.7,588L1097.7,588z" style="fill:#161616;"/>
		</g>
	</g>
	<g>
		<g>
			<path d="M1067.6,582.3c0.9-2.8,13.3-1.1,15.7-1.1c5.5,0.1,11.1-0.1,16.6,0.6c1.4,0.2,1.4-2.1,0-2.3
				c-8-1-16.4-0.6-24.5-0.7c-3.3,0-8.7-1.1-10,2.9C1065,583,1067.1,583.6,1067.6,582.3L1067.6,582.3z" style="fill:#161616;"/>
		</g>
	</g>
	<g>
		<g>
			<path d="M1102.7,582.2c2-0.3,5-0.8,6.1,1.4c0.9,1.6-1,2.8-0.8,4.6c0.2,1.4,2.4,0.8,2.2-0.6c0-0.3,0.7-1.2,0.9-1.6
				c0.2-0.5,0.3-1,0.3-1.5c0-1.1-0.6-2.3-1.4-3.1c-2.1-2.1-5.2-1.8-7.9-1.4C1100.7,580.2,1101.3,582.4,1102.7,582.2L1102.7,582.2z" style="fill:#161616;"/>
		</g>
	</g>
	<g>
		<g>
			<path d="M1067,610.7c3.4,7.2,11.3,7.7,16.8,2.7c6.2-5.6,10.7,1.2,16.9,2.1c3.2,0.5,5.8-1.2,7.6-3.7
				c0.8-1.2-1.1-2.3-1.9-1.1c-3.8,5.5-8.2,0.9-12.2-0.8c-2.3-0.9-4.9-1.4-7.4-0.8c-1.9,0.4-3.1,1.5-4.5,2.7
				c-4.5,4-10.5,3.7-13.3-2.3C1068.3,608.3,1066.4,609.4,1067,610.7L1067,610.7z" style="fill:#161616;"/>
		</g>
	</g>
</g>
</svg>